%TF.GenerationSoftware,KiCad,Pcbnew,9.0.6-9.0.6~ubuntu22.04.1*%
%TF.CreationDate,2026-02-12T12:00:21+09:00*%
%TF.ProjectId,usb_typec_serial_insulation_adum1412,7573625f-7479-4706-9563-5f7365726961,V1.0*%
%TF.SameCoordinates,Original*%
%TF.FileFunction,Legend,Bot*%
%TF.FilePolarity,Positive*%
%FSLAX46Y46*%
G04 Gerber Fmt 4.6, Leading zero omitted, Abs format (unit mm)*
G04 Created by KiCad (PCBNEW 9.0.6-9.0.6~ubuntu22.04.1) date 2026-02-12 12:00:21*
%MOMM*%
%LPD*%
G01*
G04 APERTURE LIST*
%ADD10C,0.100000*%
G04 APERTURE END LIST*
D10*
X147087651Y-90199122D02*
X147620985Y-90199122D01*
X147087651Y-89856265D02*
X147506699Y-89856265D01*
X147506699Y-89856265D02*
X147582890Y-89894360D01*
X147582890Y-89894360D02*
X147620985Y-89970550D01*
X147620985Y-89970550D02*
X147620985Y-90084836D01*
X147620985Y-90084836D02*
X147582890Y-90161027D01*
X147582890Y-90161027D02*
X147544794Y-90199122D01*
X147582890Y-90541979D02*
X147620985Y-90618170D01*
X147620985Y-90618170D02*
X147620985Y-90770551D01*
X147620985Y-90770551D02*
X147582890Y-90846741D01*
X147582890Y-90846741D02*
X147506699Y-90884837D01*
X147506699Y-90884837D02*
X147468604Y-90884837D01*
X147468604Y-90884837D02*
X147392413Y-90846741D01*
X147392413Y-90846741D02*
X147354318Y-90770551D01*
X147354318Y-90770551D02*
X147354318Y-90656265D01*
X147354318Y-90656265D02*
X147316223Y-90580075D01*
X147316223Y-90580075D02*
X147240032Y-90541979D01*
X147240032Y-90541979D02*
X147201937Y-90541979D01*
X147201937Y-90541979D02*
X147125747Y-90580075D01*
X147125747Y-90580075D02*
X147087651Y-90656265D01*
X147087651Y-90656265D02*
X147087651Y-90770551D01*
X147087651Y-90770551D02*
X147125747Y-90846741D01*
X147620985Y-91227694D02*
X146820985Y-91227694D01*
X147125747Y-91227694D02*
X147087651Y-91303884D01*
X147087651Y-91303884D02*
X147087651Y-91456265D01*
X147087651Y-91456265D02*
X147125747Y-91532456D01*
X147125747Y-91532456D02*
X147163842Y-91570551D01*
X147163842Y-91570551D02*
X147240032Y-91608646D01*
X147240032Y-91608646D02*
X147468604Y-91608646D01*
X147468604Y-91608646D02*
X147544794Y-91570551D01*
X147544794Y-91570551D02*
X147582890Y-91532456D01*
X147582890Y-91532456D02*
X147620985Y-91456265D01*
X147620985Y-91456265D02*
X147620985Y-91303884D01*
X147620985Y-91303884D02*
X147582890Y-91227694D01*
X147087651Y-92446742D02*
X147087651Y-92751504D01*
X146820985Y-92561028D02*
X147506699Y-92561028D01*
X147506699Y-92561028D02*
X147582890Y-92599123D01*
X147582890Y-92599123D02*
X147620985Y-92675313D01*
X147620985Y-92675313D02*
X147620985Y-92751504D01*
X147087651Y-92941980D02*
X147620985Y-93132456D01*
X147087651Y-93322933D02*
X147620985Y-93132456D01*
X147620985Y-93132456D02*
X147811461Y-93056266D01*
X147811461Y-93056266D02*
X147849556Y-93018171D01*
X147849556Y-93018171D02*
X147887651Y-92941980D01*
X147087651Y-93627695D02*
X147887651Y-93627695D01*
X147125747Y-93627695D02*
X147087651Y-93703885D01*
X147087651Y-93703885D02*
X147087651Y-93856266D01*
X147087651Y-93856266D02*
X147125747Y-93932457D01*
X147125747Y-93932457D02*
X147163842Y-93970552D01*
X147163842Y-93970552D02*
X147240032Y-94008647D01*
X147240032Y-94008647D02*
X147468604Y-94008647D01*
X147468604Y-94008647D02*
X147544794Y-93970552D01*
X147544794Y-93970552D02*
X147582890Y-93932457D01*
X147582890Y-93932457D02*
X147620985Y-93856266D01*
X147620985Y-93856266D02*
X147620985Y-93703885D01*
X147620985Y-93703885D02*
X147582890Y-93627695D01*
X147582890Y-94656267D02*
X147620985Y-94580076D01*
X147620985Y-94580076D02*
X147620985Y-94427695D01*
X147620985Y-94427695D02*
X147582890Y-94351505D01*
X147582890Y-94351505D02*
X147506699Y-94313409D01*
X147506699Y-94313409D02*
X147201937Y-94313409D01*
X147201937Y-94313409D02*
X147125747Y-94351505D01*
X147125747Y-94351505D02*
X147087651Y-94427695D01*
X147087651Y-94427695D02*
X147087651Y-94580076D01*
X147087651Y-94580076D02*
X147125747Y-94656267D01*
X147125747Y-94656267D02*
X147201937Y-94694362D01*
X147201937Y-94694362D02*
X147278128Y-94694362D01*
X147278128Y-94694362D02*
X147354318Y-94313409D01*
X147582890Y-95380076D02*
X147620985Y-95303885D01*
X147620985Y-95303885D02*
X147620985Y-95151504D01*
X147620985Y-95151504D02*
X147582890Y-95075314D01*
X147582890Y-95075314D02*
X147544794Y-95037219D01*
X147544794Y-95037219D02*
X147468604Y-94999123D01*
X147468604Y-94999123D02*
X147240032Y-94999123D01*
X147240032Y-94999123D02*
X147163842Y-95037219D01*
X147163842Y-95037219D02*
X147125747Y-95075314D01*
X147125747Y-95075314D02*
X147087651Y-95151504D01*
X147087651Y-95151504D02*
X147087651Y-95303885D01*
X147087651Y-95303885D02*
X147125747Y-95380076D01*
X147582890Y-96294361D02*
X147620985Y-96370552D01*
X147620985Y-96370552D02*
X147620985Y-96522933D01*
X147620985Y-96522933D02*
X147582890Y-96599123D01*
X147582890Y-96599123D02*
X147506699Y-96637219D01*
X147506699Y-96637219D02*
X147468604Y-96637219D01*
X147468604Y-96637219D02*
X147392413Y-96599123D01*
X147392413Y-96599123D02*
X147354318Y-96522933D01*
X147354318Y-96522933D02*
X147354318Y-96408647D01*
X147354318Y-96408647D02*
X147316223Y-96332457D01*
X147316223Y-96332457D02*
X147240032Y-96294361D01*
X147240032Y-96294361D02*
X147201937Y-96294361D01*
X147201937Y-96294361D02*
X147125747Y-96332457D01*
X147125747Y-96332457D02*
X147087651Y-96408647D01*
X147087651Y-96408647D02*
X147087651Y-96522933D01*
X147087651Y-96522933D02*
X147125747Y-96599123D01*
X147582890Y-97284838D02*
X147620985Y-97208647D01*
X147620985Y-97208647D02*
X147620985Y-97056266D01*
X147620985Y-97056266D02*
X147582890Y-96980076D01*
X147582890Y-96980076D02*
X147506699Y-96941980D01*
X147506699Y-96941980D02*
X147201937Y-96941980D01*
X147201937Y-96941980D02*
X147125747Y-96980076D01*
X147125747Y-96980076D02*
X147087651Y-97056266D01*
X147087651Y-97056266D02*
X147087651Y-97208647D01*
X147087651Y-97208647D02*
X147125747Y-97284838D01*
X147125747Y-97284838D02*
X147201937Y-97322933D01*
X147201937Y-97322933D02*
X147278128Y-97322933D01*
X147278128Y-97322933D02*
X147354318Y-96941980D01*
X147620985Y-97665790D02*
X147087651Y-97665790D01*
X147240032Y-97665790D02*
X147163842Y-97703885D01*
X147163842Y-97703885D02*
X147125747Y-97741980D01*
X147125747Y-97741980D02*
X147087651Y-97818171D01*
X147087651Y-97818171D02*
X147087651Y-97894361D01*
X147620985Y-98161028D02*
X147087651Y-98161028D01*
X146820985Y-98161028D02*
X146859080Y-98122932D01*
X146859080Y-98122932D02*
X146897175Y-98161028D01*
X146897175Y-98161028D02*
X146859080Y-98199123D01*
X146859080Y-98199123D02*
X146820985Y-98161028D01*
X146820985Y-98161028D02*
X146897175Y-98161028D01*
X147620985Y-98884837D02*
X147201937Y-98884837D01*
X147201937Y-98884837D02*
X147125747Y-98846742D01*
X147125747Y-98846742D02*
X147087651Y-98770551D01*
X147087651Y-98770551D02*
X147087651Y-98618170D01*
X147087651Y-98618170D02*
X147125747Y-98541980D01*
X147582890Y-98884837D02*
X147620985Y-98808646D01*
X147620985Y-98808646D02*
X147620985Y-98618170D01*
X147620985Y-98618170D02*
X147582890Y-98541980D01*
X147582890Y-98541980D02*
X147506699Y-98503884D01*
X147506699Y-98503884D02*
X147430509Y-98503884D01*
X147430509Y-98503884D02*
X147354318Y-98541980D01*
X147354318Y-98541980D02*
X147316223Y-98618170D01*
X147316223Y-98618170D02*
X147316223Y-98808646D01*
X147316223Y-98808646D02*
X147278128Y-98884837D01*
X147620985Y-99380075D02*
X147582890Y-99303885D01*
X147582890Y-99303885D02*
X147506699Y-99265790D01*
X147506699Y-99265790D02*
X146820985Y-99265790D01*
X147620985Y-100294362D02*
X147087651Y-100294362D01*
X146820985Y-100294362D02*
X146859080Y-100256266D01*
X146859080Y-100256266D02*
X146897175Y-100294362D01*
X146897175Y-100294362D02*
X146859080Y-100332457D01*
X146859080Y-100332457D02*
X146820985Y-100294362D01*
X146820985Y-100294362D02*
X146897175Y-100294362D01*
X147087651Y-100675314D02*
X147620985Y-100675314D01*
X147163842Y-100675314D02*
X147125747Y-100713409D01*
X147125747Y-100713409D02*
X147087651Y-100789599D01*
X147087651Y-100789599D02*
X147087651Y-100903885D01*
X147087651Y-100903885D02*
X147125747Y-100980076D01*
X147125747Y-100980076D02*
X147201937Y-101018171D01*
X147201937Y-101018171D02*
X147620985Y-101018171D01*
X147582890Y-101361028D02*
X147620985Y-101437219D01*
X147620985Y-101437219D02*
X147620985Y-101589600D01*
X147620985Y-101589600D02*
X147582890Y-101665790D01*
X147582890Y-101665790D02*
X147506699Y-101703886D01*
X147506699Y-101703886D02*
X147468604Y-101703886D01*
X147468604Y-101703886D02*
X147392413Y-101665790D01*
X147392413Y-101665790D02*
X147354318Y-101589600D01*
X147354318Y-101589600D02*
X147354318Y-101475314D01*
X147354318Y-101475314D02*
X147316223Y-101399124D01*
X147316223Y-101399124D02*
X147240032Y-101361028D01*
X147240032Y-101361028D02*
X147201937Y-101361028D01*
X147201937Y-101361028D02*
X147125747Y-101399124D01*
X147125747Y-101399124D02*
X147087651Y-101475314D01*
X147087651Y-101475314D02*
X147087651Y-101589600D01*
X147087651Y-101589600D02*
X147125747Y-101665790D01*
X147620985Y-102161028D02*
X147582890Y-102084838D01*
X147582890Y-102084838D02*
X147506699Y-102046743D01*
X147506699Y-102046743D02*
X146820985Y-102046743D01*
X147620985Y-102808648D02*
X147201937Y-102808648D01*
X147201937Y-102808648D02*
X147125747Y-102770553D01*
X147125747Y-102770553D02*
X147087651Y-102694362D01*
X147087651Y-102694362D02*
X147087651Y-102541981D01*
X147087651Y-102541981D02*
X147125747Y-102465791D01*
X147582890Y-102808648D02*
X147620985Y-102732457D01*
X147620985Y-102732457D02*
X147620985Y-102541981D01*
X147620985Y-102541981D02*
X147582890Y-102465791D01*
X147582890Y-102465791D02*
X147506699Y-102427695D01*
X147506699Y-102427695D02*
X147430509Y-102427695D01*
X147430509Y-102427695D02*
X147354318Y-102465791D01*
X147354318Y-102465791D02*
X147316223Y-102541981D01*
X147316223Y-102541981D02*
X147316223Y-102732457D01*
X147316223Y-102732457D02*
X147278128Y-102808648D01*
X147087651Y-103075315D02*
X147087651Y-103380077D01*
X146820985Y-103189601D02*
X147506699Y-103189601D01*
X147506699Y-103189601D02*
X147582890Y-103227696D01*
X147582890Y-103227696D02*
X147620985Y-103303886D01*
X147620985Y-103303886D02*
X147620985Y-103380077D01*
X147620985Y-103646744D02*
X147087651Y-103646744D01*
X146820985Y-103646744D02*
X146859080Y-103608648D01*
X146859080Y-103608648D02*
X146897175Y-103646744D01*
X146897175Y-103646744D02*
X146859080Y-103684839D01*
X146859080Y-103684839D02*
X146820985Y-103646744D01*
X146820985Y-103646744D02*
X146897175Y-103646744D01*
X147620985Y-104141981D02*
X147582890Y-104065791D01*
X147582890Y-104065791D02*
X147544794Y-104027696D01*
X147544794Y-104027696D02*
X147468604Y-103989600D01*
X147468604Y-103989600D02*
X147240032Y-103989600D01*
X147240032Y-103989600D02*
X147163842Y-104027696D01*
X147163842Y-104027696D02*
X147125747Y-104065791D01*
X147125747Y-104065791D02*
X147087651Y-104141981D01*
X147087651Y-104141981D02*
X147087651Y-104256267D01*
X147087651Y-104256267D02*
X147125747Y-104332458D01*
X147125747Y-104332458D02*
X147163842Y-104370553D01*
X147163842Y-104370553D02*
X147240032Y-104408648D01*
X147240032Y-104408648D02*
X147468604Y-104408648D01*
X147468604Y-104408648D02*
X147544794Y-104370553D01*
X147544794Y-104370553D02*
X147582890Y-104332458D01*
X147582890Y-104332458D02*
X147620985Y-104256267D01*
X147620985Y-104256267D02*
X147620985Y-104141981D01*
X147087651Y-104751506D02*
X147620985Y-104751506D01*
X147163842Y-104751506D02*
X147125747Y-104789601D01*
X147125747Y-104789601D02*
X147087651Y-104865791D01*
X147087651Y-104865791D02*
X147087651Y-104980077D01*
X147087651Y-104980077D02*
X147125747Y-105056268D01*
X147125747Y-105056268D02*
X147201937Y-105094363D01*
X147201937Y-105094363D02*
X147620985Y-105094363D01*
X148680368Y-89818169D02*
X148680368Y-90199122D01*
X148908940Y-89741979D02*
X148108940Y-90008646D01*
X148108940Y-90008646D02*
X148908940Y-90275312D01*
X148908940Y-90541979D02*
X148108940Y-90541979D01*
X148108940Y-90541979D02*
X148108940Y-90732455D01*
X148108940Y-90732455D02*
X148147035Y-90846741D01*
X148147035Y-90846741D02*
X148223225Y-90922931D01*
X148223225Y-90922931D02*
X148299416Y-90961026D01*
X148299416Y-90961026D02*
X148451797Y-90999122D01*
X148451797Y-90999122D02*
X148566083Y-90999122D01*
X148566083Y-90999122D02*
X148718464Y-90961026D01*
X148718464Y-90961026D02*
X148794654Y-90922931D01*
X148794654Y-90922931D02*
X148870845Y-90846741D01*
X148870845Y-90846741D02*
X148908940Y-90732455D01*
X148908940Y-90732455D02*
X148908940Y-90541979D01*
X148375606Y-91684836D02*
X148908940Y-91684836D01*
X148375606Y-91341979D02*
X148794654Y-91341979D01*
X148794654Y-91341979D02*
X148870845Y-91380074D01*
X148870845Y-91380074D02*
X148908940Y-91456264D01*
X148908940Y-91456264D02*
X148908940Y-91570550D01*
X148908940Y-91570550D02*
X148870845Y-91646741D01*
X148870845Y-91646741D02*
X148832749Y-91684836D01*
X148908940Y-92065789D02*
X148108940Y-92065789D01*
X148108940Y-92065789D02*
X148680368Y-92332455D01*
X148680368Y-92332455D02*
X148108940Y-92599122D01*
X148108940Y-92599122D02*
X148908940Y-92599122D01*
X148908940Y-93399122D02*
X148908940Y-92941979D01*
X148908940Y-93170551D02*
X148108940Y-93170551D01*
X148108940Y-93170551D02*
X148223225Y-93094360D01*
X148223225Y-93094360D02*
X148299416Y-93018170D01*
X148299416Y-93018170D02*
X148337511Y-92941979D01*
X148375606Y-94084837D02*
X148908940Y-94084837D01*
X148070845Y-93894361D02*
X148642273Y-93703884D01*
X148642273Y-93703884D02*
X148642273Y-94199123D01*
X148908940Y-94922932D02*
X148908940Y-94465789D01*
X148908940Y-94694361D02*
X148108940Y-94694361D01*
X148108940Y-94694361D02*
X148223225Y-94618170D01*
X148223225Y-94618170D02*
X148299416Y-94541980D01*
X148299416Y-94541980D02*
X148337511Y-94465789D01*
X148185130Y-95227694D02*
X148147035Y-95265790D01*
X148147035Y-95265790D02*
X148108940Y-95341980D01*
X148108940Y-95341980D02*
X148108940Y-95532456D01*
X148108940Y-95532456D02*
X148147035Y-95608647D01*
X148147035Y-95608647D02*
X148185130Y-95646742D01*
X148185130Y-95646742D02*
X148261321Y-95684837D01*
X148261321Y-95684837D02*
X148337511Y-95684837D01*
X148337511Y-95684837D02*
X148451797Y-95646742D01*
X148451797Y-95646742D02*
X148908940Y-95189599D01*
X148908940Y-95189599D02*
X148908940Y-95684837D01*
X149396895Y-89741979D02*
X150196895Y-90008646D01*
X150196895Y-90008646D02*
X149396895Y-90275312D01*
X149473085Y-90503883D02*
X149434990Y-90541979D01*
X149434990Y-90541979D02*
X149396895Y-90618169D01*
X149396895Y-90618169D02*
X149396895Y-90808645D01*
X149396895Y-90808645D02*
X149434990Y-90884836D01*
X149434990Y-90884836D02*
X149473085Y-90922931D01*
X149473085Y-90922931D02*
X149549276Y-90961026D01*
X149549276Y-90961026D02*
X149625466Y-90961026D01*
X149625466Y-90961026D02*
X149739752Y-90922931D01*
X149739752Y-90922931D02*
X150196895Y-90465788D01*
X150196895Y-90465788D02*
X150196895Y-90961026D01*
X150120704Y-91303884D02*
X150158800Y-91341979D01*
X150158800Y-91341979D02*
X150196895Y-91303884D01*
X150196895Y-91303884D02*
X150158800Y-91265788D01*
X150158800Y-91265788D02*
X150120704Y-91303884D01*
X150120704Y-91303884D02*
X150196895Y-91303884D01*
X149396895Y-91837217D02*
X149396895Y-91913407D01*
X149396895Y-91913407D02*
X149434990Y-91989598D01*
X149434990Y-91989598D02*
X149473085Y-92027693D01*
X149473085Y-92027693D02*
X149549276Y-92065788D01*
X149549276Y-92065788D02*
X149701657Y-92103883D01*
X149701657Y-92103883D02*
X149892133Y-92103883D01*
X149892133Y-92103883D02*
X150044514Y-92065788D01*
X150044514Y-92065788D02*
X150120704Y-92027693D01*
X150120704Y-92027693D02*
X150158800Y-91989598D01*
X150158800Y-91989598D02*
X150196895Y-91913407D01*
X150196895Y-91913407D02*
X150196895Y-91837217D01*
X150196895Y-91837217D02*
X150158800Y-91761026D01*
X150158800Y-91761026D02*
X150120704Y-91722931D01*
X150120704Y-91722931D02*
X150044514Y-91684836D01*
X150044514Y-91684836D02*
X149892133Y-91646740D01*
X149892133Y-91646740D02*
X149701657Y-91646740D01*
X149701657Y-91646740D02*
X149549276Y-91684836D01*
X149549276Y-91684836D02*
X149473085Y-91722931D01*
X149473085Y-91722931D02*
X149434990Y-91761026D01*
X149434990Y-91761026D02*
X149396895Y-91837217D01*
X149473085Y-93018169D02*
X149434990Y-93056265D01*
X149434990Y-93056265D02*
X149396895Y-93132455D01*
X149396895Y-93132455D02*
X149396895Y-93322931D01*
X149396895Y-93322931D02*
X149434990Y-93399122D01*
X149434990Y-93399122D02*
X149473085Y-93437217D01*
X149473085Y-93437217D02*
X149549276Y-93475312D01*
X149549276Y-93475312D02*
X149625466Y-93475312D01*
X149625466Y-93475312D02*
X149739752Y-93437217D01*
X149739752Y-93437217D02*
X150196895Y-92980074D01*
X150196895Y-92980074D02*
X150196895Y-93475312D01*
X149396895Y-94161027D02*
X149396895Y-94008646D01*
X149396895Y-94008646D02*
X149434990Y-93932455D01*
X149434990Y-93932455D02*
X149473085Y-93894360D01*
X149473085Y-93894360D02*
X149587371Y-93818170D01*
X149587371Y-93818170D02*
X149739752Y-93780074D01*
X149739752Y-93780074D02*
X150044514Y-93780074D01*
X150044514Y-93780074D02*
X150120704Y-93818170D01*
X150120704Y-93818170D02*
X150158800Y-93856265D01*
X150158800Y-93856265D02*
X150196895Y-93932455D01*
X150196895Y-93932455D02*
X150196895Y-94084836D01*
X150196895Y-94084836D02*
X150158800Y-94161027D01*
X150158800Y-94161027D02*
X150120704Y-94199122D01*
X150120704Y-94199122D02*
X150044514Y-94237217D01*
X150044514Y-94237217D02*
X149854038Y-94237217D01*
X149854038Y-94237217D02*
X149777847Y-94199122D01*
X149777847Y-94199122D02*
X149739752Y-94161027D01*
X149739752Y-94161027D02*
X149701657Y-94084836D01*
X149701657Y-94084836D02*
X149701657Y-93932455D01*
X149701657Y-93932455D02*
X149739752Y-93856265D01*
X149739752Y-93856265D02*
X149777847Y-93818170D01*
X149777847Y-93818170D02*
X149854038Y-93780074D01*
X149396895Y-94732456D02*
X149396895Y-94808646D01*
X149396895Y-94808646D02*
X149434990Y-94884837D01*
X149434990Y-94884837D02*
X149473085Y-94922932D01*
X149473085Y-94922932D02*
X149549276Y-94961027D01*
X149549276Y-94961027D02*
X149701657Y-94999122D01*
X149701657Y-94999122D02*
X149892133Y-94999122D01*
X149892133Y-94999122D02*
X150044514Y-94961027D01*
X150044514Y-94961027D02*
X150120704Y-94922932D01*
X150120704Y-94922932D02*
X150158800Y-94884837D01*
X150158800Y-94884837D02*
X150196895Y-94808646D01*
X150196895Y-94808646D02*
X150196895Y-94732456D01*
X150196895Y-94732456D02*
X150158800Y-94656265D01*
X150158800Y-94656265D02*
X150120704Y-94618170D01*
X150120704Y-94618170D02*
X150044514Y-94580075D01*
X150044514Y-94580075D02*
X149892133Y-94541979D01*
X149892133Y-94541979D02*
X149701657Y-94541979D01*
X149701657Y-94541979D02*
X149549276Y-94580075D01*
X149549276Y-94580075D02*
X149473085Y-94618170D01*
X149473085Y-94618170D02*
X149434990Y-94656265D01*
X149434990Y-94656265D02*
X149396895Y-94732456D01*
X149473085Y-95303884D02*
X149434990Y-95341980D01*
X149434990Y-95341980D02*
X149396895Y-95418170D01*
X149396895Y-95418170D02*
X149396895Y-95608646D01*
X149396895Y-95608646D02*
X149434990Y-95684837D01*
X149434990Y-95684837D02*
X149473085Y-95722932D01*
X149473085Y-95722932D02*
X149549276Y-95761027D01*
X149549276Y-95761027D02*
X149625466Y-95761027D01*
X149625466Y-95761027D02*
X149739752Y-95722932D01*
X149739752Y-95722932D02*
X150196895Y-95265789D01*
X150196895Y-95265789D02*
X150196895Y-95761027D01*
X150196895Y-96522932D02*
X150196895Y-96065789D01*
X150196895Y-96294361D02*
X149396895Y-96294361D01*
X149396895Y-96294361D02*
X149511180Y-96218170D01*
X149511180Y-96218170D02*
X149587371Y-96141980D01*
X149587371Y-96141980D02*
X149625466Y-96065789D01*
X149473085Y-96827694D02*
X149434990Y-96865790D01*
X149434990Y-96865790D02*
X149396895Y-96941980D01*
X149396895Y-96941980D02*
X149396895Y-97132456D01*
X149396895Y-97132456D02*
X149434990Y-97208647D01*
X149434990Y-97208647D02*
X149473085Y-97246742D01*
X149473085Y-97246742D02*
X149549276Y-97284837D01*
X149549276Y-97284837D02*
X149625466Y-97284837D01*
X149625466Y-97284837D02*
X149739752Y-97246742D01*
X149739752Y-97246742D02*
X150196895Y-96789599D01*
X150196895Y-96789599D02*
X150196895Y-97284837D01*
X149663561Y-98122933D02*
X149663561Y-98427695D01*
X149396895Y-98237219D02*
X150082609Y-98237219D01*
X150082609Y-98237219D02*
X150158800Y-98275314D01*
X150158800Y-98275314D02*
X150196895Y-98351504D01*
X150196895Y-98351504D02*
X150196895Y-98427695D01*
X150196895Y-99037219D02*
X149777847Y-99037219D01*
X149777847Y-99037219D02*
X149701657Y-98999124D01*
X149701657Y-98999124D02*
X149663561Y-98922933D01*
X149663561Y-98922933D02*
X149663561Y-98770552D01*
X149663561Y-98770552D02*
X149701657Y-98694362D01*
X150158800Y-99037219D02*
X150196895Y-98961028D01*
X150196895Y-98961028D02*
X150196895Y-98770552D01*
X150196895Y-98770552D02*
X150158800Y-98694362D01*
X150158800Y-98694362D02*
X150082609Y-98656266D01*
X150082609Y-98656266D02*
X150006419Y-98656266D01*
X150006419Y-98656266D02*
X149930228Y-98694362D01*
X149930228Y-98694362D02*
X149892133Y-98770552D01*
X149892133Y-98770552D02*
X149892133Y-98961028D01*
X149892133Y-98961028D02*
X149854038Y-99037219D01*
X150196895Y-99418172D02*
X149396895Y-99418172D01*
X149892133Y-99494362D02*
X150196895Y-99722934D01*
X149663561Y-99722934D02*
X149968323Y-99418172D01*
X149663561Y-100408648D02*
X150196895Y-100408648D01*
X149663561Y-100065791D02*
X150082609Y-100065791D01*
X150082609Y-100065791D02*
X150158800Y-100103886D01*
X150158800Y-100103886D02*
X150196895Y-100180076D01*
X150196895Y-100180076D02*
X150196895Y-100294362D01*
X150196895Y-100294362D02*
X150158800Y-100370553D01*
X150158800Y-100370553D02*
X150120704Y-100408648D01*
X150196895Y-100789601D02*
X149663561Y-100789601D01*
X149815942Y-100789601D02*
X149739752Y-100827696D01*
X149739752Y-100827696D02*
X149701657Y-100865791D01*
X149701657Y-100865791D02*
X149663561Y-100941982D01*
X149663561Y-100941982D02*
X149663561Y-101018172D01*
X150196895Y-101208648D02*
X149663561Y-101627696D01*
X149663561Y-101208648D02*
X150196895Y-101627696D01*
M02*
