%TF.GenerationSoftware,KiCad,Pcbnew,9.0.6-9.0.6~ubuntu22.04.1*%
%TF.CreationDate,2026-02-12T12:00:21+09:00*%
%TF.ProjectId,usb_typec_serial_insulation_adum1412,7573625f-7479-4706-9563-5f7365726961,V1.0*%
%TF.SameCoordinates,Original*%
%TF.FileFunction,Copper,L2,Bot*%
%TF.FilePolarity,Positive*%
%FSLAX46Y46*%
G04 Gerber Fmt 4.6, Leading zero omitted, Abs format (unit mm)*
G04 Created by KiCad (PCBNEW 9.0.6-9.0.6~ubuntu22.04.1) date 2026-02-12 12:00:21*
%MOMM*%
%LPD*%
G01*
G04 APERTURE LIST*
%TA.AperFunction,ComponentPad*%
%ADD10R,1.700000X1.700000*%
%TD*%
%TA.AperFunction,ComponentPad*%
%ADD11C,1.700000*%
%TD*%
%TA.AperFunction,ViaPad*%
%ADD12C,0.600000*%
%TD*%
%TA.AperFunction,Conductor*%
%ADD13C,0.600000*%
%TD*%
G04 APERTURE END LIST*
D10*
%TO.P,J2,1,Pin_1*%
%TO.N,Net-(J2-Pin_1)*%
X130500000Y-90920000D03*
D11*
%TO.P,J2,2,Pin_2*%
%TO.N,Net-(J2-Pin_2)*%
X130500000Y-93460000D03*
%TO.P,J2,3,Pin_3*%
%TO.N,Net-(J2-Pin_3)*%
X130500000Y-96000000D03*
%TO.P,J2,4,Pin_4*%
%TO.N,VCC2*%
X130500000Y-98540000D03*
%TO.P,J2,5,Pin_5*%
%TO.N,Net-(J2-Pin_5)*%
X130500000Y-101080000D03*
%TO.P,J2,6,Pin_6*%
%TO.N,GND2*%
X130500000Y-103620000D03*
%TD*%
D10*
%TO.P,J1,1,Pin_1*%
%TO.N,Net-(J1-Pin_1)*%
X152500000Y-90920000D03*
D11*
%TO.P,J1,2,Pin_2*%
%TO.N,Net-(J1-Pin_2)*%
X152500000Y-93460000D03*
%TO.P,J1,3,Pin_3*%
%TO.N,Net-(J1-Pin_3)*%
X152500000Y-96000000D03*
%TO.P,J1,4,Pin_4*%
%TO.N,VCC1*%
X152500000Y-98540000D03*
%TO.P,J1,5,Pin_5*%
%TO.N,Net-(J1-Pin_5)*%
X152500000Y-101080000D03*
%TO.P,J1,6,Pin_6*%
%TO.N,GND1*%
X152500000Y-103620000D03*
%TD*%
D12*
%TO.N,GND1*%
X146200000Y-91600000D03*
%TO.N,GND2*%
X136800000Y-91600000D03*
%TO.N,Net-(J2-Pin_2)*%
X135200000Y-98900000D03*
X133100000Y-95300000D03*
%TO.N,Net-(J1-Pin_2)*%
X147800000Y-98900000D03*
X150100000Y-95300000D03*
%TO.N,VCC1*%
X147800000Y-93800000D03*
%TO.N,VCC2*%
X135200000Y-93900000D03*
X135100000Y-101400000D03*
%TO.N,VCC1*%
X147800000Y-101400000D03*
%TD*%
D13*
%TO.N,GND1*%
X146200000Y-100932785D02*
X146200000Y-91600000D01*
X148887215Y-103620000D02*
X146200000Y-100932785D01*
X152500000Y-103620000D02*
X148887215Y-103620000D01*
%TO.N,GND2*%
X136800000Y-100832785D02*
X136800000Y-91600000D01*
X134012785Y-103620000D02*
X136800000Y-100832785D01*
X130500000Y-103620000D02*
X134012785Y-103620000D01*
%TO.N,Net-(J2-Pin_2)*%
X133100000Y-96800000D02*
X135200000Y-98900000D01*
X133100000Y-95300000D02*
X133100000Y-96800000D01*
%TO.N,Net-(J1-Pin_2)*%
X150100000Y-96600000D02*
X147800000Y-98900000D01*
X150100000Y-95300000D02*
X150100000Y-96600000D01*
%TO.N,VCC1*%
X147900000Y-93900000D02*
X147800000Y-93800000D01*
X151000000Y-93900000D02*
X147900000Y-93900000D01*
X152500000Y-98540000D02*
X151000000Y-97040000D01*
X151000000Y-97040000D02*
X151000000Y-93900000D01*
%TO.N,VCC2*%
X132200000Y-93900000D02*
X135200000Y-93900000D01*
X130500000Y-98540000D02*
X132200000Y-96840000D01*
X132200000Y-96840000D02*
X132200000Y-93900000D01*
X135100000Y-101400000D02*
X133360000Y-101400000D01*
X133360000Y-101400000D02*
X130500000Y-98540000D01*
%TO.N,VCC1*%
X147800000Y-101400000D02*
X149640000Y-101400000D01*
X149640000Y-101400000D02*
X152500000Y-98540000D01*
%TD*%
%TA.AperFunction,Conductor*%
%TO.N,GND2*%
G36*
X129272085Y-89520185D02*
G01*
X129317840Y-89572989D01*
X129327784Y-89642147D01*
X129298759Y-89705703D01*
X129292727Y-89712181D01*
X129292452Y-89712455D01*
X129206206Y-89827664D01*
X129206202Y-89827671D01*
X129155908Y-89962517D01*
X129149501Y-90022116D01*
X129149501Y-90022123D01*
X129149500Y-90022135D01*
X129149500Y-91817870D01*
X129149501Y-91817876D01*
X129155908Y-91877483D01*
X129206202Y-92012328D01*
X129206206Y-92012335D01*
X129292452Y-92127544D01*
X129292455Y-92127547D01*
X129407664Y-92213793D01*
X129407671Y-92213797D01*
X129539082Y-92262810D01*
X129595016Y-92304681D01*
X129619433Y-92370145D01*
X129604582Y-92438418D01*
X129583431Y-92466673D01*
X129469889Y-92580215D01*
X129344951Y-92752179D01*
X129248444Y-92941585D01*
X129182753Y-93143760D01*
X129161458Y-93278211D01*
X129149500Y-93353713D01*
X129149500Y-93566287D01*
X129182754Y-93776243D01*
X129197346Y-93821153D01*
X129248444Y-93978414D01*
X129344951Y-94167820D01*
X129469890Y-94339786D01*
X129620213Y-94490109D01*
X129792182Y-94615050D01*
X129800946Y-94619516D01*
X129851742Y-94667491D01*
X129868536Y-94735312D01*
X129845998Y-94801447D01*
X129800946Y-94840484D01*
X129792182Y-94844949D01*
X129620213Y-94969890D01*
X129469890Y-95120213D01*
X129344951Y-95292179D01*
X129248444Y-95481585D01*
X129182753Y-95683760D01*
X129149500Y-95893713D01*
X129149500Y-96106287D01*
X129182754Y-96316243D01*
X129232200Y-96468422D01*
X129248444Y-96518414D01*
X129344951Y-96707820D01*
X129469890Y-96879786D01*
X129620213Y-97030109D01*
X129792182Y-97155050D01*
X129800946Y-97159516D01*
X129851742Y-97207491D01*
X129868536Y-97275312D01*
X129845998Y-97341447D01*
X129800946Y-97380484D01*
X129792182Y-97384949D01*
X129620213Y-97509890D01*
X129469890Y-97660213D01*
X129344951Y-97832179D01*
X129248444Y-98021585D01*
X129182753Y-98223760D01*
X129149500Y-98433713D01*
X129149500Y-98646286D01*
X129177196Y-98821155D01*
X129182754Y-98856243D01*
X129222590Y-98978846D01*
X129248444Y-99058414D01*
X129344951Y-99247820D01*
X129469890Y-99419786D01*
X129620213Y-99570109D01*
X129792182Y-99695050D01*
X129800946Y-99699516D01*
X129851742Y-99747491D01*
X129868536Y-99815312D01*
X129845998Y-99881447D01*
X129800946Y-99920484D01*
X129792182Y-99924949D01*
X129620213Y-100049890D01*
X129469890Y-100200213D01*
X129344951Y-100372179D01*
X129248444Y-100561585D01*
X129182753Y-100763760D01*
X129149500Y-100973713D01*
X129149500Y-101186286D01*
X129182753Y-101396239D01*
X129182753Y-101396241D01*
X129182754Y-101396243D01*
X129209593Y-101478846D01*
X129248444Y-101598414D01*
X129344951Y-101787820D01*
X129469890Y-101959786D01*
X129620213Y-102110109D01*
X129792179Y-102235048D01*
X129792181Y-102235049D01*
X129792184Y-102235051D01*
X129801493Y-102239794D01*
X129852290Y-102287766D01*
X129869087Y-102355587D01*
X129846552Y-102421722D01*
X129801505Y-102460760D01*
X129792446Y-102465376D01*
X129792440Y-102465380D01*
X129738282Y-102504727D01*
X129738282Y-102504728D01*
X130370591Y-103137037D01*
X130307007Y-103154075D01*
X130192993Y-103219901D01*
X130099901Y-103312993D01*
X130034075Y-103427007D01*
X130017037Y-103490591D01*
X129384728Y-102858282D01*
X129384727Y-102858282D01*
X129345380Y-102912439D01*
X129248904Y-103101782D01*
X129183242Y-103303869D01*
X129183242Y-103303872D01*
X129150000Y-103513753D01*
X129150000Y-103726246D01*
X129183242Y-103936127D01*
X129183242Y-103936130D01*
X129248904Y-104138217D01*
X129345375Y-104327550D01*
X129384728Y-104381716D01*
X130017037Y-103749408D01*
X130034075Y-103812993D01*
X130099901Y-103927007D01*
X130192993Y-104020099D01*
X130307007Y-104085925D01*
X130370590Y-104102962D01*
X129738282Y-104735269D01*
X129738282Y-104735270D01*
X129792449Y-104774624D01*
X129981782Y-104871095D01*
X130183870Y-104936757D01*
X130393754Y-104970000D01*
X130606246Y-104970000D01*
X130816127Y-104936757D01*
X130816130Y-104936757D01*
X131018217Y-104871095D01*
X131207554Y-104774622D01*
X131261716Y-104735270D01*
X131261717Y-104735270D01*
X130629408Y-104102962D01*
X130692993Y-104085925D01*
X130807007Y-104020099D01*
X130900099Y-103927007D01*
X130965925Y-103812993D01*
X130982962Y-103749408D01*
X131615270Y-104381717D01*
X131615270Y-104381716D01*
X131654622Y-104327554D01*
X131751095Y-104138217D01*
X131816757Y-103936130D01*
X131816757Y-103936127D01*
X131850000Y-103726246D01*
X131850000Y-103513753D01*
X131816757Y-103303872D01*
X131816757Y-103303869D01*
X131751095Y-103101782D01*
X131654624Y-102912449D01*
X131615270Y-102858282D01*
X131615269Y-102858282D01*
X130982962Y-103490590D01*
X130965925Y-103427007D01*
X130900099Y-103312993D01*
X130807007Y-103219901D01*
X130692993Y-103154075D01*
X130629409Y-103137037D01*
X131261716Y-102504728D01*
X131207547Y-102465373D01*
X131207547Y-102465372D01*
X131198500Y-102460763D01*
X131147706Y-102412788D01*
X131130912Y-102344966D01*
X131153451Y-102278832D01*
X131198508Y-102239793D01*
X131207816Y-102235051D01*
X131297716Y-102169735D01*
X131379786Y-102110109D01*
X131379788Y-102110106D01*
X131379792Y-102110104D01*
X131530104Y-101959792D01*
X131530106Y-101959788D01*
X131530109Y-101959786D01*
X131655048Y-101787820D01*
X131655047Y-101787820D01*
X131655051Y-101787816D01*
X131751557Y-101598412D01*
X131817246Y-101396243D01*
X131834813Y-101285326D01*
X131864742Y-101222194D01*
X131924053Y-101185262D01*
X131993916Y-101186260D01*
X132044967Y-101217045D01*
X132849707Y-102021786D01*
X132849711Y-102021789D01*
X132980814Y-102109390D01*
X132980827Y-102109397D01*
X133126498Y-102169735D01*
X133126503Y-102169737D01*
X133281153Y-102200499D01*
X133281156Y-102200500D01*
X133281158Y-102200500D01*
X135178844Y-102200500D01*
X135178845Y-102200499D01*
X135333497Y-102169737D01*
X135479179Y-102109394D01*
X135610289Y-102021789D01*
X135721789Y-101910289D01*
X135809394Y-101779179D01*
X135869737Y-101633497D01*
X135900500Y-101478842D01*
X135900500Y-101321158D01*
X135900500Y-101321155D01*
X135900499Y-101321153D01*
X135893373Y-101285328D01*
X135869737Y-101166503D01*
X135810122Y-101022578D01*
X135809397Y-101020827D01*
X135809390Y-101020814D01*
X135721789Y-100889711D01*
X135721786Y-100889707D01*
X135610292Y-100778213D01*
X135610288Y-100778210D01*
X135479185Y-100690609D01*
X135479172Y-100690602D01*
X135333501Y-100630264D01*
X135333489Y-100630261D01*
X135178845Y-100599500D01*
X135178842Y-100599500D01*
X133742940Y-100599500D01*
X133675901Y-100579815D01*
X133655259Y-100563181D01*
X131879843Y-98787765D01*
X131846358Y-98726442D01*
X131845051Y-98680687D01*
X131850500Y-98646287D01*
X131850500Y-98433713D01*
X131845051Y-98399312D01*
X131854005Y-98330020D01*
X131879840Y-98292236D01*
X132582322Y-97589755D01*
X132643641Y-97556273D01*
X132713333Y-97561257D01*
X132757680Y-97589758D01*
X134578211Y-99410289D01*
X134689711Y-99521789D01*
X134820821Y-99609394D01*
X134923833Y-99652062D01*
X134966502Y-99669737D01*
X135093758Y-99695050D01*
X135121152Y-99700499D01*
X135121155Y-99700500D01*
X135121157Y-99700500D01*
X135278844Y-99700500D01*
X135278845Y-99700499D01*
X135433497Y-99669737D01*
X135579179Y-99609394D01*
X135710289Y-99521789D01*
X135821789Y-99410289D01*
X135909394Y-99279179D01*
X135969737Y-99133497D01*
X136000500Y-98978842D01*
X136000500Y-98821158D01*
X136000500Y-98821155D01*
X136000499Y-98821153D01*
X135969738Y-98666509D01*
X135969737Y-98666503D01*
X135961363Y-98646287D01*
X135938824Y-98591873D01*
X135909394Y-98520821D01*
X135821789Y-98389711D01*
X135710289Y-98278211D01*
X133936819Y-96504741D01*
X133903334Y-96443418D01*
X133900500Y-96417060D01*
X133900500Y-95221155D01*
X133900499Y-95221153D01*
X133869737Y-95066503D01*
X133837885Y-94989604D01*
X133809397Y-94920827D01*
X133809389Y-94920812D01*
X133791067Y-94893392D01*
X133770188Y-94826715D01*
X133788672Y-94759334D01*
X133840650Y-94712644D01*
X133894168Y-94700500D01*
X135278844Y-94700500D01*
X135278845Y-94700499D01*
X135433497Y-94669737D01*
X135579179Y-94609394D01*
X135710289Y-94521789D01*
X135821789Y-94410289D01*
X135909394Y-94279179D01*
X135969737Y-94133497D01*
X136000500Y-93978842D01*
X136000500Y-93821158D01*
X136000500Y-93821155D01*
X136000499Y-93821153D01*
X135969738Y-93666510D01*
X135969737Y-93666503D01*
X135969735Y-93666498D01*
X135909397Y-93520827D01*
X135909390Y-93520814D01*
X135821789Y-93389711D01*
X135821786Y-93389707D01*
X135710292Y-93278213D01*
X135710288Y-93278210D01*
X135579185Y-93190609D01*
X135579172Y-93190602D01*
X135433501Y-93130264D01*
X135433489Y-93130261D01*
X135278845Y-93099500D01*
X135278842Y-93099500D01*
X132278842Y-93099500D01*
X132121158Y-93099500D01*
X132121155Y-93099500D01*
X131966511Y-93130260D01*
X131966502Y-93130263D01*
X131955013Y-93135022D01*
X131885543Y-93142488D01*
X131823065Y-93111210D01*
X131789634Y-93058777D01*
X131751557Y-92941588D01*
X131655051Y-92752184D01*
X131655049Y-92752181D01*
X131655048Y-92752179D01*
X131530109Y-92580213D01*
X131416569Y-92466673D01*
X131383084Y-92405350D01*
X131388068Y-92335658D01*
X131429940Y-92279725D01*
X131460915Y-92262810D01*
X131592331Y-92213796D01*
X131707546Y-92127546D01*
X131793796Y-92012331D01*
X131844091Y-91877483D01*
X131850500Y-91817873D01*
X131850499Y-90022128D01*
X131844091Y-89962517D01*
X131793796Y-89827669D01*
X131793795Y-89827668D01*
X131793793Y-89827664D01*
X131707547Y-89712455D01*
X131707273Y-89712181D01*
X131707087Y-89711840D01*
X131702232Y-89705355D01*
X131703164Y-89704656D01*
X131673788Y-89650858D01*
X131678772Y-89581166D01*
X131720644Y-89525233D01*
X131786108Y-89500816D01*
X131794954Y-89500500D01*
X138179671Y-89500500D01*
X138246710Y-89520185D01*
X138292465Y-89572989D01*
X138303669Y-89623771D01*
X138396322Y-105374771D01*
X138377032Y-105441925D01*
X138324498Y-105487989D01*
X138272324Y-105499500D01*
X128624500Y-105499500D01*
X128557461Y-105479815D01*
X128511706Y-105427011D01*
X128500500Y-105375500D01*
X128500500Y-89624500D01*
X128520185Y-89557461D01*
X128572989Y-89511706D01*
X128624500Y-89500500D01*
X129205046Y-89500500D01*
X129272085Y-89520185D01*
G37*
%TD.AperFunction*%
%TD*%
%TA.AperFunction,Conductor*%
%TO.N,GND1*%
G36*
X151272085Y-89520185D02*
G01*
X151317840Y-89572989D01*
X151327784Y-89642147D01*
X151298759Y-89705703D01*
X151292727Y-89712181D01*
X151292452Y-89712455D01*
X151206206Y-89827664D01*
X151206202Y-89827671D01*
X151155908Y-89962517D01*
X151149501Y-90022116D01*
X151149501Y-90022123D01*
X151149500Y-90022135D01*
X151149500Y-91817870D01*
X151149501Y-91817876D01*
X151155908Y-91877483D01*
X151206202Y-92012328D01*
X151206206Y-92012335D01*
X151292452Y-92127544D01*
X151292455Y-92127547D01*
X151407664Y-92213793D01*
X151407671Y-92213797D01*
X151539082Y-92262810D01*
X151595016Y-92304681D01*
X151619433Y-92370145D01*
X151604582Y-92438418D01*
X151583431Y-92466673D01*
X151469889Y-92580215D01*
X151344951Y-92752179D01*
X151248444Y-92941583D01*
X151224003Y-93016806D01*
X151184565Y-93074481D01*
X151120206Y-93101679D01*
X151081881Y-93100104D01*
X151078845Y-93099500D01*
X151078842Y-93099500D01*
X148225316Y-93099500D01*
X148177864Y-93090061D01*
X148033501Y-93030264D01*
X148033489Y-93030261D01*
X147878845Y-92999500D01*
X147878842Y-92999500D01*
X147721158Y-92999500D01*
X147721155Y-92999500D01*
X147566510Y-93030261D01*
X147566498Y-93030264D01*
X147420827Y-93090602D01*
X147420814Y-93090609D01*
X147289711Y-93178210D01*
X147289707Y-93178213D01*
X147178213Y-93289707D01*
X147178210Y-93289711D01*
X147090609Y-93420814D01*
X147090602Y-93420827D01*
X147030264Y-93566498D01*
X147030261Y-93566510D01*
X146999500Y-93721153D01*
X146999500Y-93878846D01*
X147030261Y-94033489D01*
X147030264Y-94033501D01*
X147090602Y-94179172D01*
X147090609Y-94179185D01*
X147178209Y-94310287D01*
X147178210Y-94310288D01*
X147178211Y-94310289D01*
X147278211Y-94410289D01*
X147358026Y-94490104D01*
X147389712Y-94521790D01*
X147520814Y-94609390D01*
X147520827Y-94609397D01*
X147617645Y-94649500D01*
X147617646Y-94649500D01*
X147666502Y-94669737D01*
X147821152Y-94700499D01*
X147821155Y-94700500D01*
X147821157Y-94700500D01*
X147821158Y-94700500D01*
X149305832Y-94700500D01*
X149372871Y-94720185D01*
X149418626Y-94772989D01*
X149428570Y-94842147D01*
X149408933Y-94893392D01*
X149390610Y-94920812D01*
X149390602Y-94920827D01*
X149330264Y-95066498D01*
X149330261Y-95066510D01*
X149299500Y-95221153D01*
X149299500Y-96217059D01*
X149279815Y-96284098D01*
X149263181Y-96304740D01*
X147178213Y-98389707D01*
X147178210Y-98389711D01*
X147090609Y-98520814D01*
X147090602Y-98520827D01*
X147030264Y-98666498D01*
X147030261Y-98666510D01*
X146999500Y-98821153D01*
X146999500Y-98978846D01*
X147030261Y-99133489D01*
X147030264Y-99133501D01*
X147090602Y-99279172D01*
X147090609Y-99279185D01*
X147178210Y-99410288D01*
X147178213Y-99410292D01*
X147289707Y-99521786D01*
X147289711Y-99521789D01*
X147420814Y-99609390D01*
X147420827Y-99609397D01*
X147566498Y-99669735D01*
X147566503Y-99669737D01*
X147716201Y-99699514D01*
X147721153Y-99700499D01*
X147721156Y-99700500D01*
X147721158Y-99700500D01*
X147878844Y-99700500D01*
X147878845Y-99700499D01*
X148033497Y-99669737D01*
X148179179Y-99609394D01*
X148310289Y-99521789D01*
X150242318Y-97589758D01*
X150303641Y-97556274D01*
X150373332Y-97561258D01*
X150417680Y-97589759D01*
X151120155Y-98292233D01*
X151153640Y-98353556D01*
X151154948Y-98399310D01*
X151149500Y-98433711D01*
X151149500Y-98646287D01*
X151149499Y-98646287D01*
X151154948Y-98680686D01*
X151145993Y-98749979D01*
X151120156Y-98787764D01*
X149344741Y-100563181D01*
X149283418Y-100596666D01*
X149257060Y-100599500D01*
X147721155Y-100599500D01*
X147566510Y-100630261D01*
X147566498Y-100630264D01*
X147420827Y-100690602D01*
X147420814Y-100690609D01*
X147289711Y-100778210D01*
X147289707Y-100778213D01*
X147178213Y-100889707D01*
X147178210Y-100889711D01*
X147090609Y-101020814D01*
X147090602Y-101020827D01*
X147030264Y-101166498D01*
X147030261Y-101166510D01*
X146999500Y-101321153D01*
X146999500Y-101478846D01*
X147030261Y-101633489D01*
X147030264Y-101633501D01*
X147090602Y-101779172D01*
X147090609Y-101779185D01*
X147178210Y-101910288D01*
X147178213Y-101910292D01*
X147289707Y-102021786D01*
X147289711Y-102021789D01*
X147420814Y-102109390D01*
X147420827Y-102109397D01*
X147566498Y-102169735D01*
X147566503Y-102169737D01*
X147721153Y-102200499D01*
X147721156Y-102200500D01*
X147721158Y-102200500D01*
X149718844Y-102200500D01*
X149718845Y-102200499D01*
X149873497Y-102169737D01*
X150019179Y-102109394D01*
X150150289Y-102021789D01*
X150955034Y-101217043D01*
X151016355Y-101183560D01*
X151086046Y-101188544D01*
X151141980Y-101230415D01*
X151165186Y-101285327D01*
X151182753Y-101396240D01*
X151182754Y-101396243D01*
X151209593Y-101478846D01*
X151248444Y-101598414D01*
X151344951Y-101787820D01*
X151469890Y-101959786D01*
X151620213Y-102110109D01*
X151792179Y-102235048D01*
X151792181Y-102235049D01*
X151792184Y-102235051D01*
X151801493Y-102239794D01*
X151852290Y-102287766D01*
X151869087Y-102355587D01*
X151846552Y-102421722D01*
X151801505Y-102460760D01*
X151792446Y-102465376D01*
X151792440Y-102465380D01*
X151738282Y-102504727D01*
X151738282Y-102504728D01*
X152370591Y-103137037D01*
X152307007Y-103154075D01*
X152192993Y-103219901D01*
X152099901Y-103312993D01*
X152034075Y-103427007D01*
X152017037Y-103490591D01*
X151384728Y-102858282D01*
X151384727Y-102858282D01*
X151345380Y-102912439D01*
X151248904Y-103101782D01*
X151183242Y-103303869D01*
X151183242Y-103303872D01*
X151150000Y-103513753D01*
X151150000Y-103726246D01*
X151183242Y-103936127D01*
X151183242Y-103936130D01*
X151248904Y-104138217D01*
X151345375Y-104327550D01*
X151384728Y-104381716D01*
X152017037Y-103749408D01*
X152034075Y-103812993D01*
X152099901Y-103927007D01*
X152192993Y-104020099D01*
X152307007Y-104085925D01*
X152370590Y-104102962D01*
X151738282Y-104735269D01*
X151738282Y-104735270D01*
X151792449Y-104774624D01*
X151981782Y-104871095D01*
X152183870Y-104936757D01*
X152393754Y-104970000D01*
X152606246Y-104970000D01*
X152816127Y-104936757D01*
X152816130Y-104936757D01*
X153018217Y-104871095D01*
X153207554Y-104774622D01*
X153261716Y-104735270D01*
X153261717Y-104735270D01*
X152629408Y-104102962D01*
X152692993Y-104085925D01*
X152807007Y-104020099D01*
X152900099Y-103927007D01*
X152965925Y-103812993D01*
X152982962Y-103749409D01*
X153615270Y-104381717D01*
X153615270Y-104381716D01*
X153654622Y-104327554D01*
X153751095Y-104138217D01*
X153816757Y-103936130D01*
X153816757Y-103936127D01*
X153850000Y-103726246D01*
X153850000Y-103513753D01*
X153816757Y-103303872D01*
X153816757Y-103303869D01*
X153751095Y-103101782D01*
X153654624Y-102912449D01*
X153615270Y-102858282D01*
X153615269Y-102858282D01*
X152982962Y-103490590D01*
X152965925Y-103427007D01*
X152900099Y-103312993D01*
X152807007Y-103219901D01*
X152692993Y-103154075D01*
X152629409Y-103137037D01*
X153261716Y-102504728D01*
X153207547Y-102465373D01*
X153207547Y-102465372D01*
X153198500Y-102460763D01*
X153147706Y-102412788D01*
X153130912Y-102344966D01*
X153153451Y-102278832D01*
X153198508Y-102239793D01*
X153207816Y-102235051D01*
X153297716Y-102169735D01*
X153379786Y-102110109D01*
X153379788Y-102110106D01*
X153379792Y-102110104D01*
X153530104Y-101959792D01*
X153530106Y-101959788D01*
X153530109Y-101959786D01*
X153655048Y-101787820D01*
X153655047Y-101787820D01*
X153655051Y-101787816D01*
X153751557Y-101598412D01*
X153817246Y-101396243D01*
X153850500Y-101186287D01*
X153850500Y-100973713D01*
X153817246Y-100763757D01*
X153751557Y-100561588D01*
X153655051Y-100372184D01*
X153655049Y-100372181D01*
X153655048Y-100372179D01*
X153530109Y-100200213D01*
X153379786Y-100049890D01*
X153207820Y-99924951D01*
X153207115Y-99924591D01*
X153199054Y-99920485D01*
X153148259Y-99872512D01*
X153131463Y-99804692D01*
X153153999Y-99738556D01*
X153199054Y-99699515D01*
X153207816Y-99695051D01*
X153242661Y-99669735D01*
X153379786Y-99570109D01*
X153379788Y-99570106D01*
X153379792Y-99570104D01*
X153530104Y-99419792D01*
X153530106Y-99419788D01*
X153530109Y-99419786D01*
X153655048Y-99247820D01*
X153655047Y-99247820D01*
X153655051Y-99247816D01*
X153751557Y-99058412D01*
X153817246Y-98856243D01*
X153850500Y-98646287D01*
X153850500Y-98433713D01*
X153817246Y-98223757D01*
X153751557Y-98021588D01*
X153655051Y-97832184D01*
X153655049Y-97832181D01*
X153655048Y-97832179D01*
X153530109Y-97660213D01*
X153379786Y-97509890D01*
X153207820Y-97384951D01*
X153207115Y-97384591D01*
X153199054Y-97380485D01*
X153148259Y-97332512D01*
X153131463Y-97264692D01*
X153153999Y-97198556D01*
X153199054Y-97159515D01*
X153207816Y-97155051D01*
X153229789Y-97139086D01*
X153379786Y-97030109D01*
X153379788Y-97030106D01*
X153379792Y-97030104D01*
X153530104Y-96879792D01*
X153530106Y-96879788D01*
X153530109Y-96879786D01*
X153655048Y-96707820D01*
X153655047Y-96707820D01*
X153655051Y-96707816D01*
X153751557Y-96518412D01*
X153817246Y-96316243D01*
X153850500Y-96106287D01*
X153850500Y-95893713D01*
X153817246Y-95683757D01*
X153751557Y-95481588D01*
X153655051Y-95292184D01*
X153655049Y-95292181D01*
X153655048Y-95292179D01*
X153530109Y-95120213D01*
X153379786Y-94969890D01*
X153207820Y-94844951D01*
X153207115Y-94844591D01*
X153199054Y-94840485D01*
X153148259Y-94792512D01*
X153131463Y-94724692D01*
X153153999Y-94658556D01*
X153199054Y-94619515D01*
X153207816Y-94615051D01*
X153336180Y-94521790D01*
X153379786Y-94490109D01*
X153379788Y-94490106D01*
X153379792Y-94490104D01*
X153530104Y-94339792D01*
X153530106Y-94339788D01*
X153530109Y-94339786D01*
X153655048Y-94167820D01*
X153655047Y-94167820D01*
X153655051Y-94167816D01*
X153751557Y-93978412D01*
X153817246Y-93776243D01*
X153850500Y-93566287D01*
X153850500Y-93353713D01*
X153817246Y-93143757D01*
X153751557Y-92941588D01*
X153655051Y-92752184D01*
X153655049Y-92752181D01*
X153655048Y-92752179D01*
X153530109Y-92580213D01*
X153416569Y-92466673D01*
X153383084Y-92405350D01*
X153388068Y-92335658D01*
X153429940Y-92279725D01*
X153460915Y-92262810D01*
X153592331Y-92213796D01*
X153707546Y-92127546D01*
X153793796Y-92012331D01*
X153844091Y-91877483D01*
X153850500Y-91817873D01*
X153850499Y-90022128D01*
X153844091Y-89962517D01*
X153793796Y-89827669D01*
X153793795Y-89827668D01*
X153793793Y-89827664D01*
X153707547Y-89712455D01*
X153707273Y-89712181D01*
X153707087Y-89711840D01*
X153702232Y-89705355D01*
X153703164Y-89704656D01*
X153673788Y-89650858D01*
X153678772Y-89581166D01*
X153720644Y-89525233D01*
X153786108Y-89500816D01*
X153794954Y-89500500D01*
X154375500Y-89500500D01*
X154442539Y-89520185D01*
X154488294Y-89572989D01*
X154499500Y-89624500D01*
X154499500Y-105375500D01*
X154479815Y-105442539D01*
X154427011Y-105488294D01*
X154375500Y-105499500D01*
X144724000Y-105499500D01*
X144656961Y-105479815D01*
X144611206Y-105427011D01*
X144600000Y-105375500D01*
X144600000Y-89624500D01*
X144619685Y-89557461D01*
X144672489Y-89511706D01*
X144724000Y-89500500D01*
X151205046Y-89500500D01*
X151272085Y-89520185D01*
G37*
%TD.AperFunction*%
%TD*%
M02*
