%TF.GenerationSoftware,KiCad,Pcbnew,9.0.6-9.0.6~ubuntu22.04.1*%
%TF.CreationDate,2026-02-12T12:00:21+09:00*%
%TF.ProjectId,usb_typec_serial_insulation_adum1412,7573625f-7479-4706-9563-5f7365726961,V1.0*%
%TF.SameCoordinates,Original*%
%TF.FileFunction,Legend,Top*%
%TF.FilePolarity,Positive*%
%FSLAX46Y46*%
G04 Gerber Fmt 4.6, Leading zero omitted, Abs format (unit mm)*
G04 Created by KiCad (PCBNEW 9.0.6-9.0.6~ubuntu22.04.1) date 2026-02-12 12:00:21*
%MOMM*%
%LPD*%
G01*
G04 APERTURE LIST*
%ADD10C,0.075000*%
%ADD11C,0.150000*%
%ADD12C,0.120000*%
G04 APERTURE END LIST*
D10*
X132206484Y-98322671D02*
X132406484Y-98922671D01*
X132406484Y-98922671D02*
X132606484Y-98322671D01*
X133149342Y-98865528D02*
X133120770Y-98894100D01*
X133120770Y-98894100D02*
X133035056Y-98922671D01*
X133035056Y-98922671D02*
X132977913Y-98922671D01*
X132977913Y-98922671D02*
X132892199Y-98894100D01*
X132892199Y-98894100D02*
X132835056Y-98836957D01*
X132835056Y-98836957D02*
X132806485Y-98779814D01*
X132806485Y-98779814D02*
X132777913Y-98665528D01*
X132777913Y-98665528D02*
X132777913Y-98579814D01*
X132777913Y-98579814D02*
X132806485Y-98465528D01*
X132806485Y-98465528D02*
X132835056Y-98408385D01*
X132835056Y-98408385D02*
X132892199Y-98351242D01*
X132892199Y-98351242D02*
X132977913Y-98322671D01*
X132977913Y-98322671D02*
X133035056Y-98322671D01*
X133035056Y-98322671D02*
X133120770Y-98351242D01*
X133120770Y-98351242D02*
X133149342Y-98379814D01*
X133749342Y-98865528D02*
X133720770Y-98894100D01*
X133720770Y-98894100D02*
X133635056Y-98922671D01*
X133635056Y-98922671D02*
X133577913Y-98922671D01*
X133577913Y-98922671D02*
X133492199Y-98894100D01*
X133492199Y-98894100D02*
X133435056Y-98836957D01*
X133435056Y-98836957D02*
X133406485Y-98779814D01*
X133406485Y-98779814D02*
X133377913Y-98665528D01*
X133377913Y-98665528D02*
X133377913Y-98579814D01*
X133377913Y-98579814D02*
X133406485Y-98465528D01*
X133406485Y-98465528D02*
X133435056Y-98408385D01*
X133435056Y-98408385D02*
X133492199Y-98351242D01*
X133492199Y-98351242D02*
X133577913Y-98322671D01*
X133577913Y-98322671D02*
X133635056Y-98322671D01*
X133635056Y-98322671D02*
X133720770Y-98351242D01*
X133720770Y-98351242D02*
X133749342Y-98379814D01*
X133977913Y-98379814D02*
X134006485Y-98351242D01*
X134006485Y-98351242D02*
X134063628Y-98322671D01*
X134063628Y-98322671D02*
X134206485Y-98322671D01*
X134206485Y-98322671D02*
X134263628Y-98351242D01*
X134263628Y-98351242D02*
X134292199Y-98379814D01*
X134292199Y-98379814D02*
X134320770Y-98436957D01*
X134320770Y-98436957D02*
X134320770Y-98494100D01*
X134320770Y-98494100D02*
X134292199Y-98579814D01*
X134292199Y-98579814D02*
X133949342Y-98922671D01*
X133949342Y-98922671D02*
X134320770Y-98922671D01*
X132606484Y-102551242D02*
X132549342Y-102522671D01*
X132549342Y-102522671D02*
X132463627Y-102522671D01*
X132463627Y-102522671D02*
X132377913Y-102551242D01*
X132377913Y-102551242D02*
X132320770Y-102608385D01*
X132320770Y-102608385D02*
X132292199Y-102665528D01*
X132292199Y-102665528D02*
X132263627Y-102779814D01*
X132263627Y-102779814D02*
X132263627Y-102865528D01*
X132263627Y-102865528D02*
X132292199Y-102979814D01*
X132292199Y-102979814D02*
X132320770Y-103036957D01*
X132320770Y-103036957D02*
X132377913Y-103094100D01*
X132377913Y-103094100D02*
X132463627Y-103122671D01*
X132463627Y-103122671D02*
X132520770Y-103122671D01*
X132520770Y-103122671D02*
X132606484Y-103094100D01*
X132606484Y-103094100D02*
X132635056Y-103065528D01*
X132635056Y-103065528D02*
X132635056Y-102865528D01*
X132635056Y-102865528D02*
X132520770Y-102865528D01*
X132892199Y-103122671D02*
X132892199Y-102522671D01*
X132892199Y-102522671D02*
X133235056Y-103122671D01*
X133235056Y-103122671D02*
X133235056Y-102522671D01*
X133520770Y-103122671D02*
X133520770Y-102522671D01*
X133520770Y-102522671D02*
X133663627Y-102522671D01*
X133663627Y-102522671D02*
X133749341Y-102551242D01*
X133749341Y-102551242D02*
X133806484Y-102608385D01*
X133806484Y-102608385D02*
X133835055Y-102665528D01*
X133835055Y-102665528D02*
X133863627Y-102779814D01*
X133863627Y-102779814D02*
X133863627Y-102865528D01*
X133863627Y-102865528D02*
X133835055Y-102979814D01*
X133835055Y-102979814D02*
X133806484Y-103036957D01*
X133806484Y-103036957D02*
X133749341Y-103094100D01*
X133749341Y-103094100D02*
X133663627Y-103122671D01*
X133663627Y-103122671D02*
X133520770Y-103122671D01*
X134092198Y-102579814D02*
X134120770Y-102551242D01*
X134120770Y-102551242D02*
X134177913Y-102522671D01*
X134177913Y-102522671D02*
X134320770Y-102522671D01*
X134320770Y-102522671D02*
X134377913Y-102551242D01*
X134377913Y-102551242D02*
X134406484Y-102579814D01*
X134406484Y-102579814D02*
X134435055Y-102636957D01*
X134435055Y-102636957D02*
X134435055Y-102694100D01*
X134435055Y-102694100D02*
X134406484Y-102779814D01*
X134406484Y-102779814D02*
X134063627Y-103122671D01*
X134063627Y-103122671D02*
X134435055Y-103122671D01*
X132635056Y-93422671D02*
X132435056Y-93136957D01*
X132292199Y-93422671D02*
X132292199Y-92822671D01*
X132292199Y-92822671D02*
X132520770Y-92822671D01*
X132520770Y-92822671D02*
X132577913Y-92851242D01*
X132577913Y-92851242D02*
X132606484Y-92879814D01*
X132606484Y-92879814D02*
X132635056Y-92936957D01*
X132635056Y-92936957D02*
X132635056Y-93022671D01*
X132635056Y-93022671D02*
X132606484Y-93079814D01*
X132606484Y-93079814D02*
X132577913Y-93108385D01*
X132577913Y-93108385D02*
X132520770Y-93136957D01*
X132520770Y-93136957D02*
X132292199Y-93136957D01*
X132835056Y-92822671D02*
X133235056Y-93422671D01*
X133235056Y-92822671D02*
X132835056Y-93422671D01*
X133435056Y-92879814D02*
X133463628Y-92851242D01*
X133463628Y-92851242D02*
X133520771Y-92822671D01*
X133520771Y-92822671D02*
X133663628Y-92822671D01*
X133663628Y-92822671D02*
X133720771Y-92851242D01*
X133720771Y-92851242D02*
X133749342Y-92879814D01*
X133749342Y-92879814D02*
X133777913Y-92936957D01*
X133777913Y-92936957D02*
X133777913Y-92994100D01*
X133777913Y-92994100D02*
X133749342Y-93079814D01*
X133749342Y-93079814D02*
X133406485Y-93422671D01*
X133406485Y-93422671D02*
X133777913Y-93422671D01*
X132206484Y-95822671D02*
X132549342Y-95822671D01*
X132377913Y-96422671D02*
X132377913Y-95822671D01*
X132692199Y-95822671D02*
X133092199Y-96422671D01*
X133092199Y-95822671D02*
X132692199Y-96422671D01*
X133292199Y-95879814D02*
X133320771Y-95851242D01*
X133320771Y-95851242D02*
X133377914Y-95822671D01*
X133377914Y-95822671D02*
X133520771Y-95822671D01*
X133520771Y-95822671D02*
X133577914Y-95851242D01*
X133577914Y-95851242D02*
X133606485Y-95879814D01*
X133606485Y-95879814D02*
X133635056Y-95936957D01*
X133635056Y-95936957D02*
X133635056Y-95994100D01*
X133635056Y-95994100D02*
X133606485Y-96079814D01*
X133606485Y-96079814D02*
X133263628Y-96422671D01*
X133263628Y-96422671D02*
X133635056Y-96422671D01*
X149106484Y-103551242D02*
X149049342Y-103522671D01*
X149049342Y-103522671D02*
X148963627Y-103522671D01*
X148963627Y-103522671D02*
X148877913Y-103551242D01*
X148877913Y-103551242D02*
X148820770Y-103608385D01*
X148820770Y-103608385D02*
X148792199Y-103665528D01*
X148792199Y-103665528D02*
X148763627Y-103779814D01*
X148763627Y-103779814D02*
X148763627Y-103865528D01*
X148763627Y-103865528D02*
X148792199Y-103979814D01*
X148792199Y-103979814D02*
X148820770Y-104036957D01*
X148820770Y-104036957D02*
X148877913Y-104094100D01*
X148877913Y-104094100D02*
X148963627Y-104122671D01*
X148963627Y-104122671D02*
X149020770Y-104122671D01*
X149020770Y-104122671D02*
X149106484Y-104094100D01*
X149106484Y-104094100D02*
X149135056Y-104065528D01*
X149135056Y-104065528D02*
X149135056Y-103865528D01*
X149135056Y-103865528D02*
X149020770Y-103865528D01*
X149392199Y-104122671D02*
X149392199Y-103522671D01*
X149392199Y-103522671D02*
X149735056Y-104122671D01*
X149735056Y-104122671D02*
X149735056Y-103522671D01*
X150020770Y-104122671D02*
X150020770Y-103522671D01*
X150020770Y-103522671D02*
X150163627Y-103522671D01*
X150163627Y-103522671D02*
X150249341Y-103551242D01*
X150249341Y-103551242D02*
X150306484Y-103608385D01*
X150306484Y-103608385D02*
X150335055Y-103665528D01*
X150335055Y-103665528D02*
X150363627Y-103779814D01*
X150363627Y-103779814D02*
X150363627Y-103865528D01*
X150363627Y-103865528D02*
X150335055Y-103979814D01*
X150335055Y-103979814D02*
X150306484Y-104036957D01*
X150306484Y-104036957D02*
X150249341Y-104094100D01*
X150249341Y-104094100D02*
X150163627Y-104122671D01*
X150163627Y-104122671D02*
X150020770Y-104122671D01*
X150935055Y-104122671D02*
X150592198Y-104122671D01*
X150763627Y-104122671D02*
X150763627Y-103522671D01*
X150763627Y-103522671D02*
X150706484Y-103608385D01*
X150706484Y-103608385D02*
X150649341Y-103665528D01*
X150649341Y-103665528D02*
X150592198Y-103694100D01*
X148806484Y-98422671D02*
X149006484Y-99022671D01*
X149006484Y-99022671D02*
X149206484Y-98422671D01*
X149749342Y-98965528D02*
X149720770Y-98994100D01*
X149720770Y-98994100D02*
X149635056Y-99022671D01*
X149635056Y-99022671D02*
X149577913Y-99022671D01*
X149577913Y-99022671D02*
X149492199Y-98994100D01*
X149492199Y-98994100D02*
X149435056Y-98936957D01*
X149435056Y-98936957D02*
X149406485Y-98879814D01*
X149406485Y-98879814D02*
X149377913Y-98765528D01*
X149377913Y-98765528D02*
X149377913Y-98679814D01*
X149377913Y-98679814D02*
X149406485Y-98565528D01*
X149406485Y-98565528D02*
X149435056Y-98508385D01*
X149435056Y-98508385D02*
X149492199Y-98451242D01*
X149492199Y-98451242D02*
X149577913Y-98422671D01*
X149577913Y-98422671D02*
X149635056Y-98422671D01*
X149635056Y-98422671D02*
X149720770Y-98451242D01*
X149720770Y-98451242D02*
X149749342Y-98479814D01*
X150349342Y-98965528D02*
X150320770Y-98994100D01*
X150320770Y-98994100D02*
X150235056Y-99022671D01*
X150235056Y-99022671D02*
X150177913Y-99022671D01*
X150177913Y-99022671D02*
X150092199Y-98994100D01*
X150092199Y-98994100D02*
X150035056Y-98936957D01*
X150035056Y-98936957D02*
X150006485Y-98879814D01*
X150006485Y-98879814D02*
X149977913Y-98765528D01*
X149977913Y-98765528D02*
X149977913Y-98679814D01*
X149977913Y-98679814D02*
X150006485Y-98565528D01*
X150006485Y-98565528D02*
X150035056Y-98508385D01*
X150035056Y-98508385D02*
X150092199Y-98451242D01*
X150092199Y-98451242D02*
X150177913Y-98422671D01*
X150177913Y-98422671D02*
X150235056Y-98422671D01*
X150235056Y-98422671D02*
X150320770Y-98451242D01*
X150320770Y-98451242D02*
X150349342Y-98479814D01*
X150920770Y-99022671D02*
X150577913Y-99022671D01*
X150749342Y-99022671D02*
X150749342Y-98422671D01*
X150749342Y-98422671D02*
X150692199Y-98508385D01*
X150692199Y-98508385D02*
X150635056Y-98565528D01*
X150635056Y-98565528D02*
X150577913Y-98594100D01*
X149506484Y-95822671D02*
X149849342Y-95822671D01*
X149677913Y-96422671D02*
X149677913Y-95822671D01*
X149992199Y-95822671D02*
X150392199Y-96422671D01*
X150392199Y-95822671D02*
X149992199Y-96422671D01*
X150935056Y-96422671D02*
X150592199Y-96422671D01*
X150763628Y-96422671D02*
X150763628Y-95822671D01*
X150763628Y-95822671D02*
X150706485Y-95908385D01*
X150706485Y-95908385D02*
X150649342Y-95965528D01*
X150649342Y-95965528D02*
X150592199Y-95994100D01*
X132635056Y-90922671D02*
X132435056Y-90636957D01*
X132292199Y-90922671D02*
X132292199Y-90322671D01*
X132292199Y-90322671D02*
X132520770Y-90322671D01*
X132520770Y-90322671D02*
X132577913Y-90351242D01*
X132577913Y-90351242D02*
X132606484Y-90379814D01*
X132606484Y-90379814D02*
X132635056Y-90436957D01*
X132635056Y-90436957D02*
X132635056Y-90522671D01*
X132635056Y-90522671D02*
X132606484Y-90579814D01*
X132606484Y-90579814D02*
X132577913Y-90608385D01*
X132577913Y-90608385D02*
X132520770Y-90636957D01*
X132520770Y-90636957D02*
X132292199Y-90636957D01*
X132806484Y-90322671D02*
X133149342Y-90322671D01*
X132977913Y-90922671D02*
X132977913Y-90322671D01*
X133320770Y-90894100D02*
X133406485Y-90922671D01*
X133406485Y-90922671D02*
X133549342Y-90922671D01*
X133549342Y-90922671D02*
X133606485Y-90894100D01*
X133606485Y-90894100D02*
X133635056Y-90865528D01*
X133635056Y-90865528D02*
X133663627Y-90808385D01*
X133663627Y-90808385D02*
X133663627Y-90751242D01*
X133663627Y-90751242D02*
X133635056Y-90694100D01*
X133635056Y-90694100D02*
X133606485Y-90665528D01*
X133606485Y-90665528D02*
X133549342Y-90636957D01*
X133549342Y-90636957D02*
X133435056Y-90608385D01*
X133435056Y-90608385D02*
X133377913Y-90579814D01*
X133377913Y-90579814D02*
X133349342Y-90551242D01*
X133349342Y-90551242D02*
X133320770Y-90494100D01*
X133320770Y-90494100D02*
X133320770Y-90436957D01*
X133320770Y-90436957D02*
X133349342Y-90379814D01*
X133349342Y-90379814D02*
X133377913Y-90351242D01*
X133377913Y-90351242D02*
X133435056Y-90322671D01*
X133435056Y-90322671D02*
X133577913Y-90322671D01*
X133577913Y-90322671D02*
X133663627Y-90351242D01*
X149735056Y-93822671D02*
X149535056Y-93536957D01*
X149392199Y-93822671D02*
X149392199Y-93222671D01*
X149392199Y-93222671D02*
X149620770Y-93222671D01*
X149620770Y-93222671D02*
X149677913Y-93251242D01*
X149677913Y-93251242D02*
X149706484Y-93279814D01*
X149706484Y-93279814D02*
X149735056Y-93336957D01*
X149735056Y-93336957D02*
X149735056Y-93422671D01*
X149735056Y-93422671D02*
X149706484Y-93479814D01*
X149706484Y-93479814D02*
X149677913Y-93508385D01*
X149677913Y-93508385D02*
X149620770Y-93536957D01*
X149620770Y-93536957D02*
X149392199Y-93536957D01*
X149935056Y-93222671D02*
X150335056Y-93822671D01*
X150335056Y-93222671D02*
X149935056Y-93822671D01*
X150877913Y-93822671D02*
X150535056Y-93822671D01*
X150706485Y-93822671D02*
X150706485Y-93222671D01*
X150706485Y-93222671D02*
X150649342Y-93308385D01*
X150649342Y-93308385D02*
X150592199Y-93365528D01*
X150592199Y-93365528D02*
X150535056Y-93394100D01*
X132735056Y-101365528D02*
X132706484Y-101394100D01*
X132706484Y-101394100D02*
X132620770Y-101422671D01*
X132620770Y-101422671D02*
X132563627Y-101422671D01*
X132563627Y-101422671D02*
X132477913Y-101394100D01*
X132477913Y-101394100D02*
X132420770Y-101336957D01*
X132420770Y-101336957D02*
X132392199Y-101279814D01*
X132392199Y-101279814D02*
X132363627Y-101165528D01*
X132363627Y-101165528D02*
X132363627Y-101079814D01*
X132363627Y-101079814D02*
X132392199Y-100965528D01*
X132392199Y-100965528D02*
X132420770Y-100908385D01*
X132420770Y-100908385D02*
X132477913Y-100851242D01*
X132477913Y-100851242D02*
X132563627Y-100822671D01*
X132563627Y-100822671D02*
X132620770Y-100822671D01*
X132620770Y-100822671D02*
X132706484Y-100851242D01*
X132706484Y-100851242D02*
X132735056Y-100879814D01*
X132906484Y-100822671D02*
X133249342Y-100822671D01*
X133077913Y-101422671D02*
X133077913Y-100822671D01*
X133420770Y-101394100D02*
X133506485Y-101422671D01*
X133506485Y-101422671D02*
X133649342Y-101422671D01*
X133649342Y-101422671D02*
X133706485Y-101394100D01*
X133706485Y-101394100D02*
X133735056Y-101365528D01*
X133735056Y-101365528D02*
X133763627Y-101308385D01*
X133763627Y-101308385D02*
X133763627Y-101251242D01*
X133763627Y-101251242D02*
X133735056Y-101194100D01*
X133735056Y-101194100D02*
X133706485Y-101165528D01*
X133706485Y-101165528D02*
X133649342Y-101136957D01*
X133649342Y-101136957D02*
X133535056Y-101108385D01*
X133535056Y-101108385D02*
X133477913Y-101079814D01*
X133477913Y-101079814D02*
X133449342Y-101051242D01*
X133449342Y-101051242D02*
X133420770Y-100994100D01*
X133420770Y-100994100D02*
X133420770Y-100936957D01*
X133420770Y-100936957D02*
X133449342Y-100879814D01*
X133449342Y-100879814D02*
X133477913Y-100851242D01*
X133477913Y-100851242D02*
X133535056Y-100822671D01*
X133535056Y-100822671D02*
X133677913Y-100822671D01*
X133677913Y-100822671D02*
X133763627Y-100851242D01*
X149735056Y-91222671D02*
X149535056Y-90936957D01*
X149392199Y-91222671D02*
X149392199Y-90622671D01*
X149392199Y-90622671D02*
X149620770Y-90622671D01*
X149620770Y-90622671D02*
X149677913Y-90651242D01*
X149677913Y-90651242D02*
X149706484Y-90679814D01*
X149706484Y-90679814D02*
X149735056Y-90736957D01*
X149735056Y-90736957D02*
X149735056Y-90822671D01*
X149735056Y-90822671D02*
X149706484Y-90879814D01*
X149706484Y-90879814D02*
X149677913Y-90908385D01*
X149677913Y-90908385D02*
X149620770Y-90936957D01*
X149620770Y-90936957D02*
X149392199Y-90936957D01*
X149906484Y-90622671D02*
X150249342Y-90622671D01*
X150077913Y-91222671D02*
X150077913Y-90622671D01*
X150420770Y-91194100D02*
X150506485Y-91222671D01*
X150506485Y-91222671D02*
X150649342Y-91222671D01*
X150649342Y-91222671D02*
X150706485Y-91194100D01*
X150706485Y-91194100D02*
X150735056Y-91165528D01*
X150735056Y-91165528D02*
X150763627Y-91108385D01*
X150763627Y-91108385D02*
X150763627Y-91051242D01*
X150763627Y-91051242D02*
X150735056Y-90994100D01*
X150735056Y-90994100D02*
X150706485Y-90965528D01*
X150706485Y-90965528D02*
X150649342Y-90936957D01*
X150649342Y-90936957D02*
X150535056Y-90908385D01*
X150535056Y-90908385D02*
X150477913Y-90879814D01*
X150477913Y-90879814D02*
X150449342Y-90851242D01*
X150449342Y-90851242D02*
X150420770Y-90794100D01*
X150420770Y-90794100D02*
X150420770Y-90736957D01*
X150420770Y-90736957D02*
X150449342Y-90679814D01*
X150449342Y-90679814D02*
X150477913Y-90651242D01*
X150477913Y-90651242D02*
X150535056Y-90622671D01*
X150535056Y-90622671D02*
X150677913Y-90622671D01*
X150677913Y-90622671D02*
X150763627Y-90651242D01*
X149735056Y-101365528D02*
X149706484Y-101394100D01*
X149706484Y-101394100D02*
X149620770Y-101422671D01*
X149620770Y-101422671D02*
X149563627Y-101422671D01*
X149563627Y-101422671D02*
X149477913Y-101394100D01*
X149477913Y-101394100D02*
X149420770Y-101336957D01*
X149420770Y-101336957D02*
X149392199Y-101279814D01*
X149392199Y-101279814D02*
X149363627Y-101165528D01*
X149363627Y-101165528D02*
X149363627Y-101079814D01*
X149363627Y-101079814D02*
X149392199Y-100965528D01*
X149392199Y-100965528D02*
X149420770Y-100908385D01*
X149420770Y-100908385D02*
X149477913Y-100851242D01*
X149477913Y-100851242D02*
X149563627Y-100822671D01*
X149563627Y-100822671D02*
X149620770Y-100822671D01*
X149620770Y-100822671D02*
X149706484Y-100851242D01*
X149706484Y-100851242D02*
X149735056Y-100879814D01*
X149906484Y-100822671D02*
X150249342Y-100822671D01*
X150077913Y-101422671D02*
X150077913Y-100822671D01*
X150420770Y-101394100D02*
X150506485Y-101422671D01*
X150506485Y-101422671D02*
X150649342Y-101422671D01*
X150649342Y-101422671D02*
X150706485Y-101394100D01*
X150706485Y-101394100D02*
X150735056Y-101365528D01*
X150735056Y-101365528D02*
X150763627Y-101308385D01*
X150763627Y-101308385D02*
X150763627Y-101251242D01*
X150763627Y-101251242D02*
X150735056Y-101194100D01*
X150735056Y-101194100D02*
X150706485Y-101165528D01*
X150706485Y-101165528D02*
X150649342Y-101136957D01*
X150649342Y-101136957D02*
X150535056Y-101108385D01*
X150535056Y-101108385D02*
X150477913Y-101079814D01*
X150477913Y-101079814D02*
X150449342Y-101051242D01*
X150449342Y-101051242D02*
X150420770Y-100994100D01*
X150420770Y-100994100D02*
X150420770Y-100936957D01*
X150420770Y-100936957D02*
X150449342Y-100879814D01*
X150449342Y-100879814D02*
X150477913Y-100851242D01*
X150477913Y-100851242D02*
X150535056Y-100822671D01*
X150535056Y-100822671D02*
X150677913Y-100822671D01*
X150677913Y-100822671D02*
X150763627Y-100851242D01*
D11*
X135533333Y-103059580D02*
X135485714Y-103107200D01*
X135485714Y-103107200D02*
X135342857Y-103154819D01*
X135342857Y-103154819D02*
X135247619Y-103154819D01*
X135247619Y-103154819D02*
X135104762Y-103107200D01*
X135104762Y-103107200D02*
X135009524Y-103011961D01*
X135009524Y-103011961D02*
X134961905Y-102916723D01*
X134961905Y-102916723D02*
X134914286Y-102726247D01*
X134914286Y-102726247D02*
X134914286Y-102583390D01*
X134914286Y-102583390D02*
X134961905Y-102392914D01*
X134961905Y-102392914D02*
X135009524Y-102297676D01*
X135009524Y-102297676D02*
X135104762Y-102202438D01*
X135104762Y-102202438D02*
X135247619Y-102154819D01*
X135247619Y-102154819D02*
X135342857Y-102154819D01*
X135342857Y-102154819D02*
X135485714Y-102202438D01*
X135485714Y-102202438D02*
X135533333Y-102250057D01*
X135914286Y-102250057D02*
X135961905Y-102202438D01*
X135961905Y-102202438D02*
X136057143Y-102154819D01*
X136057143Y-102154819D02*
X136295238Y-102154819D01*
X136295238Y-102154819D02*
X136390476Y-102202438D01*
X136390476Y-102202438D02*
X136438095Y-102250057D01*
X136438095Y-102250057D02*
X136485714Y-102345295D01*
X136485714Y-102345295D02*
X136485714Y-102440533D01*
X136485714Y-102440533D02*
X136438095Y-102583390D01*
X136438095Y-102583390D02*
X135866667Y-103154819D01*
X135866667Y-103154819D02*
X136485714Y-103154819D01*
X147433333Y-103059580D02*
X147385714Y-103107200D01*
X147385714Y-103107200D02*
X147242857Y-103154819D01*
X147242857Y-103154819D02*
X147147619Y-103154819D01*
X147147619Y-103154819D02*
X147004762Y-103107200D01*
X147004762Y-103107200D02*
X146909524Y-103011961D01*
X146909524Y-103011961D02*
X146861905Y-102916723D01*
X146861905Y-102916723D02*
X146814286Y-102726247D01*
X146814286Y-102726247D02*
X146814286Y-102583390D01*
X146814286Y-102583390D02*
X146861905Y-102392914D01*
X146861905Y-102392914D02*
X146909524Y-102297676D01*
X146909524Y-102297676D02*
X147004762Y-102202438D01*
X147004762Y-102202438D02*
X147147619Y-102154819D01*
X147147619Y-102154819D02*
X147242857Y-102154819D01*
X147242857Y-102154819D02*
X147385714Y-102202438D01*
X147385714Y-102202438D02*
X147433333Y-102250057D01*
X148385714Y-103154819D02*
X147814286Y-103154819D01*
X148100000Y-103154819D02*
X148100000Y-102154819D01*
X148100000Y-102154819D02*
X148004762Y-102297676D01*
X148004762Y-102297676D02*
X147909524Y-102392914D01*
X147909524Y-102392914D02*
X147814286Y-102440533D01*
X140738095Y-102554819D02*
X140738095Y-103364342D01*
X140738095Y-103364342D02*
X140785714Y-103459580D01*
X140785714Y-103459580D02*
X140833333Y-103507200D01*
X140833333Y-103507200D02*
X140928571Y-103554819D01*
X140928571Y-103554819D02*
X141119047Y-103554819D01*
X141119047Y-103554819D02*
X141214285Y-103507200D01*
X141214285Y-103507200D02*
X141261904Y-103459580D01*
X141261904Y-103459580D02*
X141309523Y-103364342D01*
X141309523Y-103364342D02*
X141309523Y-102554819D01*
X142309523Y-103554819D02*
X141738095Y-103554819D01*
X142023809Y-103554819D02*
X142023809Y-102554819D01*
X142023809Y-102554819D02*
X141928571Y-102697676D01*
X141928571Y-102697676D02*
X141833333Y-102792914D01*
X141833333Y-102792914D02*
X141738095Y-102840533D01*
X132751666Y-104654819D02*
X132751666Y-105369104D01*
X132751666Y-105369104D02*
X132704047Y-105511961D01*
X132704047Y-105511961D02*
X132608809Y-105607200D01*
X132608809Y-105607200D02*
X132465952Y-105654819D01*
X132465952Y-105654819D02*
X132370714Y-105654819D01*
X133180238Y-104750057D02*
X133227857Y-104702438D01*
X133227857Y-104702438D02*
X133323095Y-104654819D01*
X133323095Y-104654819D02*
X133561190Y-104654819D01*
X133561190Y-104654819D02*
X133656428Y-104702438D01*
X133656428Y-104702438D02*
X133704047Y-104750057D01*
X133704047Y-104750057D02*
X133751666Y-104845295D01*
X133751666Y-104845295D02*
X133751666Y-104940533D01*
X133751666Y-104940533D02*
X133704047Y-105083390D01*
X133704047Y-105083390D02*
X133132619Y-105654819D01*
X133132619Y-105654819D02*
X133751666Y-105654819D01*
X149566666Y-104754819D02*
X149566666Y-105469104D01*
X149566666Y-105469104D02*
X149519047Y-105611961D01*
X149519047Y-105611961D02*
X149423809Y-105707200D01*
X149423809Y-105707200D02*
X149280952Y-105754819D01*
X149280952Y-105754819D02*
X149185714Y-105754819D01*
X150566666Y-105754819D02*
X149995238Y-105754819D01*
X150280952Y-105754819D02*
X150280952Y-104754819D01*
X150280952Y-104754819D02*
X150185714Y-104897676D01*
X150185714Y-104897676D02*
X150090476Y-104992914D01*
X150090476Y-104992914D02*
X149995238Y-105040533D01*
D12*
%TO.C,C2*%
X135846267Y-103490000D02*
X135553733Y-103490000D01*
X135846267Y-104510000D02*
X135553733Y-104510000D01*
%TO.C,C1*%
X146853733Y-103590000D02*
X147146267Y-103590000D01*
X146853733Y-104610000D02*
X147146267Y-104610000D01*
%TO.C,U1*%
X145360000Y-102260000D02*
X137640000Y-102260000D01*
X145360000Y-102005000D02*
X145360000Y-102260000D01*
X145360000Y-91740000D02*
X145360000Y-91995000D01*
X137640000Y-102260000D02*
X137640000Y-102005000D01*
X137640000Y-91995000D02*
X137640000Y-91740000D01*
X137640000Y-91740000D02*
X145360000Y-91740000D01*
X146490000Y-102480000D02*
X145810000Y-102480000D01*
X146150000Y-102010000D01*
X146490000Y-102480000D01*
G36*
X146490000Y-102480000D02*
G01*
X145810000Y-102480000D01*
X146150000Y-102010000D01*
X146490000Y-102480000D01*
G37*
%TO.C,J2*%
X129120000Y-89540000D02*
X130500000Y-89540000D01*
X129120000Y-90920000D02*
X129120000Y-89540000D01*
X129120000Y-92190000D02*
X129120000Y-105000000D01*
X129120000Y-92190000D02*
X131880000Y-92190000D01*
X129120000Y-105000000D02*
X131880000Y-105000000D01*
X131880000Y-92190000D02*
X131880000Y-105000000D01*
%TO.C,J1*%
X151120000Y-89540000D02*
X152500000Y-89540000D01*
X151120000Y-90920000D02*
X151120000Y-89540000D01*
X151120000Y-92190000D02*
X151120000Y-105000000D01*
X151120000Y-92190000D02*
X153880000Y-92190000D01*
X151120000Y-105000000D02*
X153880000Y-105000000D01*
X153880000Y-92190000D02*
X153880000Y-105000000D01*
%TD*%
M02*
