%TF.GenerationSoftware,KiCad,Pcbnew,9.0.6-9.0.6~ubuntu22.04.1*%
%TF.CreationDate,2026-02-12T12:00:20+09:00*%
%TF.ProjectId,usb_typec_serial_insulation_adum1412,7573625f-7479-4706-9563-5f7365726961,V1.0*%
%TF.SameCoordinates,Original*%
%TF.FileFunction,Copper,L1,Top*%
%TF.FilePolarity,Positive*%
%FSLAX46Y46*%
G04 Gerber Fmt 4.6, Leading zero omitted, Abs format (unit mm)*
G04 Created by KiCad (PCBNEW 9.0.6-9.0.6~ubuntu22.04.1) date 2026-02-12 12:00:20*
%MOMM*%
%LPD*%
G01*
G04 APERTURE LIST*
G04 Aperture macros list*
%AMRoundRect*
0 Rectangle with rounded corners*
0 $1 Rounding radius*
0 $2 $3 $4 $5 $6 $7 $8 $9 X,Y pos of 4 corners*
0 Add a 4 corners polygon primitive as box body*
4,1,4,$2,$3,$4,$5,$6,$7,$8,$9,$2,$3,0*
0 Add four circle primitives for the rounded corners*
1,1,$1+$1,$2,$3*
1,1,$1+$1,$4,$5*
1,1,$1+$1,$6,$7*
1,1,$1+$1,$8,$9*
0 Add four rect primitives between the rounded corners*
20,1,$1+$1,$2,$3,$4,$5,0*
20,1,$1+$1,$4,$5,$6,$7,0*
20,1,$1+$1,$6,$7,$8,$9,0*
20,1,$1+$1,$8,$9,$2,$3,0*%
G04 Aperture macros list end*
%TA.AperFunction,SMDPad,CuDef*%
%ADD10RoundRect,0.237500X0.300000X0.237500X-0.300000X0.237500X-0.300000X-0.237500X0.300000X-0.237500X0*%
%TD*%
%TA.AperFunction,SMDPad,CuDef*%
%ADD11RoundRect,0.237500X-0.300000X-0.237500X0.300000X-0.237500X0.300000X0.237500X-0.300000X0.237500X0*%
%TD*%
%TA.AperFunction,SMDPad,CuDef*%
%ADD12RoundRect,0.150000X0.875000X0.150000X-0.875000X0.150000X-0.875000X-0.150000X0.875000X-0.150000X0*%
%TD*%
%TA.AperFunction,ComponentPad*%
%ADD13R,1.700000X1.700000*%
%TD*%
%TA.AperFunction,ComponentPad*%
%ADD14C,1.700000*%
%TD*%
%TA.AperFunction,ViaPad*%
%ADD15C,0.600000*%
%TD*%
%TA.AperFunction,Conductor*%
%ADD16C,0.600000*%
%TD*%
G04 APERTURE END LIST*
D10*
%TO.P,C2,2*%
%TO.N,GND2*%
X134837500Y-104000000D03*
%TO.P,C2,1*%
%TO.N,VCC2*%
X136562500Y-104000000D03*
%TD*%
D11*
%TO.P,C1,1*%
%TO.N,VCC1*%
X146137500Y-104100000D03*
%TO.P,C1,2*%
%TO.N,GND1*%
X147862500Y-104100000D03*
%TD*%
D12*
%TO.P,U1,1,VDD1*%
%TO.N,VCC1*%
X146150000Y-101445000D03*
%TO.P,U1,2,GND1*%
%TO.N,GND1*%
X146150000Y-100175000D03*
%TO.P,U1,3,VIA*%
%TO.N,Net-(J1-Pin_2)*%
X146150000Y-98905000D03*
%TO.P,U1,4,VIB*%
%TO.N,Net-(J1-Pin_5)*%
X146150000Y-97635000D03*
%TO.P,U1,5,VOC*%
%TO.N,Net-(J1-Pin_3)*%
X146150000Y-96365000D03*
%TO.P,U1,6,VOD*%
%TO.N,Net-(J1-Pin_1)*%
X146150000Y-95095000D03*
%TO.P,U1,7,CTRL1*%
%TO.N,VCC1*%
X146150000Y-93825000D03*
%TO.P,U1,8,GND1*%
%TO.N,GND1*%
X146150000Y-92555000D03*
%TO.P,U1,9,GND2*%
%TO.N,GND2*%
X136850000Y-92555000D03*
%TO.P,U1,10,CTRL2*%
%TO.N,VCC2*%
X136850000Y-93825000D03*
%TO.P,U1,11,VID*%
%TO.N,Net-(J2-Pin_1)*%
X136850000Y-95095000D03*
%TO.P,U1,12,VIC*%
%TO.N,Net-(J2-Pin_3)*%
X136850000Y-96365000D03*
%TO.P,U1,13,VOB*%
%TO.N,Net-(J2-Pin_5)*%
X136850000Y-97635000D03*
%TO.P,U1,14,VOA*%
%TO.N,Net-(J2-Pin_2)*%
X136850000Y-98905000D03*
%TO.P,U1,15,GND2*%
%TO.N,GND2*%
X136850000Y-100175000D03*
%TO.P,U1,16,VDD2*%
%TO.N,VCC2*%
X136850000Y-101445000D03*
%TD*%
D13*
%TO.P,J2,1,Pin_1*%
%TO.N,Net-(J2-Pin_1)*%
X130500000Y-90920000D03*
D14*
%TO.P,J2,2,Pin_2*%
%TO.N,Net-(J2-Pin_2)*%
X130500000Y-93460000D03*
%TO.P,J2,3,Pin_3*%
%TO.N,Net-(J2-Pin_3)*%
X130500000Y-96000000D03*
%TO.P,J2,4,Pin_4*%
%TO.N,VCC2*%
X130500000Y-98540000D03*
%TO.P,J2,5,Pin_5*%
%TO.N,Net-(J2-Pin_5)*%
X130500000Y-101080000D03*
%TO.P,J2,6,Pin_6*%
%TO.N,GND2*%
X130500000Y-103620000D03*
%TD*%
D13*
%TO.P,J1,1,Pin_1*%
%TO.N,Net-(J1-Pin_1)*%
X152500000Y-90920000D03*
D14*
%TO.P,J1,2,Pin_2*%
%TO.N,Net-(J1-Pin_2)*%
X152500000Y-93460000D03*
%TO.P,J1,3,Pin_3*%
%TO.N,Net-(J1-Pin_3)*%
X152500000Y-96000000D03*
%TO.P,J1,4,Pin_4*%
%TO.N,VCC1*%
X152500000Y-98540000D03*
%TO.P,J1,5,Pin_5*%
%TO.N,Net-(J1-Pin_5)*%
X152500000Y-101080000D03*
%TO.P,J1,6,Pin_6*%
%TO.N,GND1*%
X152500000Y-103620000D03*
%TD*%
D15*
%TO.N,GND1*%
X146200000Y-91600000D03*
%TO.N,GND2*%
X136800000Y-91600000D03*
%TO.N,Net-(J2-Pin_2)*%
X135200000Y-98900000D03*
X133100000Y-95300000D03*
%TO.N,Net-(J1-Pin_2)*%
X147800000Y-98900000D03*
X150100000Y-95300000D03*
%TO.N,VCC1*%
X147800000Y-93800000D03*
%TO.N,VCC2*%
X135200000Y-93900000D03*
X135100000Y-101400000D03*
%TO.N,VCC1*%
X147800000Y-101400000D03*
%TD*%
D16*
%TO.N,GND1*%
X146200000Y-91600000D02*
X146200000Y-92505000D01*
X146200000Y-92505000D02*
X146150000Y-92555000D01*
%TO.N,GND2*%
X136800000Y-91600000D02*
X136800000Y-92505000D01*
X136800000Y-92505000D02*
X136850000Y-92555000D01*
%TO.N,VCC1*%
X146137500Y-104100000D02*
X146137500Y-101457500D01*
X146137500Y-101457500D02*
X146150000Y-101445000D01*
%TO.N,GND1*%
X147862500Y-104100000D02*
X152020000Y-104100000D01*
X152020000Y-104100000D02*
X152500000Y-103620000D01*
%TO.N,VCC2*%
X136562500Y-104000000D02*
X136562500Y-101732500D01*
X136562500Y-101732500D02*
X136850000Y-101445000D01*
%TO.N,GND2*%
X134837500Y-104000000D02*
X130880000Y-104000000D01*
X130880000Y-104000000D02*
X130500000Y-103620000D01*
%TO.N,Net-(J2-Pin_2)*%
X136845000Y-98900000D02*
X136850000Y-98905000D01*
X130500000Y-93460000D02*
X131260000Y-93460000D01*
X131260000Y-93460000D02*
X133100000Y-95300000D01*
X135200000Y-98900000D02*
X136845000Y-98900000D01*
%TO.N,Net-(J1-Pin_2)*%
X152500000Y-93460000D02*
X151940000Y-93460000D01*
X151940000Y-93460000D02*
X150100000Y-95300000D01*
X147800000Y-98900000D02*
X146155000Y-98900000D01*
X146155000Y-98900000D02*
X146150000Y-98905000D01*
%TO.N,VCC1*%
X146175000Y-93800000D02*
X146150000Y-93825000D01*
X147800000Y-93800000D02*
X146175000Y-93800000D01*
%TO.N,VCC2*%
X135200000Y-93900000D02*
X136775000Y-93900000D01*
X136775000Y-93900000D02*
X136850000Y-93825000D01*
X135145000Y-101445000D02*
X135100000Y-101400000D01*
X136850000Y-101445000D02*
X135145000Y-101445000D01*
%TO.N,VCC1*%
X147755000Y-101445000D02*
X147800000Y-101400000D01*
X146150000Y-101445000D02*
X147755000Y-101445000D01*
%TO.N,GND2*%
X136850000Y-100175000D02*
X133945000Y-100175000D01*
X133945000Y-100175000D02*
X130500000Y-103620000D01*
%TO.N,GND1*%
X146150000Y-100175000D02*
X149055000Y-100175000D01*
X149055000Y-100175000D02*
X152500000Y-103620000D01*
%TO.N,Net-(J1-Pin_5)*%
X146150000Y-97635000D02*
X149055000Y-97635000D01*
X149055000Y-97635000D02*
X152500000Y-101080000D01*
%TO.N,Net-(J1-Pin_3)*%
X146150000Y-96365000D02*
X152135000Y-96365000D01*
X152135000Y-96365000D02*
X152500000Y-96000000D01*
%TO.N,Net-(J1-Pin_1)*%
X146150000Y-95095000D02*
X148325000Y-95095000D01*
X148325000Y-95095000D02*
X152500000Y-90920000D01*
%TO.N,Net-(J2-Pin_5)*%
X136850000Y-97635000D02*
X133945000Y-97635000D01*
X133945000Y-97635000D02*
X130500000Y-101080000D01*
%TO.N,Net-(J2-Pin_3)*%
X136850000Y-96365000D02*
X130865000Y-96365000D01*
X130865000Y-96365000D02*
X130500000Y-96000000D01*
%TO.N,Net-(J2-Pin_1)*%
X136850000Y-95095000D02*
X134675000Y-95095000D01*
X134675000Y-95095000D02*
X130500000Y-90920000D01*
%TD*%
%TA.AperFunction,Conductor*%
%TO.N,GND2*%
G36*
X129272085Y-89520185D02*
G01*
X129317840Y-89572989D01*
X129327784Y-89642147D01*
X129298759Y-89705703D01*
X129292727Y-89712181D01*
X129292452Y-89712455D01*
X129206206Y-89827664D01*
X129206202Y-89827671D01*
X129155908Y-89962517D01*
X129149501Y-90022116D01*
X129149501Y-90022123D01*
X129149500Y-90022135D01*
X129149500Y-91817870D01*
X129149501Y-91817876D01*
X129155908Y-91877483D01*
X129206202Y-92012328D01*
X129206206Y-92012335D01*
X129292452Y-92127544D01*
X129292455Y-92127547D01*
X129407664Y-92213793D01*
X129407671Y-92213797D01*
X129539082Y-92262810D01*
X129595016Y-92304681D01*
X129619433Y-92370145D01*
X129604582Y-92438418D01*
X129583431Y-92466673D01*
X129469889Y-92580215D01*
X129344951Y-92752179D01*
X129248444Y-92941585D01*
X129182753Y-93143760D01*
X129149500Y-93353713D01*
X129149500Y-93566286D01*
X129182753Y-93776239D01*
X129248444Y-93978414D01*
X129344951Y-94167820D01*
X129469890Y-94339786D01*
X129620213Y-94490109D01*
X129792182Y-94615050D01*
X129800946Y-94619516D01*
X129851742Y-94667491D01*
X129868536Y-94735312D01*
X129845998Y-94801447D01*
X129800946Y-94840484D01*
X129792182Y-94844949D01*
X129620213Y-94969890D01*
X129469890Y-95120213D01*
X129344951Y-95292179D01*
X129248444Y-95481585D01*
X129182753Y-95683760D01*
X129149500Y-95893713D01*
X129149500Y-96106286D01*
X129182753Y-96316239D01*
X129248444Y-96518414D01*
X129344951Y-96707820D01*
X129469890Y-96879786D01*
X129620213Y-97030109D01*
X129792182Y-97155050D01*
X129800946Y-97159516D01*
X129851742Y-97207491D01*
X129868536Y-97275312D01*
X129845998Y-97341447D01*
X129800946Y-97380484D01*
X129792182Y-97384949D01*
X129620213Y-97509890D01*
X129469890Y-97660213D01*
X129344951Y-97832179D01*
X129248444Y-98021585D01*
X129182753Y-98223760D01*
X129154372Y-98402954D01*
X129149500Y-98433713D01*
X129149500Y-98646287D01*
X129182754Y-98856243D01*
X129222590Y-98978846D01*
X129248444Y-99058414D01*
X129344951Y-99247820D01*
X129469890Y-99419786D01*
X129620213Y-99570109D01*
X129792182Y-99695050D01*
X129800946Y-99699516D01*
X129851742Y-99747491D01*
X129868536Y-99815312D01*
X129845998Y-99881447D01*
X129800946Y-99920484D01*
X129792182Y-99924949D01*
X129620213Y-100049890D01*
X129469890Y-100200213D01*
X129344951Y-100372179D01*
X129248444Y-100561585D01*
X129182753Y-100763760D01*
X129149500Y-100973713D01*
X129149500Y-101186286D01*
X129170861Y-101321158D01*
X129182754Y-101396243D01*
X129209593Y-101478846D01*
X129248444Y-101598414D01*
X129344951Y-101787820D01*
X129469890Y-101959786D01*
X129620213Y-102110109D01*
X129792179Y-102235048D01*
X129792181Y-102235049D01*
X129792184Y-102235051D01*
X129801493Y-102239794D01*
X129852290Y-102287766D01*
X129869087Y-102355587D01*
X129846552Y-102421722D01*
X129801505Y-102460760D01*
X129792446Y-102465376D01*
X129792440Y-102465380D01*
X129738282Y-102504727D01*
X129738282Y-102504728D01*
X130370591Y-103137037D01*
X130307007Y-103154075D01*
X130192993Y-103219901D01*
X130099901Y-103312993D01*
X130034075Y-103427007D01*
X130017037Y-103490591D01*
X129384728Y-102858282D01*
X129384727Y-102858282D01*
X129345380Y-102912439D01*
X129248904Y-103101782D01*
X129183242Y-103303869D01*
X129183242Y-103303872D01*
X129150000Y-103513753D01*
X129150000Y-103726246D01*
X129183242Y-103936127D01*
X129183242Y-103936130D01*
X129248904Y-104138217D01*
X129345375Y-104327550D01*
X129384728Y-104381716D01*
X130017037Y-103749408D01*
X130034075Y-103812993D01*
X130099901Y-103927007D01*
X130192993Y-104020099D01*
X130307007Y-104085925D01*
X130370590Y-104102962D01*
X129738282Y-104735269D01*
X129738282Y-104735270D01*
X129792449Y-104774624D01*
X129981782Y-104871095D01*
X130183870Y-104936757D01*
X130393754Y-104970000D01*
X130606246Y-104970000D01*
X130816127Y-104936757D01*
X130816130Y-104936757D01*
X131018217Y-104871095D01*
X131207554Y-104774622D01*
X131261716Y-104735270D01*
X131261717Y-104735270D01*
X130629408Y-104102962D01*
X130692993Y-104085925D01*
X130807007Y-104020099D01*
X130900099Y-103927007D01*
X130965925Y-103812993D01*
X130982962Y-103749408D01*
X131615270Y-104381717D01*
X131615270Y-104381716D01*
X131654622Y-104327554D01*
X131675462Y-104286654D01*
X133800001Y-104286654D01*
X133810319Y-104387652D01*
X133864546Y-104551300D01*
X133864551Y-104551311D01*
X133955052Y-104698034D01*
X133955055Y-104698038D01*
X134076961Y-104819944D01*
X134076965Y-104819947D01*
X134223688Y-104910448D01*
X134223699Y-104910453D01*
X134387347Y-104964680D01*
X134488351Y-104974999D01*
X134587500Y-104974998D01*
X134587500Y-104250000D01*
X133800001Y-104250000D01*
X133800001Y-104286654D01*
X131675462Y-104286654D01*
X131748993Y-104142343D01*
X131748995Y-104142339D01*
X131751095Y-104138215D01*
X131816757Y-103936130D01*
X131816757Y-103936127D01*
X131850000Y-103726246D01*
X131850000Y-103713345D01*
X133800000Y-103713345D01*
X133800000Y-103750000D01*
X134587500Y-103750000D01*
X134587500Y-103024999D01*
X134488360Y-103025000D01*
X134488344Y-103025001D01*
X134387347Y-103035319D01*
X134223699Y-103089546D01*
X134223688Y-103089551D01*
X134076965Y-103180052D01*
X134076961Y-103180055D01*
X133955055Y-103301961D01*
X133955052Y-103301965D01*
X133864551Y-103448688D01*
X133864546Y-103448699D01*
X133810319Y-103612347D01*
X133800000Y-103713345D01*
X131850000Y-103713345D01*
X131850000Y-103513753D01*
X131816757Y-103303872D01*
X131816757Y-103303869D01*
X131751095Y-103101782D01*
X131654624Y-102912449D01*
X131615270Y-102858282D01*
X131615269Y-102858282D01*
X130982962Y-103490590D01*
X130965925Y-103427007D01*
X130900099Y-103312993D01*
X130807007Y-103219901D01*
X130692993Y-103154075D01*
X130629409Y-103137037D01*
X131261716Y-102504728D01*
X131207547Y-102465373D01*
X131207547Y-102465372D01*
X131198500Y-102460763D01*
X131147706Y-102412788D01*
X131130912Y-102344966D01*
X131153451Y-102278832D01*
X131198508Y-102239793D01*
X131207816Y-102235051D01*
X131309519Y-102161160D01*
X131379786Y-102110109D01*
X131379788Y-102110106D01*
X131379792Y-102110104D01*
X131530104Y-101959792D01*
X131530106Y-101959788D01*
X131530109Y-101959786D01*
X131655048Y-101787820D01*
X131655047Y-101787820D01*
X131655051Y-101787816D01*
X131751557Y-101598412D01*
X131817246Y-101396243D01*
X131850500Y-101186287D01*
X131850500Y-100973713D01*
X131845051Y-100939312D01*
X131854005Y-100870020D01*
X131879840Y-100832236D01*
X134240259Y-98471819D01*
X134267186Y-98457115D01*
X134293005Y-98440523D01*
X134299205Y-98439631D01*
X134301582Y-98438334D01*
X134327940Y-98435500D01*
X134340368Y-98435500D01*
X134407407Y-98455185D01*
X134453162Y-98507989D01*
X134463106Y-98577147D01*
X134454929Y-98606952D01*
X134430264Y-98666498D01*
X134430261Y-98666510D01*
X134399500Y-98821153D01*
X134399500Y-98978846D01*
X134430261Y-99133489D01*
X134430264Y-99133501D01*
X134490602Y-99279172D01*
X134490609Y-99279185D01*
X134578210Y-99410288D01*
X134578213Y-99410292D01*
X134689707Y-99521786D01*
X134689711Y-99521789D01*
X134820814Y-99609390D01*
X134820827Y-99609397D01*
X134966498Y-99669735D01*
X134966503Y-99669737D01*
X135116211Y-99699516D01*
X135121153Y-99700499D01*
X135121156Y-99700500D01*
X135121158Y-99700500D01*
X135227247Y-99700500D01*
X135294286Y-99720185D01*
X135340041Y-99772989D01*
X135349985Y-99842147D01*
X135346324Y-99859094D01*
X135327899Y-99922511D01*
X135327704Y-99924998D01*
X135327705Y-99925000D01*
X136726000Y-99925000D01*
X136793039Y-99944685D01*
X136838794Y-99997489D01*
X136850000Y-100049000D01*
X136850000Y-100301000D01*
X136830315Y-100368039D01*
X136777511Y-100413794D01*
X136726000Y-100425000D01*
X135327705Y-100425000D01*
X135327704Y-100425001D01*
X135327899Y-100427488D01*
X135327900Y-100427494D01*
X135333126Y-100445481D01*
X135332925Y-100515350D01*
X135294982Y-100574019D01*
X135231343Y-100602861D01*
X135189861Y-100601691D01*
X135178844Y-100599500D01*
X135178842Y-100599500D01*
X135021158Y-100599500D01*
X135021155Y-100599500D01*
X134866510Y-100630261D01*
X134866498Y-100630264D01*
X134720827Y-100690602D01*
X134720814Y-100690609D01*
X134589711Y-100778210D01*
X134589707Y-100778213D01*
X134478213Y-100889707D01*
X134478210Y-100889711D01*
X134390609Y-101020814D01*
X134390602Y-101020827D01*
X134330264Y-101166498D01*
X134330261Y-101166510D01*
X134299500Y-101321153D01*
X134299500Y-101478846D01*
X134330261Y-101633489D01*
X134330264Y-101633501D01*
X134390602Y-101779172D01*
X134390609Y-101779185D01*
X134478210Y-101910288D01*
X134478213Y-101910292D01*
X134634707Y-102066786D01*
X134634711Y-102066789D01*
X134765814Y-102154390D01*
X134765818Y-102154392D01*
X134765821Y-102154394D01*
X134911503Y-102214738D01*
X135051563Y-102242597D01*
X135066153Y-102245499D01*
X135066157Y-102245500D01*
X135066158Y-102245500D01*
X135638000Y-102245500D01*
X135705039Y-102265185D01*
X135750794Y-102317989D01*
X135762000Y-102369500D01*
X135762000Y-103059012D01*
X135742315Y-103126051D01*
X135689511Y-103171806D01*
X135620353Y-103181750D01*
X135572903Y-103164551D01*
X135451305Y-103089548D01*
X135451300Y-103089546D01*
X135287652Y-103035319D01*
X135186654Y-103025000D01*
X135087500Y-103025000D01*
X135087500Y-104974999D01*
X135186640Y-104974999D01*
X135186654Y-104974998D01*
X135287652Y-104964680D01*
X135451300Y-104910453D01*
X135451311Y-104910448D01*
X135598035Y-104819947D01*
X135611960Y-104806021D01*
X135673282Y-104772533D01*
X135742973Y-104777514D01*
X135787327Y-104806017D01*
X135801650Y-104820340D01*
X135948484Y-104910908D01*
X136112247Y-104965174D01*
X136213323Y-104975500D01*
X136911676Y-104975499D01*
X136911684Y-104975498D01*
X136911687Y-104975498D01*
X136967030Y-104969844D01*
X137012753Y-104965174D01*
X137176516Y-104910908D01*
X137323350Y-104820340D01*
X137445340Y-104698350D01*
X137535908Y-104551516D01*
X137590174Y-104387753D01*
X137600500Y-104286677D01*
X137600499Y-103713324D01*
X137590174Y-103612247D01*
X137535908Y-103448484D01*
X137445340Y-103301650D01*
X137399319Y-103255629D01*
X137365834Y-103194306D01*
X137363000Y-103167948D01*
X137363000Y-102369500D01*
X137382685Y-102302461D01*
X137435489Y-102256706D01*
X137487000Y-102245500D01*
X137790686Y-102245500D01*
X137790694Y-102245500D01*
X137827569Y-102242598D01*
X137827571Y-102242597D01*
X137827573Y-102242597D01*
X137923459Y-102214739D01*
X137985398Y-102196744D01*
X138126865Y-102113081D01*
X138165737Y-102074209D01*
X138227060Y-102040723D01*
X138296751Y-102045707D01*
X138352685Y-102087577D01*
X138377103Y-102153042D01*
X138377417Y-102161160D01*
X138396322Y-105374771D01*
X138377032Y-105441925D01*
X138324498Y-105487989D01*
X138272324Y-105499500D01*
X128624500Y-105499500D01*
X128557461Y-105479815D01*
X128511706Y-105427011D01*
X128500500Y-105375500D01*
X128500500Y-89624500D01*
X128520185Y-89557461D01*
X128572989Y-89511706D01*
X128624500Y-89500500D01*
X129205046Y-89500500D01*
X129272085Y-89520185D01*
G37*
%TD.AperFunction*%
%TA.AperFunction,Conductor*%
G36*
X138246710Y-89520185D02*
G01*
X138292465Y-89572989D01*
X138303669Y-89623771D01*
X138316360Y-91781444D01*
X138297070Y-91848598D01*
X138244536Y-91894662D01*
X138175437Y-91905013D01*
X138129241Y-91888905D01*
X137985196Y-91803717D01*
X137985193Y-91803716D01*
X137827495Y-91757900D01*
X137827489Y-91757899D01*
X137790649Y-91755000D01*
X137100000Y-91755000D01*
X137100000Y-92431000D01*
X137080315Y-92498039D01*
X137027511Y-92543794D01*
X136976000Y-92555000D01*
X136850000Y-92555000D01*
X136850000Y-92681000D01*
X136830315Y-92748039D01*
X136777511Y-92793794D01*
X136726000Y-92805000D01*
X135327705Y-92805000D01*
X135327704Y-92805001D01*
X135327899Y-92807488D01*
X135327900Y-92807494D01*
X135366660Y-92940905D01*
X135366461Y-93010775D01*
X135328519Y-93069445D01*
X135264880Y-93098288D01*
X135247584Y-93099500D01*
X135121155Y-93099500D01*
X134966510Y-93130261D01*
X134966498Y-93130264D01*
X134820827Y-93190602D01*
X134820814Y-93190609D01*
X134689711Y-93278210D01*
X134689707Y-93278213D01*
X134578213Y-93389707D01*
X134578210Y-93389711D01*
X134490609Y-93520814D01*
X134490604Y-93520824D01*
X134486143Y-93531595D01*
X134442302Y-93585998D01*
X134376007Y-93608063D01*
X134308308Y-93590784D01*
X134283901Y-93571823D01*
X133017076Y-92304998D01*
X135327704Y-92304998D01*
X135327705Y-92305000D01*
X136600000Y-92305000D01*
X136600000Y-91755000D01*
X135909350Y-91755000D01*
X135872510Y-91757899D01*
X135872504Y-91757900D01*
X135714806Y-91803716D01*
X135714803Y-91803717D01*
X135573447Y-91887314D01*
X135573438Y-91887321D01*
X135457321Y-92003438D01*
X135457314Y-92003447D01*
X135373718Y-92144801D01*
X135327899Y-92302513D01*
X135327704Y-92304998D01*
X133017076Y-92304998D01*
X131886818Y-91174740D01*
X131853333Y-91113417D01*
X131850499Y-91087059D01*
X131850499Y-90022129D01*
X131850498Y-90022123D01*
X131850497Y-90022116D01*
X131844091Y-89962517D01*
X131793796Y-89827669D01*
X131793795Y-89827668D01*
X131793793Y-89827664D01*
X131707547Y-89712455D01*
X131707273Y-89712181D01*
X131707087Y-89711840D01*
X131702232Y-89705355D01*
X131703164Y-89704656D01*
X131673788Y-89650858D01*
X131678772Y-89581166D01*
X131720644Y-89525233D01*
X131786108Y-89500816D01*
X131794954Y-89500500D01*
X138179671Y-89500500D01*
X138246710Y-89520185D01*
G37*
%TD.AperFunction*%
%TD*%
%TA.AperFunction,Conductor*%
%TO.N,GND1*%
G36*
X154442539Y-89520185D02*
G01*
X154488294Y-89572989D01*
X154499500Y-89624500D01*
X154499500Y-105375500D01*
X154479815Y-105442539D01*
X154427011Y-105488294D01*
X154375500Y-105499500D01*
X144724000Y-105499500D01*
X144656961Y-105479815D01*
X144611206Y-105427011D01*
X144600000Y-105375500D01*
X144600000Y-102139309D01*
X144619685Y-102072270D01*
X144672489Y-102026515D01*
X144741647Y-102016571D01*
X144805203Y-102045596D01*
X144811681Y-102051628D01*
X144873129Y-102113076D01*
X144873133Y-102113079D01*
X144873135Y-102113081D01*
X145014602Y-102196744D01*
X145056224Y-102208836D01*
X145172426Y-102242597D01*
X145172429Y-102242597D01*
X145172431Y-102242598D01*
X145209306Y-102245500D01*
X145213000Y-102245500D01*
X145280039Y-102265185D01*
X145325794Y-102317989D01*
X145337000Y-102369500D01*
X145337000Y-103267948D01*
X145317315Y-103334987D01*
X145300681Y-103355629D01*
X145254661Y-103401648D01*
X145164093Y-103548481D01*
X145164091Y-103548486D01*
X145140394Y-103619999D01*
X145109826Y-103712247D01*
X145109826Y-103712248D01*
X145109825Y-103712248D01*
X145099500Y-103813315D01*
X145099500Y-104386669D01*
X145099501Y-104386687D01*
X145109825Y-104487752D01*
X145146109Y-104597249D01*
X145164092Y-104651516D01*
X145254660Y-104798350D01*
X145376650Y-104920340D01*
X145523484Y-105010908D01*
X145687247Y-105065174D01*
X145788323Y-105075500D01*
X146486676Y-105075499D01*
X146486684Y-105075498D01*
X146486687Y-105075498D01*
X146542030Y-105069844D01*
X146587753Y-105065174D01*
X146751516Y-105010908D01*
X146898350Y-104920340D01*
X146912671Y-104906018D01*
X146973989Y-104872533D01*
X147043681Y-104877514D01*
X147088034Y-104906017D01*
X147101961Y-104919944D01*
X147101965Y-104919947D01*
X147248688Y-105010448D01*
X147248699Y-105010453D01*
X147412347Y-105064680D01*
X147513351Y-105074999D01*
X148112500Y-105074999D01*
X148211640Y-105074999D01*
X148211654Y-105074998D01*
X148312652Y-105064680D01*
X148476300Y-105010453D01*
X148476311Y-105010448D01*
X148623034Y-104919947D01*
X148623038Y-104919944D01*
X148744944Y-104798038D01*
X148744947Y-104798034D01*
X148835448Y-104651311D01*
X148835453Y-104651299D01*
X148836212Y-104649011D01*
X148836212Y-104649010D01*
X148836213Y-104649007D01*
X148889680Y-104487651D01*
X148899999Y-104386654D01*
X148900000Y-104386641D01*
X148900000Y-104350000D01*
X148112500Y-104350000D01*
X148112500Y-105074999D01*
X147513351Y-105074999D01*
X147612500Y-105074998D01*
X147612500Y-103850000D01*
X148112500Y-103850000D01*
X148899999Y-103850000D01*
X148899999Y-103813360D01*
X148899998Y-103813345D01*
X148889680Y-103712347D01*
X148835451Y-103548696D01*
X148835448Y-103548688D01*
X148744947Y-103401965D01*
X148744944Y-103401961D01*
X148623038Y-103280055D01*
X148623034Y-103280052D01*
X148476311Y-103189551D01*
X148476300Y-103189546D01*
X148312652Y-103135319D01*
X148211654Y-103125000D01*
X148112500Y-103125000D01*
X148112500Y-103850000D01*
X147612500Y-103850000D01*
X147612500Y-103124999D01*
X147513360Y-103125000D01*
X147513344Y-103125001D01*
X147412347Y-103135319D01*
X147248699Y-103189546D01*
X147248694Y-103189548D01*
X147127097Y-103264551D01*
X147059704Y-103282991D01*
X146993041Y-103262068D01*
X146948271Y-103208426D01*
X146938000Y-103159012D01*
X146938000Y-102369500D01*
X146957685Y-102302461D01*
X147010489Y-102256706D01*
X147062000Y-102245500D01*
X147833844Y-102245500D01*
X147833845Y-102245499D01*
X147988497Y-102214737D01*
X148134179Y-102154394D01*
X148265289Y-102066789D01*
X148421789Y-101910289D01*
X148509394Y-101779179D01*
X148569738Y-101633497D01*
X148600500Y-101478842D01*
X148600500Y-101321157D01*
X148569738Y-101166502D01*
X148509394Y-101020821D01*
X148509392Y-101020818D01*
X148509390Y-101020814D01*
X148421789Y-100889709D01*
X148310290Y-100778210D01*
X148179185Y-100690609D01*
X148179175Y-100690604D01*
X148033498Y-100630262D01*
X148033490Y-100630260D01*
X147878847Y-100599500D01*
X147878843Y-100599500D01*
X147787279Y-100599500D01*
X147720240Y-100579815D01*
X147674485Y-100527011D01*
X147664541Y-100457853D01*
X147668203Y-100440905D01*
X147672099Y-100427494D01*
X147672100Y-100427488D01*
X147672295Y-100425001D01*
X147672295Y-100425000D01*
X146274000Y-100425000D01*
X146206961Y-100405315D01*
X146161206Y-100352511D01*
X146150000Y-100301000D01*
X146150000Y-100049000D01*
X146169685Y-99981961D01*
X146222489Y-99936206D01*
X146274000Y-99925000D01*
X147672295Y-99925000D01*
X147672295Y-99924998D01*
X147672100Y-99922511D01*
X147653676Y-99859094D01*
X147653876Y-99789225D01*
X147691819Y-99730555D01*
X147755457Y-99701712D01*
X147772753Y-99700500D01*
X147878844Y-99700500D01*
X147878845Y-99700499D01*
X148033497Y-99669737D01*
X148179179Y-99609394D01*
X148310289Y-99521789D01*
X148421789Y-99410289D01*
X148509394Y-99279179D01*
X148569737Y-99133497D01*
X148600500Y-98978842D01*
X148600500Y-98821158D01*
X148600500Y-98821155D01*
X148600499Y-98821153D01*
X148569737Y-98666503D01*
X148563908Y-98652431D01*
X148545071Y-98606952D01*
X148541563Y-98574327D01*
X148536894Y-98541853D01*
X148537847Y-98539765D01*
X148537602Y-98537482D01*
X148552290Y-98508139D01*
X148565919Y-98478297D01*
X148567850Y-98477055D01*
X148568878Y-98475003D01*
X148597091Y-98458264D01*
X148624697Y-98440523D01*
X148627727Y-98440087D01*
X148628967Y-98439352D01*
X148659632Y-98435500D01*
X148672060Y-98435500D01*
X148739099Y-98455185D01*
X148759741Y-98471819D01*
X151120155Y-100832233D01*
X151153640Y-100893556D01*
X151154948Y-100939310D01*
X151149500Y-100973711D01*
X151149500Y-101186286D01*
X151170860Y-101321152D01*
X151182754Y-101396243D01*
X151209593Y-101478846D01*
X151248444Y-101598414D01*
X151344951Y-101787820D01*
X151469890Y-101959786D01*
X151620213Y-102110109D01*
X151792179Y-102235048D01*
X151792181Y-102235049D01*
X151792184Y-102235051D01*
X151801493Y-102239794D01*
X151852290Y-102287766D01*
X151869087Y-102355587D01*
X151846552Y-102421722D01*
X151801505Y-102460760D01*
X151792446Y-102465376D01*
X151792440Y-102465380D01*
X151738282Y-102504727D01*
X151738282Y-102504728D01*
X152370591Y-103137037D01*
X152307007Y-103154075D01*
X152192993Y-103219901D01*
X152099901Y-103312993D01*
X152034075Y-103427007D01*
X152017037Y-103490591D01*
X151384728Y-102858282D01*
X151384727Y-102858282D01*
X151345380Y-102912439D01*
X151248904Y-103101782D01*
X151183242Y-103303869D01*
X151183242Y-103303872D01*
X151150000Y-103513753D01*
X151150000Y-103726246D01*
X151183242Y-103936127D01*
X151183242Y-103936130D01*
X151248904Y-104138217D01*
X151345375Y-104327550D01*
X151384728Y-104381716D01*
X152017037Y-103749408D01*
X152034075Y-103812993D01*
X152099901Y-103927007D01*
X152192993Y-104020099D01*
X152307007Y-104085925D01*
X152370590Y-104102962D01*
X151738282Y-104735269D01*
X151738282Y-104735270D01*
X151792449Y-104774624D01*
X151981782Y-104871095D01*
X152183870Y-104936757D01*
X152393754Y-104970000D01*
X152606246Y-104970000D01*
X152816127Y-104936757D01*
X152816130Y-104936757D01*
X153018217Y-104871095D01*
X153207554Y-104774622D01*
X153261716Y-104735270D01*
X153261717Y-104735270D01*
X152629408Y-104102962D01*
X152692993Y-104085925D01*
X152807007Y-104020099D01*
X152900099Y-103927007D01*
X152965925Y-103812993D01*
X152982962Y-103749409D01*
X153615270Y-104381717D01*
X153615270Y-104381716D01*
X153654622Y-104327554D01*
X153751095Y-104138217D01*
X153816757Y-103936130D01*
X153816757Y-103936127D01*
X153850000Y-103726246D01*
X153850000Y-103513753D01*
X153816757Y-103303872D01*
X153816757Y-103303869D01*
X153751095Y-103101782D01*
X153654624Y-102912449D01*
X153615270Y-102858282D01*
X153615269Y-102858282D01*
X152982962Y-103490590D01*
X152965925Y-103427007D01*
X152900099Y-103312993D01*
X152807007Y-103219901D01*
X152692993Y-103154075D01*
X152629409Y-103137037D01*
X153261716Y-102504728D01*
X153207547Y-102465373D01*
X153207547Y-102465372D01*
X153198500Y-102460763D01*
X153147706Y-102412788D01*
X153130912Y-102344966D01*
X153153451Y-102278832D01*
X153198508Y-102239793D01*
X153207816Y-102235051D01*
X153287007Y-102177515D01*
X153379786Y-102110109D01*
X153379788Y-102110106D01*
X153379792Y-102110104D01*
X153530104Y-101959792D01*
X153530106Y-101959788D01*
X153530109Y-101959786D01*
X153655048Y-101787820D01*
X153655047Y-101787820D01*
X153655051Y-101787816D01*
X153751557Y-101598412D01*
X153817246Y-101396243D01*
X153850500Y-101186287D01*
X153850500Y-100973713D01*
X153817246Y-100763757D01*
X153751557Y-100561588D01*
X153655051Y-100372184D01*
X153655049Y-100372181D01*
X153655048Y-100372179D01*
X153530109Y-100200213D01*
X153379786Y-100049890D01*
X153207820Y-99924951D01*
X153203031Y-99922511D01*
X153199054Y-99920485D01*
X153148259Y-99872512D01*
X153131463Y-99804692D01*
X153153999Y-99738556D01*
X153199054Y-99699515D01*
X153207816Y-99695051D01*
X153242661Y-99669735D01*
X153379786Y-99570109D01*
X153379788Y-99570106D01*
X153379792Y-99570104D01*
X153530104Y-99419792D01*
X153530106Y-99419788D01*
X153530109Y-99419786D01*
X153655048Y-99247820D01*
X153655047Y-99247820D01*
X153655051Y-99247816D01*
X153751557Y-99058412D01*
X153817246Y-98856243D01*
X153850500Y-98646287D01*
X153850500Y-98433713D01*
X153817246Y-98223757D01*
X153751557Y-98021588D01*
X153655051Y-97832184D01*
X153655049Y-97832181D01*
X153655048Y-97832179D01*
X153530109Y-97660213D01*
X153379786Y-97509890D01*
X153207820Y-97384951D01*
X153202874Y-97382431D01*
X153199054Y-97380485D01*
X153148259Y-97332512D01*
X153131463Y-97264692D01*
X153153999Y-97198556D01*
X153199054Y-97159515D01*
X153207816Y-97155051D01*
X153306801Y-97083135D01*
X153379786Y-97030109D01*
X153379788Y-97030106D01*
X153379792Y-97030104D01*
X153530104Y-96879792D01*
X153530106Y-96879788D01*
X153530109Y-96879786D01*
X153655048Y-96707820D01*
X153655047Y-96707820D01*
X153655051Y-96707816D01*
X153751557Y-96518412D01*
X153817246Y-96316243D01*
X153850500Y-96106287D01*
X153850500Y-95893713D01*
X153817246Y-95683757D01*
X153751557Y-95481588D01*
X153655051Y-95292184D01*
X153655049Y-95292181D01*
X153655048Y-95292179D01*
X153530109Y-95120213D01*
X153379786Y-94969890D01*
X153207820Y-94844951D01*
X153202874Y-94842431D01*
X153199054Y-94840485D01*
X153148259Y-94792512D01*
X153131463Y-94724692D01*
X153153999Y-94658556D01*
X153199054Y-94619515D01*
X153207816Y-94615051D01*
X153306801Y-94543135D01*
X153379786Y-94490109D01*
X153379788Y-94490106D01*
X153379792Y-94490104D01*
X153530104Y-94339792D01*
X153530106Y-94339788D01*
X153530109Y-94339786D01*
X153655048Y-94167820D01*
X153655047Y-94167820D01*
X153655051Y-94167816D01*
X153751557Y-93978412D01*
X153817246Y-93776243D01*
X153850500Y-93566287D01*
X153850500Y-93353713D01*
X153817246Y-93143757D01*
X153751557Y-92941588D01*
X153655051Y-92752184D01*
X153655049Y-92752181D01*
X153655048Y-92752179D01*
X153530109Y-92580213D01*
X153416569Y-92466673D01*
X153383084Y-92405350D01*
X153388068Y-92335658D01*
X153429940Y-92279725D01*
X153460915Y-92262810D01*
X153592331Y-92213796D01*
X153707546Y-92127546D01*
X153793796Y-92012331D01*
X153844091Y-91877483D01*
X153850500Y-91817873D01*
X153850499Y-90022128D01*
X153844091Y-89962517D01*
X153793796Y-89827669D01*
X153793795Y-89827668D01*
X153793793Y-89827664D01*
X153707547Y-89712455D01*
X153707273Y-89712181D01*
X153707087Y-89711840D01*
X153702232Y-89705355D01*
X153703164Y-89704656D01*
X153673788Y-89650858D01*
X153678772Y-89581166D01*
X153720644Y-89525233D01*
X153786108Y-89500816D01*
X153794954Y-89500500D01*
X154375500Y-89500500D01*
X154442539Y-89520185D01*
G37*
%TD.AperFunction*%
%TA.AperFunction,Conductor*%
G36*
X151272085Y-89520185D02*
G01*
X151317840Y-89572989D01*
X151327784Y-89642147D01*
X151298759Y-89705703D01*
X151292727Y-89712181D01*
X151292452Y-89712455D01*
X151206206Y-89827664D01*
X151206202Y-89827671D01*
X151155908Y-89962517D01*
X151149501Y-90022116D01*
X151149501Y-90022123D01*
X151149500Y-90022135D01*
X151149500Y-91087059D01*
X151129815Y-91154098D01*
X151113181Y-91174740D01*
X148745387Y-93542533D01*
X148684064Y-93576018D01*
X148614372Y-93571034D01*
X148558439Y-93529162D01*
X148543148Y-93502311D01*
X148509394Y-93420821D01*
X148509392Y-93420818D01*
X148509390Y-93420814D01*
X148421789Y-93289711D01*
X148421786Y-93289707D01*
X148310292Y-93178213D01*
X148310288Y-93178210D01*
X148179185Y-93090609D01*
X148179172Y-93090602D01*
X148033501Y-93030264D01*
X148033489Y-93030261D01*
X147878845Y-92999500D01*
X147878842Y-92999500D01*
X147781469Y-92999500D01*
X147714430Y-92979815D01*
X147668675Y-92927011D01*
X147658731Y-92857853D01*
X147662392Y-92840907D01*
X147672099Y-92807491D01*
X147672100Y-92807488D01*
X147672295Y-92805001D01*
X147672295Y-92805000D01*
X146274000Y-92805000D01*
X146206961Y-92785315D01*
X146161206Y-92732511D01*
X146150000Y-92681000D01*
X146150000Y-92555000D01*
X146024000Y-92555000D01*
X145956961Y-92535315D01*
X145911206Y-92482511D01*
X145900000Y-92431000D01*
X145900000Y-92305000D01*
X146400000Y-92305000D01*
X147672295Y-92305000D01*
X147672295Y-92304998D01*
X147672100Y-92302513D01*
X147626281Y-92144801D01*
X147542685Y-92003447D01*
X147542678Y-92003438D01*
X147426561Y-91887321D01*
X147426552Y-91887314D01*
X147285196Y-91803717D01*
X147285193Y-91803716D01*
X147127495Y-91757900D01*
X147127489Y-91757899D01*
X147090649Y-91755000D01*
X146400000Y-91755000D01*
X146400000Y-92305000D01*
X145900000Y-92305000D01*
X145900000Y-91755000D01*
X145209350Y-91755000D01*
X145172510Y-91757899D01*
X145172504Y-91757900D01*
X145014806Y-91803716D01*
X145014803Y-91803717D01*
X144873447Y-91887314D01*
X144873438Y-91887321D01*
X144811681Y-91949079D01*
X144750358Y-91982564D01*
X144680666Y-91977580D01*
X144624733Y-91935708D01*
X144600316Y-91870244D01*
X144600000Y-91861398D01*
X144600000Y-89624500D01*
X144619685Y-89557461D01*
X144672489Y-89511706D01*
X144724000Y-89500500D01*
X151205046Y-89500500D01*
X151272085Y-89520185D01*
G37*
%TD.AperFunction*%
%TD*%
M02*
