%TF.GenerationSoftware,KiCad,Pcbnew,9.0.5*%
%TF.CreationDate,2026-03-26T21:29:07+09:00*%
%TF.ProjectId,usb_typec_serial_insulation_adum1412,7573625f-7479-4706-9563-5f7365726961,V3.1*%
%TF.SameCoordinates,Original*%
%TF.FileFunction,Legend,Top*%
%TF.FilePolarity,Positive*%
%FSLAX46Y46*%
G04 Gerber Fmt 4.6, Leading zero omitted, Abs format (unit mm)*
G04 Created by KiCad (PCBNEW 9.0.5) date 2026-03-26 21:29:07*
%MOMM*%
%LPD*%
G01*
G04 APERTURE LIST*
%ADD10C,0.075000*%
%ADD11C,0.150000*%
%ADD12C,0.120000*%
G04 APERTURE END LIST*
D10*
X132506484Y-98322671D02*
X132706484Y-98922671D01*
X132706484Y-98922671D02*
X132906484Y-98322671D01*
X133449342Y-98865528D02*
X133420770Y-98894100D01*
X133420770Y-98894100D02*
X133335056Y-98922671D01*
X133335056Y-98922671D02*
X133277913Y-98922671D01*
X133277913Y-98922671D02*
X133192199Y-98894100D01*
X133192199Y-98894100D02*
X133135056Y-98836957D01*
X133135056Y-98836957D02*
X133106485Y-98779814D01*
X133106485Y-98779814D02*
X133077913Y-98665528D01*
X133077913Y-98665528D02*
X133077913Y-98579814D01*
X133077913Y-98579814D02*
X133106485Y-98465528D01*
X133106485Y-98465528D02*
X133135056Y-98408385D01*
X133135056Y-98408385D02*
X133192199Y-98351242D01*
X133192199Y-98351242D02*
X133277913Y-98322671D01*
X133277913Y-98322671D02*
X133335056Y-98322671D01*
X133335056Y-98322671D02*
X133420770Y-98351242D01*
X133420770Y-98351242D02*
X133449342Y-98379814D01*
X134049342Y-98865528D02*
X134020770Y-98894100D01*
X134020770Y-98894100D02*
X133935056Y-98922671D01*
X133935056Y-98922671D02*
X133877913Y-98922671D01*
X133877913Y-98922671D02*
X133792199Y-98894100D01*
X133792199Y-98894100D02*
X133735056Y-98836957D01*
X133735056Y-98836957D02*
X133706485Y-98779814D01*
X133706485Y-98779814D02*
X133677913Y-98665528D01*
X133677913Y-98665528D02*
X133677913Y-98579814D01*
X133677913Y-98579814D02*
X133706485Y-98465528D01*
X133706485Y-98465528D02*
X133735056Y-98408385D01*
X133735056Y-98408385D02*
X133792199Y-98351242D01*
X133792199Y-98351242D02*
X133877913Y-98322671D01*
X133877913Y-98322671D02*
X133935056Y-98322671D01*
X133935056Y-98322671D02*
X134020770Y-98351242D01*
X134020770Y-98351242D02*
X134049342Y-98379814D01*
X134277913Y-98379814D02*
X134306485Y-98351242D01*
X134306485Y-98351242D02*
X134363628Y-98322671D01*
X134363628Y-98322671D02*
X134506485Y-98322671D01*
X134506485Y-98322671D02*
X134563628Y-98351242D01*
X134563628Y-98351242D02*
X134592199Y-98379814D01*
X134592199Y-98379814D02*
X134620770Y-98436957D01*
X134620770Y-98436957D02*
X134620770Y-98494100D01*
X134620770Y-98494100D02*
X134592199Y-98579814D01*
X134592199Y-98579814D02*
X134249342Y-98922671D01*
X134249342Y-98922671D02*
X134620770Y-98922671D01*
X132706484Y-102551242D02*
X132649342Y-102522671D01*
X132649342Y-102522671D02*
X132563627Y-102522671D01*
X132563627Y-102522671D02*
X132477913Y-102551242D01*
X132477913Y-102551242D02*
X132420770Y-102608385D01*
X132420770Y-102608385D02*
X132392199Y-102665528D01*
X132392199Y-102665528D02*
X132363627Y-102779814D01*
X132363627Y-102779814D02*
X132363627Y-102865528D01*
X132363627Y-102865528D02*
X132392199Y-102979814D01*
X132392199Y-102979814D02*
X132420770Y-103036957D01*
X132420770Y-103036957D02*
X132477913Y-103094100D01*
X132477913Y-103094100D02*
X132563627Y-103122671D01*
X132563627Y-103122671D02*
X132620770Y-103122671D01*
X132620770Y-103122671D02*
X132706484Y-103094100D01*
X132706484Y-103094100D02*
X132735056Y-103065528D01*
X132735056Y-103065528D02*
X132735056Y-102865528D01*
X132735056Y-102865528D02*
X132620770Y-102865528D01*
X132992199Y-103122671D02*
X132992199Y-102522671D01*
X132992199Y-102522671D02*
X133335056Y-103122671D01*
X133335056Y-103122671D02*
X133335056Y-102522671D01*
X133620770Y-103122671D02*
X133620770Y-102522671D01*
X133620770Y-102522671D02*
X133763627Y-102522671D01*
X133763627Y-102522671D02*
X133849341Y-102551242D01*
X133849341Y-102551242D02*
X133906484Y-102608385D01*
X133906484Y-102608385D02*
X133935055Y-102665528D01*
X133935055Y-102665528D02*
X133963627Y-102779814D01*
X133963627Y-102779814D02*
X133963627Y-102865528D01*
X133963627Y-102865528D02*
X133935055Y-102979814D01*
X133935055Y-102979814D02*
X133906484Y-103036957D01*
X133906484Y-103036957D02*
X133849341Y-103094100D01*
X133849341Y-103094100D02*
X133763627Y-103122671D01*
X133763627Y-103122671D02*
X133620770Y-103122671D01*
X134192198Y-102579814D02*
X134220770Y-102551242D01*
X134220770Y-102551242D02*
X134277913Y-102522671D01*
X134277913Y-102522671D02*
X134420770Y-102522671D01*
X134420770Y-102522671D02*
X134477913Y-102551242D01*
X134477913Y-102551242D02*
X134506484Y-102579814D01*
X134506484Y-102579814D02*
X134535055Y-102636957D01*
X134535055Y-102636957D02*
X134535055Y-102694100D01*
X134535055Y-102694100D02*
X134506484Y-102779814D01*
X134506484Y-102779814D02*
X134163627Y-103122671D01*
X134163627Y-103122671D02*
X134535055Y-103122671D01*
X133049342Y-92290739D02*
X132592199Y-92462168D01*
X132592199Y-92462168D02*
X133049342Y-92633596D01*
X133335056Y-92462168D02*
X133792199Y-92462168D01*
X132935056Y-93656705D02*
X132735056Y-93370991D01*
X132592199Y-93656705D02*
X132592199Y-93056705D01*
X132592199Y-93056705D02*
X132820770Y-93056705D01*
X132820770Y-93056705D02*
X132877913Y-93085276D01*
X132877913Y-93085276D02*
X132906484Y-93113848D01*
X132906484Y-93113848D02*
X132935056Y-93170991D01*
X132935056Y-93170991D02*
X132935056Y-93256705D01*
X132935056Y-93256705D02*
X132906484Y-93313848D01*
X132906484Y-93313848D02*
X132877913Y-93342419D01*
X132877913Y-93342419D02*
X132820770Y-93370991D01*
X132820770Y-93370991D02*
X132592199Y-93370991D01*
X133135056Y-93056705D02*
X133535056Y-93656705D01*
X133535056Y-93056705D02*
X133135056Y-93656705D01*
X133735056Y-93113848D02*
X133763628Y-93085276D01*
X133763628Y-93085276D02*
X133820771Y-93056705D01*
X133820771Y-93056705D02*
X133963628Y-93056705D01*
X133963628Y-93056705D02*
X134020771Y-93085276D01*
X134020771Y-93085276D02*
X134049342Y-93113848D01*
X134049342Y-93113848D02*
X134077913Y-93170991D01*
X134077913Y-93170991D02*
X134077913Y-93228134D01*
X134077913Y-93228134D02*
X134049342Y-93313848D01*
X134049342Y-93313848D02*
X133706485Y-93656705D01*
X133706485Y-93656705D02*
X134077913Y-93656705D01*
X132506484Y-94022671D02*
X132706484Y-94622671D01*
X132706484Y-94622671D02*
X132906484Y-94022671D01*
X133220770Y-94022671D02*
X133335056Y-94022671D01*
X133335056Y-94022671D02*
X133392199Y-94051242D01*
X133392199Y-94051242D02*
X133449342Y-94108385D01*
X133449342Y-94108385D02*
X133477913Y-94222671D01*
X133477913Y-94222671D02*
X133477913Y-94422671D01*
X133477913Y-94422671D02*
X133449342Y-94536957D01*
X133449342Y-94536957D02*
X133392199Y-94594100D01*
X133392199Y-94594100D02*
X133335056Y-94622671D01*
X133335056Y-94622671D02*
X133220770Y-94622671D01*
X133220770Y-94622671D02*
X133163628Y-94594100D01*
X133163628Y-94594100D02*
X133106485Y-94536957D01*
X133106485Y-94536957D02*
X133077913Y-94422671D01*
X133077913Y-94422671D02*
X133077913Y-94222671D01*
X133077913Y-94222671D02*
X133106485Y-94108385D01*
X133106485Y-94108385D02*
X133163628Y-94051242D01*
X133163628Y-94051242D02*
X133220770Y-94022671D01*
X133706484Y-94451242D02*
X133992199Y-94451242D01*
X133649341Y-94622671D02*
X133849341Y-94022671D01*
X133849341Y-94022671D02*
X134049341Y-94622671D01*
X132592199Y-95162168D02*
X133049342Y-95162168D01*
X133335056Y-94990739D02*
X133792199Y-95162168D01*
X133792199Y-95162168D02*
X133335056Y-95333596D01*
X132506484Y-95756705D02*
X132849342Y-95756705D01*
X132677913Y-96356705D02*
X132677913Y-95756705D01*
X132992199Y-95756705D02*
X133392199Y-96356705D01*
X133392199Y-95756705D02*
X132992199Y-96356705D01*
X133592199Y-95813848D02*
X133620771Y-95785276D01*
X133620771Y-95785276D02*
X133677914Y-95756705D01*
X133677914Y-95756705D02*
X133820771Y-95756705D01*
X133820771Y-95756705D02*
X133877914Y-95785276D01*
X133877914Y-95785276D02*
X133906485Y-95813848D01*
X133906485Y-95813848D02*
X133935056Y-95870991D01*
X133935056Y-95870991D02*
X133935056Y-95928134D01*
X133935056Y-95928134D02*
X133906485Y-96013848D01*
X133906485Y-96013848D02*
X133563628Y-96356705D01*
X133563628Y-96356705D02*
X133935056Y-96356705D01*
X132506484Y-96722671D02*
X132706484Y-97322671D01*
X132706484Y-97322671D02*
X132906484Y-96722671D01*
X133106485Y-97322671D02*
X133106485Y-96722671D01*
X133735056Y-97265528D02*
X133706484Y-97294100D01*
X133706484Y-97294100D02*
X133620770Y-97322671D01*
X133620770Y-97322671D02*
X133563627Y-97322671D01*
X133563627Y-97322671D02*
X133477913Y-97294100D01*
X133477913Y-97294100D02*
X133420770Y-97236957D01*
X133420770Y-97236957D02*
X133392199Y-97179814D01*
X133392199Y-97179814D02*
X133363627Y-97065528D01*
X133363627Y-97065528D02*
X133363627Y-96979814D01*
X133363627Y-96979814D02*
X133392199Y-96865528D01*
X133392199Y-96865528D02*
X133420770Y-96808385D01*
X133420770Y-96808385D02*
X133477913Y-96751242D01*
X133477913Y-96751242D02*
X133563627Y-96722671D01*
X133563627Y-96722671D02*
X133620770Y-96722671D01*
X133620770Y-96722671D02*
X133706484Y-96751242D01*
X133706484Y-96751242D02*
X133735056Y-96779814D01*
X149106484Y-103551242D02*
X149049342Y-103522671D01*
X149049342Y-103522671D02*
X148963627Y-103522671D01*
X148963627Y-103522671D02*
X148877913Y-103551242D01*
X148877913Y-103551242D02*
X148820770Y-103608385D01*
X148820770Y-103608385D02*
X148792199Y-103665528D01*
X148792199Y-103665528D02*
X148763627Y-103779814D01*
X148763627Y-103779814D02*
X148763627Y-103865528D01*
X148763627Y-103865528D02*
X148792199Y-103979814D01*
X148792199Y-103979814D02*
X148820770Y-104036957D01*
X148820770Y-104036957D02*
X148877913Y-104094100D01*
X148877913Y-104094100D02*
X148963627Y-104122671D01*
X148963627Y-104122671D02*
X149020770Y-104122671D01*
X149020770Y-104122671D02*
X149106484Y-104094100D01*
X149106484Y-104094100D02*
X149135056Y-104065528D01*
X149135056Y-104065528D02*
X149135056Y-103865528D01*
X149135056Y-103865528D02*
X149020770Y-103865528D01*
X149392199Y-104122671D02*
X149392199Y-103522671D01*
X149392199Y-103522671D02*
X149735056Y-104122671D01*
X149735056Y-104122671D02*
X149735056Y-103522671D01*
X150020770Y-104122671D02*
X150020770Y-103522671D01*
X150020770Y-103522671D02*
X150163627Y-103522671D01*
X150163627Y-103522671D02*
X150249341Y-103551242D01*
X150249341Y-103551242D02*
X150306484Y-103608385D01*
X150306484Y-103608385D02*
X150335055Y-103665528D01*
X150335055Y-103665528D02*
X150363627Y-103779814D01*
X150363627Y-103779814D02*
X150363627Y-103865528D01*
X150363627Y-103865528D02*
X150335055Y-103979814D01*
X150335055Y-103979814D02*
X150306484Y-104036957D01*
X150306484Y-104036957D02*
X150249341Y-104094100D01*
X150249341Y-104094100D02*
X150163627Y-104122671D01*
X150163627Y-104122671D02*
X150020770Y-104122671D01*
X150935055Y-104122671D02*
X150592198Y-104122671D01*
X150763627Y-104122671D02*
X150763627Y-103522671D01*
X150763627Y-103522671D02*
X150706484Y-103608385D01*
X150706484Y-103608385D02*
X150649341Y-103665528D01*
X150649341Y-103665528D02*
X150592198Y-103694100D01*
X148506484Y-98422671D02*
X148706484Y-99022671D01*
X148706484Y-99022671D02*
X148906484Y-98422671D01*
X149449342Y-98965528D02*
X149420770Y-98994100D01*
X149420770Y-98994100D02*
X149335056Y-99022671D01*
X149335056Y-99022671D02*
X149277913Y-99022671D01*
X149277913Y-99022671D02*
X149192199Y-98994100D01*
X149192199Y-98994100D02*
X149135056Y-98936957D01*
X149135056Y-98936957D02*
X149106485Y-98879814D01*
X149106485Y-98879814D02*
X149077913Y-98765528D01*
X149077913Y-98765528D02*
X149077913Y-98679814D01*
X149077913Y-98679814D02*
X149106485Y-98565528D01*
X149106485Y-98565528D02*
X149135056Y-98508385D01*
X149135056Y-98508385D02*
X149192199Y-98451242D01*
X149192199Y-98451242D02*
X149277913Y-98422671D01*
X149277913Y-98422671D02*
X149335056Y-98422671D01*
X149335056Y-98422671D02*
X149420770Y-98451242D01*
X149420770Y-98451242D02*
X149449342Y-98479814D01*
X150049342Y-98965528D02*
X150020770Y-98994100D01*
X150020770Y-98994100D02*
X149935056Y-99022671D01*
X149935056Y-99022671D02*
X149877913Y-99022671D01*
X149877913Y-99022671D02*
X149792199Y-98994100D01*
X149792199Y-98994100D02*
X149735056Y-98936957D01*
X149735056Y-98936957D02*
X149706485Y-98879814D01*
X149706485Y-98879814D02*
X149677913Y-98765528D01*
X149677913Y-98765528D02*
X149677913Y-98679814D01*
X149677913Y-98679814D02*
X149706485Y-98565528D01*
X149706485Y-98565528D02*
X149735056Y-98508385D01*
X149735056Y-98508385D02*
X149792199Y-98451242D01*
X149792199Y-98451242D02*
X149877913Y-98422671D01*
X149877913Y-98422671D02*
X149935056Y-98422671D01*
X149935056Y-98422671D02*
X150020770Y-98451242D01*
X150020770Y-98451242D02*
X150049342Y-98479814D01*
X150620770Y-99022671D02*
X150277913Y-99022671D01*
X150449342Y-99022671D02*
X150449342Y-98422671D01*
X150449342Y-98422671D02*
X150392199Y-98508385D01*
X150392199Y-98508385D02*
X150335056Y-98565528D01*
X150335056Y-98565528D02*
X150277913Y-98594100D01*
X149649342Y-95290739D02*
X149192199Y-95462168D01*
X149192199Y-95462168D02*
X149649342Y-95633596D01*
X149935056Y-95462168D02*
X150392199Y-95462168D01*
X149106484Y-96056705D02*
X149449342Y-96056705D01*
X149277913Y-96656705D02*
X149277913Y-96056705D01*
X149592199Y-96056705D02*
X149992199Y-96656705D01*
X149992199Y-96056705D02*
X149592199Y-96656705D01*
X150535056Y-96656705D02*
X150192199Y-96656705D01*
X150363628Y-96656705D02*
X150363628Y-96056705D01*
X150363628Y-96056705D02*
X150306485Y-96142419D01*
X150306485Y-96142419D02*
X150249342Y-96199562D01*
X150249342Y-96199562D02*
X150192199Y-96228134D01*
X149106484Y-97022671D02*
X149306484Y-97622671D01*
X149306484Y-97622671D02*
X149506484Y-97022671D01*
X149706485Y-97622671D02*
X149706485Y-97022671D01*
X149963627Y-97451242D02*
X150249342Y-97451242D01*
X149906484Y-97622671D02*
X150106484Y-97022671D01*
X150106484Y-97022671D02*
X150306484Y-97622671D01*
X132592199Y-89662168D02*
X133049342Y-89662168D01*
X133335056Y-89490739D02*
X133792199Y-89662168D01*
X133792199Y-89662168D02*
X133335056Y-89833596D01*
X132935056Y-90856705D02*
X132735056Y-90570991D01*
X132592199Y-90856705D02*
X132592199Y-90256705D01*
X132592199Y-90256705D02*
X132820770Y-90256705D01*
X132820770Y-90256705D02*
X132877913Y-90285276D01*
X132877913Y-90285276D02*
X132906484Y-90313848D01*
X132906484Y-90313848D02*
X132935056Y-90370991D01*
X132935056Y-90370991D02*
X132935056Y-90456705D01*
X132935056Y-90456705D02*
X132906484Y-90513848D01*
X132906484Y-90513848D02*
X132877913Y-90542419D01*
X132877913Y-90542419D02*
X132820770Y-90570991D01*
X132820770Y-90570991D02*
X132592199Y-90570991D01*
X133106484Y-90256705D02*
X133449342Y-90256705D01*
X133277913Y-90856705D02*
X133277913Y-90256705D01*
X133620770Y-90828134D02*
X133706485Y-90856705D01*
X133706485Y-90856705D02*
X133849342Y-90856705D01*
X133849342Y-90856705D02*
X133906485Y-90828134D01*
X133906485Y-90828134D02*
X133935056Y-90799562D01*
X133935056Y-90799562D02*
X133963627Y-90742419D01*
X133963627Y-90742419D02*
X133963627Y-90685276D01*
X133963627Y-90685276D02*
X133935056Y-90628134D01*
X133935056Y-90628134D02*
X133906485Y-90599562D01*
X133906485Y-90599562D02*
X133849342Y-90570991D01*
X133849342Y-90570991D02*
X133735056Y-90542419D01*
X133735056Y-90542419D02*
X133677913Y-90513848D01*
X133677913Y-90513848D02*
X133649342Y-90485276D01*
X133649342Y-90485276D02*
X133620770Y-90428134D01*
X133620770Y-90428134D02*
X133620770Y-90370991D01*
X133620770Y-90370991D02*
X133649342Y-90313848D01*
X133649342Y-90313848D02*
X133677913Y-90285276D01*
X133677913Y-90285276D02*
X133735056Y-90256705D01*
X133735056Y-90256705D02*
X133877913Y-90256705D01*
X133877913Y-90256705D02*
X133963627Y-90285276D01*
X132506484Y-91222671D02*
X132706484Y-91822671D01*
X132706484Y-91822671D02*
X132906484Y-91222671D01*
X133106485Y-91822671D02*
X133106485Y-91222671D01*
X133392199Y-91822671D02*
X133392199Y-91222671D01*
X133392199Y-91222671D02*
X133535056Y-91222671D01*
X133535056Y-91222671D02*
X133620770Y-91251242D01*
X133620770Y-91251242D02*
X133677913Y-91308385D01*
X133677913Y-91308385D02*
X133706484Y-91365528D01*
X133706484Y-91365528D02*
X133735056Y-91479814D01*
X133735056Y-91479814D02*
X133735056Y-91565528D01*
X133735056Y-91565528D02*
X133706484Y-91679814D01*
X133706484Y-91679814D02*
X133677913Y-91736957D01*
X133677913Y-91736957D02*
X133620770Y-91794100D01*
X133620770Y-91794100D02*
X133535056Y-91822671D01*
X133535056Y-91822671D02*
X133392199Y-91822671D01*
X149092199Y-92662168D02*
X149549342Y-92662168D01*
X149835056Y-92490739D02*
X150292199Y-92662168D01*
X150292199Y-92662168D02*
X149835056Y-92833596D01*
X149435056Y-93856705D02*
X149235056Y-93570991D01*
X149092199Y-93856705D02*
X149092199Y-93256705D01*
X149092199Y-93256705D02*
X149320770Y-93256705D01*
X149320770Y-93256705D02*
X149377913Y-93285276D01*
X149377913Y-93285276D02*
X149406484Y-93313848D01*
X149406484Y-93313848D02*
X149435056Y-93370991D01*
X149435056Y-93370991D02*
X149435056Y-93456705D01*
X149435056Y-93456705D02*
X149406484Y-93513848D01*
X149406484Y-93513848D02*
X149377913Y-93542419D01*
X149377913Y-93542419D02*
X149320770Y-93570991D01*
X149320770Y-93570991D02*
X149092199Y-93570991D01*
X149635056Y-93256705D02*
X150035056Y-93856705D01*
X150035056Y-93256705D02*
X149635056Y-93856705D01*
X150577913Y-93856705D02*
X150235056Y-93856705D01*
X150406485Y-93856705D02*
X150406485Y-93256705D01*
X150406485Y-93256705D02*
X150349342Y-93342419D01*
X150349342Y-93342419D02*
X150292199Y-93399562D01*
X150292199Y-93399562D02*
X150235056Y-93428134D01*
X149006484Y-94222671D02*
X149206484Y-94822671D01*
X149206484Y-94822671D02*
X149406484Y-94222671D01*
X149720770Y-94222671D02*
X149835056Y-94222671D01*
X149835056Y-94222671D02*
X149892199Y-94251242D01*
X149892199Y-94251242D02*
X149949342Y-94308385D01*
X149949342Y-94308385D02*
X149977913Y-94422671D01*
X149977913Y-94422671D02*
X149977913Y-94622671D01*
X149977913Y-94622671D02*
X149949342Y-94736957D01*
X149949342Y-94736957D02*
X149892199Y-94794100D01*
X149892199Y-94794100D02*
X149835056Y-94822671D01*
X149835056Y-94822671D02*
X149720770Y-94822671D01*
X149720770Y-94822671D02*
X149663628Y-94794100D01*
X149663628Y-94794100D02*
X149606485Y-94736957D01*
X149606485Y-94736957D02*
X149577913Y-94622671D01*
X149577913Y-94622671D02*
X149577913Y-94422671D01*
X149577913Y-94422671D02*
X149606485Y-94308385D01*
X149606485Y-94308385D02*
X149663628Y-94251242D01*
X149663628Y-94251242D02*
X149720770Y-94222671D01*
X150577913Y-94765528D02*
X150549341Y-94794100D01*
X150549341Y-94794100D02*
X150463627Y-94822671D01*
X150463627Y-94822671D02*
X150406484Y-94822671D01*
X150406484Y-94822671D02*
X150320770Y-94794100D01*
X150320770Y-94794100D02*
X150263627Y-94736957D01*
X150263627Y-94736957D02*
X150235056Y-94679814D01*
X150235056Y-94679814D02*
X150206484Y-94565528D01*
X150206484Y-94565528D02*
X150206484Y-94479814D01*
X150206484Y-94479814D02*
X150235056Y-94365528D01*
X150235056Y-94365528D02*
X150263627Y-94308385D01*
X150263627Y-94308385D02*
X150320770Y-94251242D01*
X150320770Y-94251242D02*
X150406484Y-94222671D01*
X150406484Y-94222671D02*
X150463627Y-94222671D01*
X150463627Y-94222671D02*
X150549341Y-94251242D01*
X150549341Y-94251242D02*
X150577913Y-94279814D01*
X133049342Y-99690739D02*
X132592199Y-99862168D01*
X132592199Y-99862168D02*
X133049342Y-100033596D01*
X133335056Y-99862168D02*
X133792199Y-99862168D01*
X132935056Y-100999562D02*
X132906484Y-101028134D01*
X132906484Y-101028134D02*
X132820770Y-101056705D01*
X132820770Y-101056705D02*
X132763627Y-101056705D01*
X132763627Y-101056705D02*
X132677913Y-101028134D01*
X132677913Y-101028134D02*
X132620770Y-100970991D01*
X132620770Y-100970991D02*
X132592199Y-100913848D01*
X132592199Y-100913848D02*
X132563627Y-100799562D01*
X132563627Y-100799562D02*
X132563627Y-100713848D01*
X132563627Y-100713848D02*
X132592199Y-100599562D01*
X132592199Y-100599562D02*
X132620770Y-100542419D01*
X132620770Y-100542419D02*
X132677913Y-100485276D01*
X132677913Y-100485276D02*
X132763627Y-100456705D01*
X132763627Y-100456705D02*
X132820770Y-100456705D01*
X132820770Y-100456705D02*
X132906484Y-100485276D01*
X132906484Y-100485276D02*
X132935056Y-100513848D01*
X133106484Y-100456705D02*
X133449342Y-100456705D01*
X133277913Y-101056705D02*
X133277913Y-100456705D01*
X133620770Y-101028134D02*
X133706485Y-101056705D01*
X133706485Y-101056705D02*
X133849342Y-101056705D01*
X133849342Y-101056705D02*
X133906485Y-101028134D01*
X133906485Y-101028134D02*
X133935056Y-100999562D01*
X133935056Y-100999562D02*
X133963627Y-100942419D01*
X133963627Y-100942419D02*
X133963627Y-100885276D01*
X133963627Y-100885276D02*
X133935056Y-100828134D01*
X133935056Y-100828134D02*
X133906485Y-100799562D01*
X133906485Y-100799562D02*
X133849342Y-100770991D01*
X133849342Y-100770991D02*
X133735056Y-100742419D01*
X133735056Y-100742419D02*
X133677913Y-100713848D01*
X133677913Y-100713848D02*
X133649342Y-100685276D01*
X133649342Y-100685276D02*
X133620770Y-100628134D01*
X133620770Y-100628134D02*
X133620770Y-100570991D01*
X133620770Y-100570991D02*
X133649342Y-100513848D01*
X133649342Y-100513848D02*
X133677913Y-100485276D01*
X133677913Y-100485276D02*
X133735056Y-100456705D01*
X133735056Y-100456705D02*
X133877913Y-100456705D01*
X133877913Y-100456705D02*
X133963627Y-100485276D01*
X132506484Y-101422671D02*
X132706484Y-102022671D01*
X132706484Y-102022671D02*
X132906484Y-101422671D01*
X133220770Y-101422671D02*
X133335056Y-101422671D01*
X133335056Y-101422671D02*
X133392199Y-101451242D01*
X133392199Y-101451242D02*
X133449342Y-101508385D01*
X133449342Y-101508385D02*
X133477913Y-101622671D01*
X133477913Y-101622671D02*
X133477913Y-101822671D01*
X133477913Y-101822671D02*
X133449342Y-101936957D01*
X133449342Y-101936957D02*
X133392199Y-101994100D01*
X133392199Y-101994100D02*
X133335056Y-102022671D01*
X133335056Y-102022671D02*
X133220770Y-102022671D01*
X133220770Y-102022671D02*
X133163628Y-101994100D01*
X133163628Y-101994100D02*
X133106485Y-101936957D01*
X133106485Y-101936957D02*
X133077913Y-101822671D01*
X133077913Y-101822671D02*
X133077913Y-101622671D01*
X133077913Y-101622671D02*
X133106485Y-101508385D01*
X133106485Y-101508385D02*
X133163628Y-101451242D01*
X133163628Y-101451242D02*
X133220770Y-101422671D01*
X133935056Y-101708385D02*
X134020770Y-101736957D01*
X134020770Y-101736957D02*
X134049341Y-101765528D01*
X134049341Y-101765528D02*
X134077913Y-101822671D01*
X134077913Y-101822671D02*
X134077913Y-101908385D01*
X134077913Y-101908385D02*
X134049341Y-101965528D01*
X134049341Y-101965528D02*
X134020770Y-101994100D01*
X134020770Y-101994100D02*
X133963627Y-102022671D01*
X133963627Y-102022671D02*
X133735056Y-102022671D01*
X133735056Y-102022671D02*
X133735056Y-101422671D01*
X133735056Y-101422671D02*
X133935056Y-101422671D01*
X133935056Y-101422671D02*
X133992199Y-101451242D01*
X133992199Y-101451242D02*
X134020770Y-101479814D01*
X134020770Y-101479814D02*
X134049341Y-101536957D01*
X134049341Y-101536957D02*
X134049341Y-101594100D01*
X134049341Y-101594100D02*
X134020770Y-101651242D01*
X134020770Y-101651242D02*
X133992199Y-101679814D01*
X133992199Y-101679814D02*
X133935056Y-101708385D01*
X133935056Y-101708385D02*
X133735056Y-101708385D01*
X149649342Y-89590739D02*
X149192199Y-89762168D01*
X149192199Y-89762168D02*
X149649342Y-89933596D01*
X149935056Y-89762168D02*
X150392199Y-89762168D01*
X149535056Y-90956705D02*
X149335056Y-90670991D01*
X149192199Y-90956705D02*
X149192199Y-90356705D01*
X149192199Y-90356705D02*
X149420770Y-90356705D01*
X149420770Y-90356705D02*
X149477913Y-90385276D01*
X149477913Y-90385276D02*
X149506484Y-90413848D01*
X149506484Y-90413848D02*
X149535056Y-90470991D01*
X149535056Y-90470991D02*
X149535056Y-90556705D01*
X149535056Y-90556705D02*
X149506484Y-90613848D01*
X149506484Y-90613848D02*
X149477913Y-90642419D01*
X149477913Y-90642419D02*
X149420770Y-90670991D01*
X149420770Y-90670991D02*
X149192199Y-90670991D01*
X149706484Y-90356705D02*
X150049342Y-90356705D01*
X149877913Y-90956705D02*
X149877913Y-90356705D01*
X150220770Y-90928134D02*
X150306485Y-90956705D01*
X150306485Y-90956705D02*
X150449342Y-90956705D01*
X150449342Y-90956705D02*
X150506485Y-90928134D01*
X150506485Y-90928134D02*
X150535056Y-90899562D01*
X150535056Y-90899562D02*
X150563627Y-90842419D01*
X150563627Y-90842419D02*
X150563627Y-90785276D01*
X150563627Y-90785276D02*
X150535056Y-90728134D01*
X150535056Y-90728134D02*
X150506485Y-90699562D01*
X150506485Y-90699562D02*
X150449342Y-90670991D01*
X150449342Y-90670991D02*
X150335056Y-90642419D01*
X150335056Y-90642419D02*
X150277913Y-90613848D01*
X150277913Y-90613848D02*
X150249342Y-90585276D01*
X150249342Y-90585276D02*
X150220770Y-90528134D01*
X150220770Y-90528134D02*
X150220770Y-90470991D01*
X150220770Y-90470991D02*
X150249342Y-90413848D01*
X150249342Y-90413848D02*
X150277913Y-90385276D01*
X150277913Y-90385276D02*
X150335056Y-90356705D01*
X150335056Y-90356705D02*
X150477913Y-90356705D01*
X150477913Y-90356705D02*
X150563627Y-90385276D01*
X149106484Y-91322671D02*
X149306484Y-91922671D01*
X149306484Y-91922671D02*
X149506484Y-91322671D01*
X149706485Y-91922671D02*
X149706485Y-91322671D01*
X150192199Y-91608385D02*
X150277913Y-91636957D01*
X150277913Y-91636957D02*
X150306484Y-91665528D01*
X150306484Y-91665528D02*
X150335056Y-91722671D01*
X150335056Y-91722671D02*
X150335056Y-91808385D01*
X150335056Y-91808385D02*
X150306484Y-91865528D01*
X150306484Y-91865528D02*
X150277913Y-91894100D01*
X150277913Y-91894100D02*
X150220770Y-91922671D01*
X150220770Y-91922671D02*
X149992199Y-91922671D01*
X149992199Y-91922671D02*
X149992199Y-91322671D01*
X149992199Y-91322671D02*
X150192199Y-91322671D01*
X150192199Y-91322671D02*
X150249342Y-91351242D01*
X150249342Y-91351242D02*
X150277913Y-91379814D01*
X150277913Y-91379814D02*
X150306484Y-91436957D01*
X150306484Y-91436957D02*
X150306484Y-91494100D01*
X150306484Y-91494100D02*
X150277913Y-91551242D01*
X150277913Y-91551242D02*
X150249342Y-91579814D01*
X150249342Y-91579814D02*
X150192199Y-91608385D01*
X150192199Y-91608385D02*
X149992199Y-91608385D01*
X149092199Y-100062168D02*
X149549342Y-100062168D01*
X149835056Y-99890739D02*
X150292199Y-100062168D01*
X150292199Y-100062168D02*
X149835056Y-100233596D01*
X149435056Y-101199562D02*
X149406484Y-101228134D01*
X149406484Y-101228134D02*
X149320770Y-101256705D01*
X149320770Y-101256705D02*
X149263627Y-101256705D01*
X149263627Y-101256705D02*
X149177913Y-101228134D01*
X149177913Y-101228134D02*
X149120770Y-101170991D01*
X149120770Y-101170991D02*
X149092199Y-101113848D01*
X149092199Y-101113848D02*
X149063627Y-100999562D01*
X149063627Y-100999562D02*
X149063627Y-100913848D01*
X149063627Y-100913848D02*
X149092199Y-100799562D01*
X149092199Y-100799562D02*
X149120770Y-100742419D01*
X149120770Y-100742419D02*
X149177913Y-100685276D01*
X149177913Y-100685276D02*
X149263627Y-100656705D01*
X149263627Y-100656705D02*
X149320770Y-100656705D01*
X149320770Y-100656705D02*
X149406484Y-100685276D01*
X149406484Y-100685276D02*
X149435056Y-100713848D01*
X149606484Y-100656705D02*
X149949342Y-100656705D01*
X149777913Y-101256705D02*
X149777913Y-100656705D01*
X150120770Y-101228134D02*
X150206485Y-101256705D01*
X150206485Y-101256705D02*
X150349342Y-101256705D01*
X150349342Y-101256705D02*
X150406485Y-101228134D01*
X150406485Y-101228134D02*
X150435056Y-101199562D01*
X150435056Y-101199562D02*
X150463627Y-101142419D01*
X150463627Y-101142419D02*
X150463627Y-101085276D01*
X150463627Y-101085276D02*
X150435056Y-101028134D01*
X150435056Y-101028134D02*
X150406485Y-100999562D01*
X150406485Y-100999562D02*
X150349342Y-100970991D01*
X150349342Y-100970991D02*
X150235056Y-100942419D01*
X150235056Y-100942419D02*
X150177913Y-100913848D01*
X150177913Y-100913848D02*
X150149342Y-100885276D01*
X150149342Y-100885276D02*
X150120770Y-100828134D01*
X150120770Y-100828134D02*
X150120770Y-100770991D01*
X150120770Y-100770991D02*
X150149342Y-100713848D01*
X150149342Y-100713848D02*
X150177913Y-100685276D01*
X150177913Y-100685276D02*
X150235056Y-100656705D01*
X150235056Y-100656705D02*
X150377913Y-100656705D01*
X150377913Y-100656705D02*
X150463627Y-100685276D01*
X149006484Y-101622671D02*
X149206484Y-102222671D01*
X149206484Y-102222671D02*
X149406484Y-101622671D01*
X149720770Y-101622671D02*
X149835056Y-101622671D01*
X149835056Y-101622671D02*
X149892199Y-101651242D01*
X149892199Y-101651242D02*
X149949342Y-101708385D01*
X149949342Y-101708385D02*
X149977913Y-101822671D01*
X149977913Y-101822671D02*
X149977913Y-102022671D01*
X149977913Y-102022671D02*
X149949342Y-102136957D01*
X149949342Y-102136957D02*
X149892199Y-102194100D01*
X149892199Y-102194100D02*
X149835056Y-102222671D01*
X149835056Y-102222671D02*
X149720770Y-102222671D01*
X149720770Y-102222671D02*
X149663628Y-102194100D01*
X149663628Y-102194100D02*
X149606485Y-102136957D01*
X149606485Y-102136957D02*
X149577913Y-102022671D01*
X149577913Y-102022671D02*
X149577913Y-101822671D01*
X149577913Y-101822671D02*
X149606485Y-101708385D01*
X149606485Y-101708385D02*
X149663628Y-101651242D01*
X149663628Y-101651242D02*
X149720770Y-101622671D01*
X150235056Y-102222671D02*
X150235056Y-101622671D01*
X150235056Y-101622671D02*
X150377913Y-101622671D01*
X150377913Y-101622671D02*
X150463627Y-101651242D01*
X150463627Y-101651242D02*
X150520770Y-101708385D01*
X150520770Y-101708385D02*
X150549341Y-101765528D01*
X150549341Y-101765528D02*
X150577913Y-101879814D01*
X150577913Y-101879814D02*
X150577913Y-101965528D01*
X150577913Y-101965528D02*
X150549341Y-102079814D01*
X150549341Y-102079814D02*
X150520770Y-102136957D01*
X150520770Y-102136957D02*
X150463627Y-102194100D01*
X150463627Y-102194100D02*
X150377913Y-102222671D01*
X150377913Y-102222671D02*
X150235056Y-102222671D01*
D11*
X147433333Y-103059580D02*
X147385714Y-103107200D01*
X147385714Y-103107200D02*
X147242857Y-103154819D01*
X147242857Y-103154819D02*
X147147619Y-103154819D01*
X147147619Y-103154819D02*
X147004762Y-103107200D01*
X147004762Y-103107200D02*
X146909524Y-103011961D01*
X146909524Y-103011961D02*
X146861905Y-102916723D01*
X146861905Y-102916723D02*
X146814286Y-102726247D01*
X146814286Y-102726247D02*
X146814286Y-102583390D01*
X146814286Y-102583390D02*
X146861905Y-102392914D01*
X146861905Y-102392914D02*
X146909524Y-102297676D01*
X146909524Y-102297676D02*
X147004762Y-102202438D01*
X147004762Y-102202438D02*
X147147619Y-102154819D01*
X147147619Y-102154819D02*
X147242857Y-102154819D01*
X147242857Y-102154819D02*
X147385714Y-102202438D01*
X147385714Y-102202438D02*
X147433333Y-102250057D01*
X148385714Y-103154819D02*
X147814286Y-103154819D01*
X148100000Y-103154819D02*
X148100000Y-102154819D01*
X148100000Y-102154819D02*
X148004762Y-102297676D01*
X148004762Y-102297676D02*
X147909524Y-102392914D01*
X147909524Y-102392914D02*
X147814286Y-102440533D01*
X132751666Y-104654819D02*
X132751666Y-105369104D01*
X132751666Y-105369104D02*
X132704047Y-105511961D01*
X132704047Y-105511961D02*
X132608809Y-105607200D01*
X132608809Y-105607200D02*
X132465952Y-105654819D01*
X132465952Y-105654819D02*
X132370714Y-105654819D01*
X133180238Y-104750057D02*
X133227857Y-104702438D01*
X133227857Y-104702438D02*
X133323095Y-104654819D01*
X133323095Y-104654819D02*
X133561190Y-104654819D01*
X133561190Y-104654819D02*
X133656428Y-104702438D01*
X133656428Y-104702438D02*
X133704047Y-104750057D01*
X133704047Y-104750057D02*
X133751666Y-104845295D01*
X133751666Y-104845295D02*
X133751666Y-104940533D01*
X133751666Y-104940533D02*
X133704047Y-105083390D01*
X133704047Y-105083390D02*
X133132619Y-105654819D01*
X133132619Y-105654819D02*
X133751666Y-105654819D01*
X149566666Y-104754819D02*
X149566666Y-105469104D01*
X149566666Y-105469104D02*
X149519047Y-105611961D01*
X149519047Y-105611961D02*
X149423809Y-105707200D01*
X149423809Y-105707200D02*
X149280952Y-105754819D01*
X149280952Y-105754819D02*
X149185714Y-105754819D01*
X150566666Y-105754819D02*
X149995238Y-105754819D01*
X150280952Y-105754819D02*
X150280952Y-104754819D01*
X150280952Y-104754819D02*
X150185714Y-104897676D01*
X150185714Y-104897676D02*
X150090476Y-104992914D01*
X150090476Y-104992914D02*
X149995238Y-105040533D01*
X135533333Y-103059580D02*
X135485714Y-103107200D01*
X135485714Y-103107200D02*
X135342857Y-103154819D01*
X135342857Y-103154819D02*
X135247619Y-103154819D01*
X135247619Y-103154819D02*
X135104762Y-103107200D01*
X135104762Y-103107200D02*
X135009524Y-103011961D01*
X135009524Y-103011961D02*
X134961905Y-102916723D01*
X134961905Y-102916723D02*
X134914286Y-102726247D01*
X134914286Y-102726247D02*
X134914286Y-102583390D01*
X134914286Y-102583390D02*
X134961905Y-102392914D01*
X134961905Y-102392914D02*
X135009524Y-102297676D01*
X135009524Y-102297676D02*
X135104762Y-102202438D01*
X135104762Y-102202438D02*
X135247619Y-102154819D01*
X135247619Y-102154819D02*
X135342857Y-102154819D01*
X135342857Y-102154819D02*
X135485714Y-102202438D01*
X135485714Y-102202438D02*
X135533333Y-102250057D01*
X135914286Y-102250057D02*
X135961905Y-102202438D01*
X135961905Y-102202438D02*
X136057143Y-102154819D01*
X136057143Y-102154819D02*
X136295238Y-102154819D01*
X136295238Y-102154819D02*
X136390476Y-102202438D01*
X136390476Y-102202438D02*
X136438095Y-102250057D01*
X136438095Y-102250057D02*
X136485714Y-102345295D01*
X136485714Y-102345295D02*
X136485714Y-102440533D01*
X136485714Y-102440533D02*
X136438095Y-102583390D01*
X136438095Y-102583390D02*
X135866667Y-103154819D01*
X135866667Y-103154819D02*
X136485714Y-103154819D01*
X140738095Y-102554819D02*
X140738095Y-103364342D01*
X140738095Y-103364342D02*
X140785714Y-103459580D01*
X140785714Y-103459580D02*
X140833333Y-103507200D01*
X140833333Y-103507200D02*
X140928571Y-103554819D01*
X140928571Y-103554819D02*
X141119047Y-103554819D01*
X141119047Y-103554819D02*
X141214285Y-103507200D01*
X141214285Y-103507200D02*
X141261904Y-103459580D01*
X141261904Y-103459580D02*
X141309523Y-103364342D01*
X141309523Y-103364342D02*
X141309523Y-102554819D01*
X142309523Y-103554819D02*
X141738095Y-103554819D01*
X142023809Y-103554819D02*
X142023809Y-102554819D01*
X142023809Y-102554819D02*
X141928571Y-102697676D01*
X141928571Y-102697676D02*
X141833333Y-102792914D01*
X141833333Y-102792914D02*
X141738095Y-102840533D01*
D12*
%TO.C,C1*%
X146853733Y-103590000D02*
X147146267Y-103590000D01*
X146853733Y-104610000D02*
X147146267Y-104610000D01*
%TO.C,J2*%
X129120000Y-89540000D02*
X130500000Y-89540000D01*
X129120000Y-90920000D02*
X129120000Y-89540000D01*
X129120000Y-92190000D02*
X129120000Y-105000000D01*
X129120000Y-92190000D02*
X131880000Y-92190000D01*
X129120000Y-105000000D02*
X131880000Y-105000000D01*
X131880000Y-92190000D02*
X131880000Y-105000000D01*
%TO.C,J1*%
X151120000Y-89540000D02*
X152500000Y-89540000D01*
X151120000Y-90920000D02*
X151120000Y-89540000D01*
X151120000Y-92190000D02*
X151120000Y-105000000D01*
X151120000Y-92190000D02*
X153880000Y-92190000D01*
X151120000Y-105000000D02*
X153880000Y-105000000D01*
X153880000Y-92190000D02*
X153880000Y-105000000D01*
%TO.C,C2*%
X135846267Y-103490000D02*
X135553733Y-103490000D01*
X135846267Y-104510000D02*
X135553733Y-104510000D01*
%TO.C,U1*%
X137640000Y-91740000D02*
X145360000Y-91740000D01*
X137640000Y-91995000D02*
X137640000Y-91740000D01*
X137640000Y-102260000D02*
X137640000Y-102005000D01*
X145360000Y-91740000D02*
X145360000Y-91995000D01*
X145360000Y-102005000D02*
X145360000Y-102260000D01*
X145360000Y-102260000D02*
X137640000Y-102260000D01*
X146490000Y-102480000D02*
X145810000Y-102480000D01*
X146150000Y-102010000D01*
X146490000Y-102480000D01*
G36*
X146490000Y-102480000D02*
G01*
X145810000Y-102480000D01*
X146150000Y-102010000D01*
X146490000Y-102480000D01*
G37*
%TD*%
M02*
