%TF.GenerationSoftware,KiCad,Pcbnew,9.0.5*%
%TF.CreationDate,2026-02-12T15:16:05+09:00*%
%TF.ProjectId,usb_typec_serial_insulation,7573625f-7479-4706-9563-5f7365726961,V1.1*%
%TF.SameCoordinates,Original*%
%TF.FileFunction,Copper,L1,Top*%
%TF.FilePolarity,Positive*%
%FSLAX46Y46*%
G04 Gerber Fmt 4.6, Leading zero omitted, Abs format (unit mm)*
G04 Created by KiCad (PCBNEW 9.0.5) date 2026-02-12 15:16:05*
%MOMM*%
%LPD*%
G01*
G04 APERTURE LIST*
G04 Aperture macros list*
%AMRoundRect*
0 Rectangle with rounded corners*
0 $1 Rounding radius*
0 $2 $3 $4 $5 $6 $7 $8 $9 X,Y pos of 4 corners*
0 Add a 4 corners polygon primitive as box body*
4,1,4,$2,$3,$4,$5,$6,$7,$8,$9,$2,$3,0*
0 Add four circle primitives for the rounded corners*
1,1,$1+$1,$2,$3*
1,1,$1+$1,$4,$5*
1,1,$1+$1,$6,$7*
1,1,$1+$1,$8,$9*
0 Add four rect primitives between the rounded corners*
20,1,$1+$1,$2,$3,$4,$5,0*
20,1,$1+$1,$4,$5,$6,$7,0*
20,1,$1+$1,$6,$7,$8,$9,0*
20,1,$1+$1,$8,$9,$2,$3,0*%
G04 Aperture macros list end*
%TA.AperFunction,SMDPad,CuDef*%
%ADD10RoundRect,0.237500X-0.237500X0.300000X-0.237500X-0.300000X0.237500X-0.300000X0.237500X0.300000X0*%
%TD*%
%TA.AperFunction,ComponentPad*%
%ADD11R,1.700000X1.700000*%
%TD*%
%TA.AperFunction,ComponentPad*%
%ADD12C,1.700000*%
%TD*%
%TA.AperFunction,SMDPad,CuDef*%
%ADD13RoundRect,0.150000X0.825000X0.150000X-0.825000X0.150000X-0.825000X-0.150000X0.825000X-0.150000X0*%
%TD*%
%TA.AperFunction,ViaPad*%
%ADD14C,0.600000*%
%TD*%
%TA.AperFunction,Conductor*%
%ADD15C,0.600000*%
%TD*%
G04 APERTURE END LIST*
D10*
%TO.P,C2,1*%
%TO.N,VCC2*%
X135900000Y-100637500D03*
%TO.P,C2,2*%
%TO.N,GND2*%
X135900000Y-102362500D03*
%TD*%
%TO.P,C1,1*%
%TO.N,VCC1*%
X140100000Y-100700000D03*
%TO.P,C1,2*%
%TO.N,GND1*%
X140100000Y-102425000D03*
%TD*%
D11*
%TO.P,J2,1,Pin_1*%
%TO.N,unconnected-(J2-Pin_1-Pad1)*%
X129915000Y-90840000D03*
D12*
%TO.P,J2,2,Pin_2*%
%TO.N,Net-(J2-Pin_2)*%
X129915000Y-93380000D03*
%TO.P,J2,3,Pin_3*%
%TO.N,Net-(J2-Pin_3)*%
X129915000Y-95920000D03*
%TO.P,J2,4,Pin_4*%
%TO.N,VCC2*%
X129915000Y-98460000D03*
%TO.P,J2,5,Pin_5*%
%TO.N,unconnected-(J2-Pin_5-Pad5)*%
X129915000Y-101000000D03*
%TO.P,J2,6,Pin_6*%
%TO.N,GND2*%
X129915000Y-103540000D03*
%TD*%
D11*
%TO.P,J1,1,Pin_1*%
%TO.N,unconnected-(J1-Pin_1-Pad1)*%
X146100000Y-90820000D03*
D12*
%TO.P,J1,2,Pin_2*%
%TO.N,Net-(J1-Pin_2)*%
X146100000Y-93360000D03*
%TO.P,J1,3,Pin_3*%
%TO.N,Net-(J1-Pin_3)*%
X146100000Y-95900000D03*
%TO.P,J1,4,Pin_4*%
%TO.N,VCC1*%
X146100000Y-98440000D03*
%TO.P,J1,5,Pin_5*%
%TO.N,unconnected-(J1-Pin_5-Pad5)*%
X146100000Y-100980000D03*
%TO.P,J1,6,Pin_6*%
%TO.N,GND1*%
X146100000Y-103520000D03*
%TD*%
D13*
%TO.P,U1,1,VDD1*%
%TO.N,VCC1*%
X140450000Y-98300000D03*
%TO.P,U1,2,VOA*%
%TO.N,Net-(J1-Pin_3)*%
X140450000Y-97030000D03*
%TO.P,U1,3,VIB*%
%TO.N,Net-(J1-Pin_2)*%
X140450000Y-95760000D03*
%TO.P,U1,4,GND1*%
%TO.N,GND1*%
X140450000Y-94490000D03*
%TO.P,U1,5,GND2*%
%TO.N,GND2*%
X135500000Y-94490000D03*
%TO.P,U1,6,VOB*%
%TO.N,Net-(J2-Pin_2)*%
X135500000Y-95760000D03*
%TO.P,U1,7,VIA*%
%TO.N,Net-(J2-Pin_3)*%
X135500000Y-97030000D03*
%TO.P,U1,8,VDD2*%
%TO.N,VCC2*%
X135500000Y-98300000D03*
%TD*%
D14*
%TO.N,GND2*%
X133000000Y-94500000D03*
%TO.N,GND1*%
X142800000Y-94500000D03*
%TD*%
D15*
%TO.N,GND1*%
X145005000Y-102425000D02*
X140100000Y-102425000D01*
X146100000Y-103520000D02*
X145005000Y-102425000D01*
%TO.N,GND2*%
X131092500Y-102362500D02*
X135900000Y-102362500D01*
X129915000Y-103540000D02*
X131092500Y-102362500D01*
%TO.N,VCC1*%
X140100000Y-98650000D02*
X140450000Y-98300000D01*
X140100000Y-100700000D02*
X140100000Y-98650000D01*
%TO.N,VCC2*%
X135900000Y-98700000D02*
X135500000Y-98300000D01*
X135900000Y-100637500D02*
X135900000Y-98700000D01*
X135500000Y-98300000D02*
X130075000Y-98300000D01*
X130075000Y-98300000D02*
X129915000Y-98460000D01*
%TO.N,Net-(J1-Pin_3)*%
X140450000Y-97030000D02*
X144970000Y-97030000D01*
X144970000Y-97030000D02*
X146100000Y-95900000D01*
%TO.N,Net-(J1-Pin_2)*%
X143700000Y-95760000D02*
X146100000Y-93360000D01*
X140450000Y-95760000D02*
X143700000Y-95760000D01*
%TO.N,GND2*%
X135490000Y-94500000D02*
X135500000Y-94490000D01*
X133000000Y-94500000D02*
X135490000Y-94500000D01*
%TO.N,Net-(J2-Pin_3)*%
X135500000Y-97030000D02*
X131025000Y-97030000D01*
X131025000Y-97030000D02*
X129915000Y-95920000D01*
%TO.N,VCC1*%
X140450000Y-98300000D02*
X145960000Y-98300000D01*
X145960000Y-98300000D02*
X146100000Y-98440000D01*
%TO.N,GND1*%
X142800000Y-94500000D02*
X140460000Y-94500000D01*
X140460000Y-94500000D02*
X140450000Y-94490000D01*
%TO.N,Net-(J2-Pin_2)*%
X135500000Y-95760000D02*
X132295000Y-95760000D01*
X132295000Y-95760000D02*
X129915000Y-93380000D01*
%TD*%
%TA.AperFunction,Conductor*%
%TO.N,GND2*%
G36*
X135042539Y-99120185D02*
G01*
X135088294Y-99172989D01*
X135099500Y-99224500D01*
X135099500Y-99809318D01*
X135081039Y-99874415D01*
X134989093Y-100023481D01*
X134989092Y-100023484D01*
X134934826Y-100187247D01*
X134934826Y-100187248D01*
X134934825Y-100187248D01*
X134924500Y-100288315D01*
X134924500Y-100986669D01*
X134924501Y-100986687D01*
X134934825Y-101087752D01*
X134971109Y-101197249D01*
X134989092Y-101251516D01*
X135029013Y-101316239D01*
X135079661Y-101398351D01*
X135093982Y-101412672D01*
X135127467Y-101473995D01*
X135122483Y-101543687D01*
X135093985Y-101588032D01*
X135080052Y-101601965D01*
X134989551Y-101748688D01*
X134989546Y-101748699D01*
X134935319Y-101912347D01*
X134925000Y-102013345D01*
X134925000Y-102112500D01*
X135776000Y-102112500D01*
X135843039Y-102132185D01*
X135888794Y-102184989D01*
X135900000Y-102236500D01*
X135900000Y-102362500D01*
X136026000Y-102362500D01*
X136093039Y-102382185D01*
X136138794Y-102434989D01*
X136150000Y-102486500D01*
X136150000Y-103399999D01*
X136186640Y-103399999D01*
X136186654Y-103399998D01*
X136287652Y-103389680D01*
X136451300Y-103335453D01*
X136451307Y-103335450D01*
X136595323Y-103246619D01*
X136662716Y-103228178D01*
X136729379Y-103249100D01*
X136774149Y-103302742D01*
X136784419Y-103351428D01*
X136796322Y-105374771D01*
X136777032Y-105441925D01*
X136724498Y-105487989D01*
X136672324Y-105499500D01*
X128624500Y-105499500D01*
X128557461Y-105479815D01*
X128511706Y-105427011D01*
X128500500Y-105375500D01*
X128500500Y-104254014D01*
X128520185Y-104186975D01*
X128572989Y-104141220D01*
X128642147Y-104131276D01*
X128705703Y-104160301D01*
X128734985Y-104197719D01*
X128760375Y-104247550D01*
X128799728Y-104301716D01*
X129432037Y-103669408D01*
X129449075Y-103732993D01*
X129514901Y-103847007D01*
X129607993Y-103940099D01*
X129722007Y-104005925D01*
X129785590Y-104022962D01*
X129153282Y-104655269D01*
X129153282Y-104655270D01*
X129207449Y-104694624D01*
X129396782Y-104791095D01*
X129598870Y-104856757D01*
X129808754Y-104890000D01*
X130021246Y-104890000D01*
X130231127Y-104856757D01*
X130231130Y-104856757D01*
X130433217Y-104791095D01*
X130622554Y-104694622D01*
X130676716Y-104655270D01*
X130676717Y-104655270D01*
X130044408Y-104022962D01*
X130107993Y-104005925D01*
X130222007Y-103940099D01*
X130315099Y-103847007D01*
X130380925Y-103732993D01*
X130397962Y-103669408D01*
X131030270Y-104301717D01*
X131030270Y-104301716D01*
X131069622Y-104247554D01*
X131166095Y-104058217D01*
X131231757Y-103856130D01*
X131231757Y-103856127D01*
X131265000Y-103646246D01*
X131265000Y-103433753D01*
X131231757Y-103223872D01*
X131231757Y-103223869D01*
X131166095Y-103021782D01*
X131069624Y-102832449D01*
X131030270Y-102778282D01*
X131030269Y-102778282D01*
X130397962Y-103410590D01*
X130380925Y-103347007D01*
X130315099Y-103232993D01*
X130222007Y-103139901D01*
X130107993Y-103074075D01*
X130044409Y-103057037D01*
X130389791Y-102711654D01*
X134925001Y-102711654D01*
X134935319Y-102812652D01*
X134989546Y-102976300D01*
X134989551Y-102976311D01*
X135080052Y-103123034D01*
X135080055Y-103123038D01*
X135201961Y-103244944D01*
X135201965Y-103244947D01*
X135348688Y-103335448D01*
X135348699Y-103335453D01*
X135512347Y-103389680D01*
X135613352Y-103399999D01*
X135650000Y-103399999D01*
X135650000Y-102612500D01*
X134925001Y-102612500D01*
X134925001Y-102711654D01*
X130389791Y-102711654D01*
X130627988Y-102473457D01*
X130676716Y-102424728D01*
X130622547Y-102385373D01*
X130622547Y-102385372D01*
X130613500Y-102380763D01*
X130562706Y-102332788D01*
X130545912Y-102264966D01*
X130568451Y-102198832D01*
X130613508Y-102159793D01*
X130622816Y-102155051D01*
X130702007Y-102097515D01*
X130794786Y-102030109D01*
X130794788Y-102030106D01*
X130794792Y-102030104D01*
X130945104Y-101879792D01*
X130945106Y-101879788D01*
X130945109Y-101879786D01*
X131070048Y-101707820D01*
X131070047Y-101707820D01*
X131070051Y-101707816D01*
X131166557Y-101518412D01*
X131232246Y-101316243D01*
X131265500Y-101106287D01*
X131265500Y-100893713D01*
X131232246Y-100683757D01*
X131166557Y-100481588D01*
X131070051Y-100292184D01*
X131070049Y-100292181D01*
X131070048Y-100292179D01*
X130945109Y-100120213D01*
X130794786Y-99969890D01*
X130622820Y-99844951D01*
X130622115Y-99844591D01*
X130614054Y-99840485D01*
X130563259Y-99792512D01*
X130546463Y-99724692D01*
X130568999Y-99658556D01*
X130614054Y-99619515D01*
X130622816Y-99615051D01*
X130644789Y-99599086D01*
X130794786Y-99490109D01*
X130794788Y-99490106D01*
X130794792Y-99490104D01*
X130945104Y-99339792D01*
X130945106Y-99339788D01*
X130945109Y-99339786D01*
X131064747Y-99175116D01*
X131070051Y-99167816D01*
X131070060Y-99167797D01*
X131072592Y-99163668D01*
X131073571Y-99164268D01*
X131117824Y-99117411D01*
X131180337Y-99100500D01*
X134609306Y-99100500D01*
X134975500Y-99100500D01*
X135042539Y-99120185D01*
G37*
%TD.AperFunction*%
%TA.AperFunction,Conductor*%
G36*
X128705703Y-101621403D02*
G01*
X128734985Y-101658821D01*
X128759951Y-101707820D01*
X128884890Y-101879786D01*
X129035213Y-102030109D01*
X129207179Y-102155048D01*
X129207181Y-102155049D01*
X129207184Y-102155051D01*
X129216493Y-102159794D01*
X129267290Y-102207766D01*
X129284087Y-102275587D01*
X129261552Y-102341722D01*
X129216505Y-102380760D01*
X129207446Y-102385376D01*
X129207440Y-102385380D01*
X129153282Y-102424727D01*
X129153282Y-102424728D01*
X129785591Y-103057037D01*
X129722007Y-103074075D01*
X129607993Y-103139901D01*
X129514901Y-103232993D01*
X129449075Y-103347007D01*
X129432037Y-103410591D01*
X128799728Y-102778282D01*
X128799727Y-102778282D01*
X128760380Y-102832440D01*
X128760378Y-102832443D01*
X128734984Y-102882282D01*
X128687010Y-102933077D01*
X128619189Y-102949872D01*
X128553054Y-102927334D01*
X128509603Y-102872619D01*
X128500500Y-102825986D01*
X128500500Y-101715116D01*
X128520185Y-101648077D01*
X128572989Y-101602322D01*
X128642147Y-101592378D01*
X128705703Y-101621403D01*
G37*
%TD.AperFunction*%
%TA.AperFunction,Conductor*%
G36*
X136646710Y-89520185D02*
G01*
X136692465Y-89572989D01*
X136703669Y-89623771D01*
X136727141Y-93614075D01*
X136707851Y-93681229D01*
X136655317Y-93727293D01*
X136586218Y-93737644D01*
X136568548Y-93733881D01*
X136427486Y-93692899D01*
X136427489Y-93692899D01*
X136390649Y-93690000D01*
X135750000Y-93690000D01*
X135750000Y-94366000D01*
X135730315Y-94433039D01*
X135677511Y-94478794D01*
X135626000Y-94490000D01*
X135500000Y-94490000D01*
X135500000Y-94616000D01*
X135480315Y-94683039D01*
X135427511Y-94728794D01*
X135376000Y-94740000D01*
X134027705Y-94740000D01*
X134027704Y-94740001D01*
X134027899Y-94742488D01*
X134027900Y-94742494D01*
X134044871Y-94800905D01*
X134044672Y-94870774D01*
X134006730Y-94929444D01*
X133943092Y-94958288D01*
X133925795Y-94959500D01*
X132677939Y-94959500D01*
X132610900Y-94939815D01*
X132590258Y-94923181D01*
X131907075Y-94239998D01*
X134027704Y-94239998D01*
X134027705Y-94240000D01*
X135250000Y-94240000D01*
X135250000Y-93690000D01*
X134609350Y-93690000D01*
X134572510Y-93692899D01*
X134572504Y-93692900D01*
X134414806Y-93738716D01*
X134414803Y-93738717D01*
X134273447Y-93822314D01*
X134273438Y-93822321D01*
X134157321Y-93938438D01*
X134157314Y-93938447D01*
X134073718Y-94079801D01*
X134027899Y-94237513D01*
X134027704Y-94239998D01*
X131907075Y-94239998D01*
X131294843Y-93627766D01*
X131261358Y-93566443D01*
X131260051Y-93520688D01*
X131265500Y-93486287D01*
X131265500Y-93273713D01*
X131232246Y-93063757D01*
X131166557Y-92861588D01*
X131070051Y-92672184D01*
X131070049Y-92672181D01*
X131070048Y-92672179D01*
X130945109Y-92500213D01*
X130831569Y-92386673D01*
X130798084Y-92325350D01*
X130803068Y-92255658D01*
X130844940Y-92199725D01*
X130875915Y-92182810D01*
X131007331Y-92133796D01*
X131122546Y-92047546D01*
X131208796Y-91932331D01*
X131259091Y-91797483D01*
X131265500Y-91737873D01*
X131265499Y-89942128D01*
X131259091Y-89882517D01*
X131208796Y-89747669D01*
X131172221Y-89698811D01*
X131147804Y-89633347D01*
X131162656Y-89565074D01*
X131212061Y-89515668D01*
X131271488Y-89500500D01*
X136579671Y-89500500D01*
X136646710Y-89520185D01*
G37*
%TD.AperFunction*%
%TD*%
%TA.AperFunction,Conductor*%
%TO.N,GND1*%
G36*
X144914429Y-99120185D02*
G01*
X144947708Y-99151615D01*
X145069890Y-99319785D01*
X145069894Y-99319790D01*
X145220213Y-99470109D01*
X145392182Y-99595050D01*
X145400946Y-99599516D01*
X145451742Y-99647491D01*
X145468536Y-99715312D01*
X145445998Y-99781447D01*
X145400946Y-99820484D01*
X145392182Y-99824949D01*
X145220213Y-99949890D01*
X145069890Y-100100213D01*
X144944951Y-100272179D01*
X144848444Y-100461585D01*
X144782753Y-100663760D01*
X144749500Y-100873713D01*
X144749500Y-101086287D01*
X144782754Y-101296243D01*
X144840890Y-101475167D01*
X144848444Y-101498414D01*
X144944951Y-101687820D01*
X145069890Y-101859786D01*
X145220213Y-102010109D01*
X145392179Y-102135048D01*
X145392181Y-102135049D01*
X145392184Y-102135051D01*
X145401493Y-102139794D01*
X145452290Y-102187766D01*
X145469087Y-102255587D01*
X145446552Y-102321722D01*
X145401505Y-102360760D01*
X145392446Y-102365376D01*
X145392440Y-102365380D01*
X145338282Y-102404727D01*
X145338282Y-102404728D01*
X145970591Y-103037037D01*
X145907007Y-103054075D01*
X145792993Y-103119901D01*
X145699901Y-103212993D01*
X145634075Y-103327007D01*
X145617037Y-103390591D01*
X144984728Y-102758282D01*
X144984727Y-102758282D01*
X144945380Y-102812439D01*
X144848904Y-103001782D01*
X144783242Y-103203869D01*
X144783242Y-103203872D01*
X144750000Y-103413753D01*
X144750000Y-103626246D01*
X144783242Y-103836127D01*
X144783242Y-103836130D01*
X144848904Y-104038217D01*
X144945375Y-104227550D01*
X144984728Y-104281716D01*
X145617037Y-103649408D01*
X145634075Y-103712993D01*
X145699901Y-103827007D01*
X145792993Y-103920099D01*
X145907007Y-103985925D01*
X145970590Y-104002962D01*
X145338282Y-104635269D01*
X145338282Y-104635270D01*
X145392449Y-104674624D01*
X145581782Y-104771095D01*
X145783870Y-104836757D01*
X145993754Y-104870000D01*
X146206246Y-104870000D01*
X146416127Y-104836757D01*
X146416130Y-104836757D01*
X146618217Y-104771095D01*
X146807554Y-104674622D01*
X146861716Y-104635270D01*
X146861717Y-104635270D01*
X146229408Y-104002962D01*
X146292993Y-103985925D01*
X146407007Y-103920099D01*
X146500099Y-103827007D01*
X146565925Y-103712993D01*
X146582962Y-103649408D01*
X147215270Y-104281717D01*
X147215270Y-104281716D01*
X147254624Y-104227552D01*
X147265015Y-104207159D01*
X147312989Y-104156362D01*
X147380810Y-104139567D01*
X147446945Y-104162104D01*
X147490397Y-104216819D01*
X147499500Y-104263453D01*
X147499500Y-105375500D01*
X147479815Y-105442539D01*
X147427011Y-105488294D01*
X147375500Y-105499500D01*
X139324000Y-105499500D01*
X139256961Y-105479815D01*
X139211206Y-105427011D01*
X139200000Y-105375500D01*
X139200000Y-103403879D01*
X139219685Y-103336840D01*
X139272489Y-103291085D01*
X139341647Y-103281141D01*
X139395439Y-103304263D01*
X139395815Y-103303654D01*
X139399939Y-103306197D01*
X139400919Y-103306619D01*
X139401971Y-103307451D01*
X139548688Y-103397948D01*
X139548699Y-103397953D01*
X139712347Y-103452180D01*
X139813352Y-103462499D01*
X139850000Y-103462499D01*
X140350000Y-103462499D01*
X140386640Y-103462499D01*
X140386654Y-103462498D01*
X140487652Y-103452180D01*
X140651300Y-103397953D01*
X140651311Y-103397948D01*
X140798032Y-103307448D01*
X140798039Y-103307443D01*
X140919944Y-103185538D01*
X140919947Y-103185534D01*
X141010448Y-103038811D01*
X141010453Y-103038800D01*
X141064680Y-102875152D01*
X141074999Y-102774154D01*
X141075000Y-102774141D01*
X141075000Y-102675000D01*
X140350000Y-102675000D01*
X140350000Y-103462499D01*
X139850000Y-103462499D01*
X139850000Y-102549000D01*
X139869685Y-102481961D01*
X139922489Y-102436206D01*
X139974000Y-102425000D01*
X140100000Y-102425000D01*
X140100000Y-102299000D01*
X140119685Y-102231961D01*
X140172489Y-102186206D01*
X140224000Y-102175000D01*
X141074999Y-102175000D01*
X141074999Y-102075860D01*
X141074998Y-102075845D01*
X141064680Y-101974847D01*
X141010453Y-101811199D01*
X141010448Y-101811188D01*
X140919947Y-101664465D01*
X140919944Y-101664461D01*
X140906017Y-101650534D01*
X140872532Y-101589211D01*
X140877516Y-101519519D01*
X140906017Y-101475172D01*
X140920340Y-101460850D01*
X141010908Y-101314016D01*
X141065174Y-101150253D01*
X141075500Y-101049177D01*
X141075499Y-100350824D01*
X141065174Y-100249747D01*
X141010908Y-100085984D01*
X140920340Y-99939150D01*
X140920338Y-99939148D01*
X140918961Y-99936915D01*
X140900500Y-99871818D01*
X140900500Y-99224500D01*
X140920185Y-99157461D01*
X140972989Y-99111706D01*
X141024500Y-99100500D01*
X144847390Y-99100500D01*
X144914429Y-99120185D01*
G37*
%TD.AperFunction*%
%TA.AperFunction,Conductor*%
G36*
X147446945Y-101623206D02*
G01*
X147490397Y-101677921D01*
X147499500Y-101724555D01*
X147499500Y-102776546D01*
X147479815Y-102843585D01*
X147427011Y-102889340D01*
X147357853Y-102899284D01*
X147294297Y-102870259D01*
X147265016Y-102832842D01*
X147254626Y-102812452D01*
X147215270Y-102758282D01*
X147215269Y-102758282D01*
X146582962Y-103390590D01*
X146565925Y-103327007D01*
X146500099Y-103212993D01*
X146407007Y-103119901D01*
X146292993Y-103054075D01*
X146229409Y-103037037D01*
X146861716Y-102404728D01*
X146807547Y-102365373D01*
X146807547Y-102365372D01*
X146798500Y-102360763D01*
X146747706Y-102312788D01*
X146730912Y-102244966D01*
X146753451Y-102178832D01*
X146798508Y-102139793D01*
X146807816Y-102135051D01*
X146889307Y-102075845D01*
X146979786Y-102010109D01*
X146979788Y-102010106D01*
X146979792Y-102010104D01*
X147130104Y-101859792D01*
X147130106Y-101859788D01*
X147130109Y-101859786D01*
X147255050Y-101687817D01*
X147265015Y-101668261D01*
X147312989Y-101617464D01*
X147380810Y-101600669D01*
X147446945Y-101623206D01*
G37*
%TD.AperFunction*%
%TA.AperFunction,Conductor*%
G36*
X144795579Y-89520185D02*
G01*
X144841334Y-89572989D01*
X144851278Y-89642147D01*
X144827807Y-89698811D01*
X144806204Y-89727668D01*
X144806202Y-89727671D01*
X144755908Y-89862517D01*
X144749501Y-89922116D01*
X144749500Y-89922135D01*
X144749500Y-91717870D01*
X144749501Y-91717876D01*
X144755908Y-91777483D01*
X144806202Y-91912328D01*
X144806206Y-91912335D01*
X144892452Y-92027544D01*
X144892455Y-92027547D01*
X145007664Y-92113793D01*
X145007671Y-92113797D01*
X145139082Y-92162810D01*
X145195016Y-92204681D01*
X145219433Y-92270145D01*
X145204582Y-92338418D01*
X145183431Y-92366673D01*
X145069889Y-92480215D01*
X144944951Y-92652179D01*
X144848444Y-92841585D01*
X144782753Y-93043760D01*
X144749500Y-93253713D01*
X144749500Y-93466287D01*
X144749499Y-93466287D01*
X144754948Y-93500686D01*
X144745993Y-93569979D01*
X144720156Y-93607764D01*
X143404741Y-94923181D01*
X143343418Y-94956666D01*
X143317060Y-94959500D01*
X142024205Y-94959500D01*
X141957166Y-94939815D01*
X141911411Y-94887011D01*
X141901467Y-94817853D01*
X141905129Y-94800905D01*
X141922099Y-94742494D01*
X141922100Y-94742488D01*
X141922295Y-94740001D01*
X141922295Y-94740000D01*
X140574000Y-94740000D01*
X140506961Y-94720315D01*
X140461206Y-94667511D01*
X140450000Y-94616000D01*
X140450000Y-94490000D01*
X140324000Y-94490000D01*
X140256961Y-94470315D01*
X140211206Y-94417511D01*
X140200000Y-94366000D01*
X140200000Y-94240000D01*
X140700000Y-94240000D01*
X141922295Y-94240000D01*
X141922295Y-94239998D01*
X141922100Y-94237513D01*
X141876281Y-94079801D01*
X141792685Y-93938447D01*
X141792678Y-93938438D01*
X141676561Y-93822321D01*
X141676552Y-93822314D01*
X141535196Y-93738717D01*
X141535193Y-93738716D01*
X141377495Y-93692900D01*
X141377489Y-93692899D01*
X141340649Y-93690000D01*
X140700000Y-93690000D01*
X140700000Y-94240000D01*
X140200000Y-94240000D01*
X140200000Y-93690000D01*
X139559350Y-93690000D01*
X139522510Y-93692899D01*
X139358594Y-93740521D01*
X139288725Y-93740321D01*
X139230055Y-93702378D01*
X139201212Y-93638740D01*
X139200000Y-93621444D01*
X139200000Y-89624500D01*
X139219685Y-89557461D01*
X139272489Y-89511706D01*
X139324000Y-89500500D01*
X144728540Y-89500500D01*
X144795579Y-89520185D01*
G37*
%TD.AperFunction*%
%TD*%
M02*
