%TF.GenerationSoftware,KiCad,Pcbnew,9.0.5*%
%TF.CreationDate,2026-02-12T15:16:05+09:00*%
%TF.ProjectId,usb_typec_serial_insulation,7573625f-7479-4706-9563-5f7365726961,V1.1*%
%TF.SameCoordinates,Original*%
%TF.FileFunction,Copper,L2,Bot*%
%TF.FilePolarity,Positive*%
%FSLAX46Y46*%
G04 Gerber Fmt 4.6, Leading zero omitted, Abs format (unit mm)*
G04 Created by KiCad (PCBNEW 9.0.5) date 2026-02-12 15:16:05*
%MOMM*%
%LPD*%
G01*
G04 APERTURE LIST*
%TA.AperFunction,ComponentPad*%
%ADD10R,1.700000X1.700000*%
%TD*%
%TA.AperFunction,ComponentPad*%
%ADD11C,1.700000*%
%TD*%
%TA.AperFunction,ViaPad*%
%ADD12C,0.600000*%
%TD*%
%TA.AperFunction,Conductor*%
%ADD13C,0.600000*%
%TD*%
G04 APERTURE END LIST*
D10*
%TO.P,J2,1,Pin_1*%
%TO.N,unconnected-(J2-Pin_1-Pad1)*%
X129915000Y-90840000D03*
D11*
%TO.P,J2,2,Pin_2*%
%TO.N,Net-(J2-Pin_2)*%
X129915000Y-93380000D03*
%TO.P,J2,3,Pin_3*%
%TO.N,Net-(J2-Pin_3)*%
X129915000Y-95920000D03*
%TO.P,J2,4,Pin_4*%
%TO.N,VCC2*%
X129915000Y-98460000D03*
%TO.P,J2,5,Pin_5*%
%TO.N,unconnected-(J2-Pin_5-Pad5)*%
X129915000Y-101000000D03*
%TO.P,J2,6,Pin_6*%
%TO.N,GND2*%
X129915000Y-103540000D03*
%TD*%
D10*
%TO.P,J1,1,Pin_1*%
%TO.N,unconnected-(J1-Pin_1-Pad1)*%
X146100000Y-90820000D03*
D11*
%TO.P,J1,2,Pin_2*%
%TO.N,Net-(J1-Pin_2)*%
X146100000Y-93360000D03*
%TO.P,J1,3,Pin_3*%
%TO.N,Net-(J1-Pin_3)*%
X146100000Y-95900000D03*
%TO.P,J1,4,Pin_4*%
%TO.N,VCC1*%
X146100000Y-98440000D03*
%TO.P,J1,5,Pin_5*%
%TO.N,unconnected-(J1-Pin_5-Pad5)*%
X146100000Y-100980000D03*
%TO.P,J1,6,Pin_6*%
%TO.N,GND1*%
X146100000Y-103520000D03*
%TD*%
D12*
%TO.N,GND2*%
X133000000Y-94500000D03*
%TO.N,GND1*%
X142800000Y-94500000D03*
%TD*%
D13*
%TO.N,GND2*%
X133000000Y-100455000D02*
X133000000Y-94500000D01*
X129915000Y-103540000D02*
X133000000Y-100455000D01*
%TO.N,GND1*%
X146100000Y-103520000D02*
X142800000Y-100220000D01*
X142800000Y-100220000D02*
X142800000Y-94500000D01*
%TD*%
%TA.AperFunction,Conductor*%
%TO.N,GND2*%
G36*
X136646710Y-89520185D02*
G01*
X136692465Y-89572989D01*
X136703669Y-89623771D01*
X136796322Y-105374771D01*
X136777032Y-105441925D01*
X136724498Y-105487989D01*
X136672324Y-105499500D01*
X128624500Y-105499500D01*
X128557461Y-105479815D01*
X128511706Y-105427011D01*
X128500500Y-105375500D01*
X128500500Y-104254014D01*
X128520185Y-104186975D01*
X128572989Y-104141220D01*
X128642147Y-104131276D01*
X128705703Y-104160301D01*
X128734985Y-104197719D01*
X128760375Y-104247550D01*
X128799728Y-104301716D01*
X129432037Y-103669408D01*
X129449075Y-103732993D01*
X129514901Y-103847007D01*
X129607993Y-103940099D01*
X129722007Y-104005925D01*
X129785590Y-104022962D01*
X129153282Y-104655269D01*
X129153282Y-104655270D01*
X129207449Y-104694624D01*
X129396782Y-104791095D01*
X129598870Y-104856757D01*
X129808754Y-104890000D01*
X130021246Y-104890000D01*
X130231127Y-104856757D01*
X130231130Y-104856757D01*
X130433217Y-104791095D01*
X130622554Y-104694622D01*
X130676716Y-104655270D01*
X130676717Y-104655270D01*
X130044408Y-104022962D01*
X130107993Y-104005925D01*
X130222007Y-103940099D01*
X130315099Y-103847007D01*
X130380925Y-103732993D01*
X130397962Y-103669408D01*
X131030270Y-104301717D01*
X131030270Y-104301716D01*
X131069622Y-104247554D01*
X131166095Y-104058217D01*
X131231757Y-103856130D01*
X131231757Y-103856127D01*
X131265000Y-103646246D01*
X131265000Y-103433753D01*
X131231757Y-103223872D01*
X131231757Y-103223869D01*
X131166095Y-103021782D01*
X131069624Y-102832449D01*
X131030270Y-102778282D01*
X131030269Y-102778282D01*
X130397962Y-103410590D01*
X130380925Y-103347007D01*
X130315099Y-103232993D01*
X130222007Y-103139901D01*
X130107993Y-103074075D01*
X130044409Y-103057037D01*
X130676716Y-102424728D01*
X130622547Y-102385373D01*
X130622547Y-102385372D01*
X130613500Y-102380763D01*
X130562706Y-102332788D01*
X130545912Y-102264966D01*
X130568451Y-102198832D01*
X130613508Y-102159793D01*
X130622816Y-102155051D01*
X130702007Y-102097515D01*
X130794786Y-102030109D01*
X130794788Y-102030106D01*
X130794792Y-102030104D01*
X130945104Y-101879792D01*
X130945106Y-101879788D01*
X130945109Y-101879786D01*
X131070048Y-101707820D01*
X131070047Y-101707820D01*
X131070051Y-101707816D01*
X131166557Y-101518412D01*
X131232246Y-101316243D01*
X131265500Y-101106287D01*
X131265500Y-100893713D01*
X131232246Y-100683757D01*
X131166557Y-100481588D01*
X131070051Y-100292184D01*
X131070049Y-100292181D01*
X131070048Y-100292179D01*
X130945109Y-100120213D01*
X130794786Y-99969890D01*
X130622820Y-99844951D01*
X130622115Y-99844591D01*
X130614054Y-99840485D01*
X130563259Y-99792512D01*
X130546463Y-99724692D01*
X130568999Y-99658556D01*
X130614054Y-99619515D01*
X130622816Y-99615051D01*
X130644789Y-99599086D01*
X130794786Y-99490109D01*
X130794788Y-99490106D01*
X130794792Y-99490104D01*
X130945104Y-99339792D01*
X130945106Y-99339788D01*
X130945109Y-99339786D01*
X131070048Y-99167820D01*
X131070047Y-99167820D01*
X131070051Y-99167816D01*
X131166557Y-98978412D01*
X131232246Y-98776243D01*
X131265500Y-98566287D01*
X131265500Y-98353713D01*
X131232246Y-98143757D01*
X131166557Y-97941588D01*
X131070051Y-97752184D01*
X131070049Y-97752181D01*
X131070048Y-97752179D01*
X130945109Y-97580213D01*
X130794786Y-97429890D01*
X130622820Y-97304951D01*
X130622115Y-97304591D01*
X130614054Y-97300485D01*
X130563259Y-97252512D01*
X130546463Y-97184692D01*
X130568999Y-97118556D01*
X130614054Y-97079515D01*
X130622816Y-97075051D01*
X130644789Y-97059086D01*
X130794786Y-96950109D01*
X130794788Y-96950106D01*
X130794792Y-96950104D01*
X130945104Y-96799792D01*
X130945106Y-96799788D01*
X130945109Y-96799786D01*
X131070048Y-96627820D01*
X131070047Y-96627820D01*
X131070051Y-96627816D01*
X131166557Y-96438412D01*
X131232246Y-96236243D01*
X131265500Y-96026287D01*
X131265500Y-95813713D01*
X131232246Y-95603757D01*
X131166557Y-95401588D01*
X131070051Y-95212184D01*
X131070049Y-95212181D01*
X131070048Y-95212179D01*
X130945109Y-95040213D01*
X130794786Y-94889890D01*
X130622820Y-94764951D01*
X130622115Y-94764591D01*
X130614054Y-94760485D01*
X130563259Y-94712512D01*
X130546463Y-94644692D01*
X130568999Y-94578556D01*
X130614054Y-94539515D01*
X130622816Y-94535051D01*
X130644789Y-94519086D01*
X130794786Y-94410109D01*
X130794788Y-94410106D01*
X130794792Y-94410104D01*
X130945104Y-94259792D01*
X130945106Y-94259788D01*
X130945109Y-94259786D01*
X131070048Y-94087820D01*
X131070047Y-94087820D01*
X131070051Y-94087816D01*
X131166557Y-93898412D01*
X131232246Y-93696243D01*
X131265500Y-93486287D01*
X131265500Y-93273713D01*
X131232246Y-93063757D01*
X131166557Y-92861588D01*
X131070051Y-92672184D01*
X131070049Y-92672181D01*
X131070048Y-92672179D01*
X130945109Y-92500213D01*
X130831569Y-92386673D01*
X130798084Y-92325350D01*
X130803068Y-92255658D01*
X130844940Y-92199725D01*
X130875915Y-92182810D01*
X131007331Y-92133796D01*
X131122546Y-92047546D01*
X131208796Y-91932331D01*
X131259091Y-91797483D01*
X131265500Y-91737873D01*
X131265499Y-89942128D01*
X131259091Y-89882517D01*
X131208796Y-89747669D01*
X131172221Y-89698811D01*
X131147804Y-89633347D01*
X131162656Y-89565074D01*
X131212061Y-89515668D01*
X131271488Y-89500500D01*
X136579671Y-89500500D01*
X136646710Y-89520185D01*
G37*
%TD.AperFunction*%
%TA.AperFunction,Conductor*%
G36*
X128705703Y-101621403D02*
G01*
X128734985Y-101658821D01*
X128759951Y-101707820D01*
X128884890Y-101879786D01*
X129035213Y-102030109D01*
X129207179Y-102155048D01*
X129207181Y-102155049D01*
X129207184Y-102155051D01*
X129216493Y-102159794D01*
X129267290Y-102207766D01*
X129284087Y-102275587D01*
X129261552Y-102341722D01*
X129216505Y-102380760D01*
X129207446Y-102385376D01*
X129207440Y-102385380D01*
X129153282Y-102424727D01*
X129153282Y-102424728D01*
X129785591Y-103057037D01*
X129722007Y-103074075D01*
X129607993Y-103139901D01*
X129514901Y-103232993D01*
X129449075Y-103347007D01*
X129432037Y-103410591D01*
X128799728Y-102778282D01*
X128799727Y-102778282D01*
X128760380Y-102832440D01*
X128760378Y-102832443D01*
X128734984Y-102882282D01*
X128687010Y-102933077D01*
X128619189Y-102949872D01*
X128553054Y-102927334D01*
X128509603Y-102872619D01*
X128500500Y-102825986D01*
X128500500Y-101715116D01*
X128520185Y-101648077D01*
X128572989Y-101602322D01*
X128642147Y-101592378D01*
X128705703Y-101621403D01*
G37*
%TD.AperFunction*%
%TD*%
%TA.AperFunction,Conductor*%
%TO.N,GND1*%
G36*
X144795579Y-89520185D02*
G01*
X144841334Y-89572989D01*
X144851278Y-89642147D01*
X144827807Y-89698811D01*
X144806204Y-89727668D01*
X144806202Y-89727671D01*
X144755908Y-89862517D01*
X144749501Y-89922116D01*
X144749500Y-89922135D01*
X144749500Y-91717870D01*
X144749501Y-91717876D01*
X144755908Y-91777483D01*
X144806202Y-91912328D01*
X144806206Y-91912335D01*
X144892452Y-92027544D01*
X144892455Y-92027547D01*
X145007664Y-92113793D01*
X145007671Y-92113797D01*
X145139082Y-92162810D01*
X145195016Y-92204681D01*
X145219433Y-92270145D01*
X145204582Y-92338418D01*
X145183431Y-92366673D01*
X145069889Y-92480215D01*
X144944951Y-92652179D01*
X144848444Y-92841585D01*
X144782753Y-93043760D01*
X144749500Y-93253713D01*
X144749500Y-93466286D01*
X144782753Y-93676239D01*
X144848444Y-93878414D01*
X144944951Y-94067820D01*
X145069890Y-94239786D01*
X145220213Y-94390109D01*
X145392182Y-94515050D01*
X145400946Y-94519516D01*
X145451742Y-94567491D01*
X145468536Y-94635312D01*
X145445998Y-94701447D01*
X145400946Y-94740484D01*
X145392182Y-94744949D01*
X145220213Y-94869890D01*
X145069890Y-95020213D01*
X144944951Y-95192179D01*
X144848444Y-95381585D01*
X144782753Y-95583760D01*
X144749500Y-95793713D01*
X144749500Y-96006286D01*
X144782753Y-96216239D01*
X144848444Y-96418414D01*
X144944951Y-96607820D01*
X145069890Y-96779786D01*
X145220213Y-96930109D01*
X145392182Y-97055050D01*
X145400946Y-97059516D01*
X145451742Y-97107491D01*
X145468536Y-97175312D01*
X145445998Y-97241447D01*
X145400946Y-97280484D01*
X145392182Y-97284949D01*
X145220213Y-97409890D01*
X145069890Y-97560213D01*
X144944951Y-97732179D01*
X144848444Y-97921585D01*
X144782753Y-98123760D01*
X144749500Y-98333713D01*
X144749500Y-98546286D01*
X144782753Y-98756239D01*
X144848444Y-98958414D01*
X144944951Y-99147820D01*
X145069890Y-99319786D01*
X145220213Y-99470109D01*
X145392182Y-99595050D01*
X145400946Y-99599516D01*
X145451742Y-99647491D01*
X145468536Y-99715312D01*
X145445998Y-99781447D01*
X145400946Y-99820484D01*
X145392182Y-99824949D01*
X145220213Y-99949890D01*
X145069890Y-100100213D01*
X144944951Y-100272179D01*
X144848444Y-100461585D01*
X144782753Y-100663760D01*
X144749500Y-100873713D01*
X144749500Y-101086286D01*
X144782753Y-101296239D01*
X144848444Y-101498414D01*
X144944951Y-101687820D01*
X145069890Y-101859786D01*
X145220213Y-102010109D01*
X145392179Y-102135048D01*
X145392181Y-102135049D01*
X145392184Y-102135051D01*
X145401493Y-102139794D01*
X145452290Y-102187766D01*
X145469087Y-102255587D01*
X145446552Y-102321722D01*
X145401505Y-102360760D01*
X145392446Y-102365376D01*
X145392440Y-102365380D01*
X145338282Y-102404727D01*
X145338282Y-102404728D01*
X145970591Y-103037037D01*
X145907007Y-103054075D01*
X145792993Y-103119901D01*
X145699901Y-103212993D01*
X145634075Y-103327007D01*
X145617037Y-103390591D01*
X144984728Y-102758282D01*
X144984727Y-102758282D01*
X144945380Y-102812439D01*
X144848904Y-103001782D01*
X144783242Y-103203869D01*
X144783242Y-103203872D01*
X144750000Y-103413753D01*
X144750000Y-103626246D01*
X144783242Y-103836127D01*
X144783242Y-103836130D01*
X144848904Y-104038217D01*
X144945375Y-104227550D01*
X144984728Y-104281716D01*
X145617037Y-103649408D01*
X145634075Y-103712993D01*
X145699901Y-103827007D01*
X145792993Y-103920099D01*
X145907007Y-103985925D01*
X145970590Y-104002962D01*
X145338282Y-104635269D01*
X145338282Y-104635270D01*
X145392449Y-104674624D01*
X145581782Y-104771095D01*
X145783870Y-104836757D01*
X145993754Y-104870000D01*
X146206246Y-104870000D01*
X146416127Y-104836757D01*
X146416130Y-104836757D01*
X146618217Y-104771095D01*
X146807554Y-104674622D01*
X146861716Y-104635270D01*
X146861717Y-104635270D01*
X146229408Y-104002962D01*
X146292993Y-103985925D01*
X146407007Y-103920099D01*
X146500099Y-103827007D01*
X146565925Y-103712993D01*
X146582962Y-103649408D01*
X147215270Y-104281717D01*
X147215270Y-104281716D01*
X147254624Y-104227552D01*
X147265015Y-104207159D01*
X147312989Y-104156362D01*
X147380810Y-104139567D01*
X147446945Y-104162104D01*
X147490397Y-104216819D01*
X147499500Y-104263453D01*
X147499500Y-105375500D01*
X147479815Y-105442539D01*
X147427011Y-105488294D01*
X147375500Y-105499500D01*
X139324000Y-105499500D01*
X139256961Y-105479815D01*
X139211206Y-105427011D01*
X139200000Y-105375500D01*
X139200000Y-89624500D01*
X139219685Y-89557461D01*
X139272489Y-89511706D01*
X139324000Y-89500500D01*
X144728540Y-89500500D01*
X144795579Y-89520185D01*
G37*
%TD.AperFunction*%
%TA.AperFunction,Conductor*%
G36*
X147446945Y-101623206D02*
G01*
X147490397Y-101677921D01*
X147499500Y-101724555D01*
X147499500Y-102776546D01*
X147479815Y-102843585D01*
X147427011Y-102889340D01*
X147357853Y-102899284D01*
X147294297Y-102870259D01*
X147265016Y-102832842D01*
X147254626Y-102812452D01*
X147215270Y-102758282D01*
X147215269Y-102758282D01*
X146582962Y-103390590D01*
X146565925Y-103327007D01*
X146500099Y-103212993D01*
X146407007Y-103119901D01*
X146292993Y-103054075D01*
X146229409Y-103037037D01*
X146861716Y-102404728D01*
X146807547Y-102365373D01*
X146807547Y-102365372D01*
X146798500Y-102360763D01*
X146747706Y-102312788D01*
X146730912Y-102244966D01*
X146753451Y-102178832D01*
X146798508Y-102139793D01*
X146807816Y-102135051D01*
X146887007Y-102077515D01*
X146979786Y-102010109D01*
X146979788Y-102010106D01*
X146979792Y-102010104D01*
X147130104Y-101859792D01*
X147130106Y-101859788D01*
X147130109Y-101859786D01*
X147255050Y-101687817D01*
X147265015Y-101668261D01*
X147312989Y-101617464D01*
X147380810Y-101600669D01*
X147446945Y-101623206D01*
G37*
%TD.AperFunction*%
%TD*%
M02*
